{"glyphs":{"0":{"ha":853,"x_min":111,"x_max":742,"o":"m 428 -19 q 659 64 576 -19 q 742 292 742 147 l 742 694 q 658 922 742 839 q 428 1006 575 1006 q 194 922 278 1006 q 111 694 111 839 l 111 292 q 194 64 111 147 q 428 -19 278 -19 m 428 18 q 224 91 296 18 q 151 292 151 164 l 151 694 q 224 895 151 822 q 428 968 296 968 q 630 895 558 968 q 701 694 701 822 l 701 292 q 630 91 701 164 q 428 18 558 18 "},"1":{"ha":533,"x_min":64,"x_max":375,"o":"m 347 0 l 364 0 q 375 11 375 0 l 375 975 q 364 986 375 986 l 350 986 q 335 982 343 986 l 74 831 q 69 817 64 826 l 78 801 q 85 797 82 797 q 93 799 89 796 l 335 938 l 335 11 q 338 2 335 4 q 347 0 340 0 "},"2":{"ha":801,"x_min":99,"x_max":701,"o":"m 113 0 l 690 0 q 700 11 700 0 l 700 26 q 690 38 700 38 l 142 38 l 142 129 q 175 257 142 206 q 260 340 208 308 q 394 407 313 372 q 446 426 439 425 q 585 492 536 463 q 668 576 635 521 q 701 719 701 631 q 667 869 701 804 q 571 969 633 933 q 425 1006 508 1006 q 224 952 300 1006 q 103 786 147 899 q 108 772 99 776 l 126 767 q 139 774 135 764 q 247 921 179 874 q 424 968 314 968 q 596 900 531 968 q 661 718 661 832 q 631 592 661 640 q 554 518 600 544 q 429 461 508 492 q 374 439 418 456 q 230 367 286 403 q 137 272 174 331 q 100 125 100 213 l 100 13 q 113 0 100 0 "},"3":{"ha":810,"x_min":96,"x_max":713,"o":"m 417 -19 q 640 55 567 -19 q 713 265 713 129 q 672 420 713 354 q 557 511 632 486 q 653 596 621 535 q 686 733 686 657 q 617 935 686 864 q 417 1006 549 1006 q 208 946 279 1006 q 106 763 138 886 q 113 747 101 751 l 128 743 q 137 743 133 742 q 142 750 140 744 q 233 917 171 867 q 417 968 296 968 q 589 907 531 968 q 647 732 647 846 q 603 586 647 644 q 469 528 560 528 l 247 528 q 238 517 238 528 l 238 501 q 247 490 238 490 l 471 490 q 619 428 567 490 q 672 265 672 365 q 609 83 672 147 q 415 18 546 18 q 226 73 290 18 q 135 243 161 128 q 126 251 133 251 q 121 250 122 251 l 104 246 q 96 238 96 244 l 97 231 q 203 42 131 103 q 417 -19 275 -19 "},"4":{"ha":815,"x_min":63,"x_max":750,"o":"m 568 0 l 586 0 q 596 11 596 0 l 596 300 l 739 300 q 750 311 750 300 l 750 326 q 739 338 750 338 l 596 338 l 596 992 q 594 1001 596 999 q 585 1004 592 1004 l 564 1004 q 553 1001 557 1004 q 549 996 550 997 l 67 338 q 63 322 63 333 l 63 311 q 72 300 63 300 l 557 300 l 557 11 q 568 0 557 0 m 557 338 l 108 338 l 557 946 l 557 338 "},"5":{"ha":793,"x_min":86,"x_max":706,"o":"m 407 -19 q 566 22 499 -19 q 669 132 633 63 q 706 285 706 201 q 633 494 706 413 q 417 576 560 576 l 167 576 l 201 949 l 663 949 q 674 960 674 949 l 674 975 q 663 986 674 986 l 186 986 q 170 982 175 986 q 164 964 165 978 l 125 556 q 127 542 124 546 q 139 539 131 539 l 415 539 q 601 467 538 539 q 665 285 665 396 q 634 150 665 211 q 544 53 603 89 q 407 18 485 18 q 125 208 185 18 q 117 217 124 217 q 111 215 113 217 l 93 208 q 87 203 88 206 q 88 194 86 200 q 201 35 124 89 q 407 -19 278 -19 "},"6":{"ha":840,"x_min":110,"x_max":746,"o":"m 428 -19 q 662 56 578 -19 q 746 269 746 132 q 671 486 746 415 q 439 557 596 557 q 266 538 342 557 q 150 499 190 518 l 150 667 q 220 892 149 815 q 428 968 292 968 q 598 924 533 968 q 696 788 663 879 q 704 779 699 779 l 710 779 l 726 785 q 733 793 733 789 q 732 799 733 797 q 622 953 696 901 q 428 1006 547 1006 q 190 919 271 1006 q 110 665 110 833 l 110 322 q 191 71 110 161 q 428 -19 272 -19 m 428 18 q 222 98 293 18 q 150 322 150 178 l 150 460 q 263 499 188 478 q 438 519 338 519 q 640 458 575 519 q 706 269 706 397 q 633 83 706 149 q 428 18 560 18 "},"7":{"ha":692,"x_min":65,"x_max":653,"o":"m 229 0 l 249 0 q 261 1 258 0 q 267 10 264 3 l 650 949 q 653 964 653 956 l 653 975 q 642 986 653 986 l 75 986 q 65 975 65 986 l 65 960 q 75 949 65 949 l 608 949 l 224 11 q 229 0 219 0 "},"8":{"ha":835,"x_min":97,"x_max":738,"o":"m 417 -19 q 660 49 583 -19 q 738 235 738 117 q 706 365 738 314 q 623 446 674 417 q 497 500 572 475 q 647 583 579 522 q 714 765 714 644 q 638 944 714 883 q 417 1006 563 1006 q 200 942 278 1006 q 122 763 122 879 q 181 601 122 657 q 343 510 239 546 q 175 419 253 485 q 97 224 97 353 q 174 44 97 108 q 417 -19 250 -19 m 442 515 l 429 521 q 285 574 335 551 q 199 641 235 596 q 164 763 164 686 q 231 916 164 863 q 417 969 297 969 q 608 917 543 969 q 674 763 674 864 q 442 515 674 569 m 417 17 q 138 226 138 17 q 226 418 138 361 q 396 492 314 475 l 425 482 q 574 428 521 453 q 662 358 628 404 q 696 233 696 311 q 628 74 696 132 q 417 17 561 17 "},"9":{"ha":840,"x_min":94,"x_max":731,"o":"m 413 -19 q 650 65 569 -19 q 731 317 731 149 l 731 664 q 649 915 731 825 q 413 1006 568 1006 q 179 929 264 1006 q 94 717 94 853 q 169 500 94 571 q 401 429 244 429 q 574 449 499 429 q 690 488 650 468 l 690 317 q 413 18 690 18 q 243 63 307 18 q 146 199 179 108 q 138 207 144 207 l 132 207 l 115 201 q 107 193 107 197 l 108 188 q 219 33 144 85 q 413 -19 293 -19 m 403 467 q 200 527 264 467 q 136 717 136 588 q 208 903 136 838 q 413 968 281 968 q 619 889 549 968 q 690 664 690 810 l 690 526 q 578 487 653 507 q 403 467 503 467 "}," ":{"ha":347,"x_min":0,"x_max":0,"o":""},"A":{"ha":864,"x_min":38,"x_max":822,"o":"m 50 0 l 65 0 q 85 10 81 0 l 210 344 l 653 344 l 778 10 q 797 0 782 0 l 813 0 q 822 6 822 0 l 821 11 l 457 983 q 440 993 453 993 l 422 993 q 407 982 411 993 l 42 11 q 50 0 38 0 m 640 381 l 222 381 l 422 915 q 429 950 428 936 l 432 950 q 440 915 432 947 l 640 381 "},"Á":{"ha":864,"x_min":38,"x_max":822,"o":"m 50 0 l 65 0 q 85 10 81 0 l 210 344 l 653 344 l 778 10 q 797 0 782 0 l 813 0 q 822 6 822 0 l 821 11 l 457 983 q 440 993 453 993 l 422 993 q 407 982 411 993 l 42 11 q 50 0 38 0 m 640 381 l 222 381 l 422 915 q 429 950 428 936 l 432 950 q 440 915 432 947 l 640 381 m 344 1060 l 542 1210 q 548 1215 547 1213 q 544 1224 549 1218 l 535 1233 q 515 1233 525 1240 l 325 1082 q 322 1067 315 1075 l 329 1060 q 344 1060 336 1053 "},"Ă":{"ha":864,"x_min":38,"x_max":822,"o":"m 50 0 l 65 0 q 85 10 81 0 l 210 344 l 653 344 l 778 10 q 797 0 782 0 l 813 0 q 822 6 822 0 l 821 11 l 457 983 q 440 993 453 993 l 422 993 q 407 982 411 993 l 42 11 q 50 0 38 0 m 640 381 l 222 381 l 422 915 q 429 950 428 936 l 432 950 q 440 915 432 947 l 640 381 m 431 1060 q 544 1098 503 1060 q 614 1218 586 1136 q 608 1229 617 1228 l 592 1233 q 582 1228 585 1233 q 524 1123 557 1154 q 431 1092 492 1092 q 337 1124 371 1092 q 281 1228 303 1157 q 268 1233 276 1235 l 254 1229 q 250 1218 246 1226 q 318 1098 276 1136 q 431 1060 360 1060 "},"Â":{"ha":864,"x_min":38,"x_max":822,"o":"m 50 0 l 65 0 q 85 10 81 0 l 210 344 l 653 344 l 778 10 q 797 0 782 0 l 813 0 q 822 6 822 0 l 821 11 l 457 983 q 440 993 453 993 l 422 993 q 407 982 411 993 l 42 11 q 50 0 38 0 m 640 381 l 222 381 l 422 915 q 429 950 428 936 l 432 950 q 440 915 432 947 l 640 381 m 246 1056 l 264 1056 q 281 1063 275 1056 l 432 1207 l 579 1063 q 588 1057 583 1058 q 597 1056 592 1056 l 615 1056 q 622 1064 631 1056 l 457 1225 q 445 1235 449 1233 q 433 1236 442 1236 l 431 1236 q 417 1233 422 1236 q 406 1225 413 1231 l 240 1064 q 237 1058 236 1061 q 246 1056 238 1056 "},"Ä":{"ha":864,"x_min":38,"x_max":822,"o":"m 50 0 l 65 0 q 85 10 81 0 l 210 344 l 653 344 l 778 10 q 797 0 782 0 l 813 0 q 822 6 822 0 l 821 11 l 457 983 q 440 993 453 993 l 422 993 q 407 982 411 993 l 42 11 q 50 0 38 0 m 640 381 l 222 381 l 422 915 q 429 950 428 936 l 432 950 q 440 915 432 947 l 640 381 m 308 1119 l 317 1119 q 335 1124 331 1119 q 339 1143 339 1129 l 339 1151 q 335 1169 339 1164 q 317 1174 331 1174 l 308 1174 q 290 1169 296 1174 q 285 1151 285 1164 l 285 1143 q 290 1124 285 1129 q 308 1119 296 1119 m 546 1119 l 554 1119 q 572 1124 567 1119 q 578 1143 578 1129 l 578 1151 q 572 1169 578 1164 q 554 1174 567 1174 l 546 1174 q 527 1169 532 1174 q 522 1151 522 1164 l 522 1143 q 527 1124 522 1129 q 546 1119 532 1119 "},"À":{"ha":864,"x_min":38,"x_max":822,"o":"m 50 0 l 65 0 q 85 10 81 0 l 210 344 l 653 344 l 778 10 q 797 0 782 0 l 813 0 q 822 6 822 0 l 821 11 l 457 983 q 440 993 453 993 l 422 993 q 407 982 411 993 l 42 11 q 50 0 38 0 m 640 381 l 222 381 l 422 915 q 429 950 428 936 l 432 950 q 440 915 432 947 l 640 381 m 319 1208 l 517 1058 q 532 1058 526 1050 l 539 1065 q 536 1081 546 1074 l 346 1232 q 336 1238 340 1238 q 326 1232 331 1238 l 317 1222 q 313 1214 313 1217 q 319 1208 314 1211 "},"Ā":{"ha":864,"x_min":38,"x_max":822,"o":"m 50 0 l 65 0 q 85 10 81 0 l 210 344 l 653 344 l 778 10 q 797 0 782 0 l 813 0 q 822 6 822 0 l 821 11 l 457 983 q 440 993 453 993 l 422 993 q 407 982 411 993 l 42 11 q 50 0 38 0 m 640 381 l 222 381 l 422 915 q 429 950 428 936 l 432 950 q 440 915 432 947 l 640 381 m 278 1126 l 586 1126 q 594 1128 592 1126 q 596 1136 596 1131 l 596 1146 q 586 1157 596 1157 l 278 1157 q 268 1146 268 1157 l 268 1136 q 270 1128 268 1131 q 278 1126 272 1126 "},"Ą":{"ha":864,"x_min":38,"x_max":840,"o":"m 735 -344 q 788 -333 764 -344 q 836 -296 813 -321 q 839 -285 840 -290 l 832 -268 q 825 -267 831 -262 q 743 -312 786 -312 q 682 -267 699 -312 q 678 -240 678 -254 q 715 -133 678 -196 q 819 1 753 -69 q 821 11 825 4 l 457 983 q 440 993 453 993 l 422 993 q 407 982 411 993 l 42 11 q 50 0 38 0 l 65 0 q 85 10 81 0 l 210 344 l 653 344 l 778 11 q 786 6 781 6 q 643 -249 643 -151 q 649 -282 643 -262 q 683 -329 660 -314 q 735 -344 706 -344 m 640 381 l 222 381 l 422 915 q 429 950 428 936 l 432 950 q 440 915 432 947 l 640 381 "},"Å":{"ha":864,"x_min":38,"x_max":822,"o":"m 50 0 l 65 0 q 85 10 81 0 l 210 344 l 653 344 l 778 10 q 797 0 782 0 l 813 0 q 822 6 822 0 l 821 11 l 461 968 q 527 1009 503 976 q 551 1090 551 1042 q 519 1183 551 1147 q 432 1218 486 1218 q 342 1183 376 1218 q 308 1090 308 1147 q 334 1009 308 1042 q 403 968 360 976 l 42 11 q 50 0 38 0 m 432 989 q 361 1017 388 989 q 335 1090 335 1044 q 361 1164 335 1136 q 432 1192 388 1192 q 499 1164 472 1192 q 525 1090 525 1136 q 499 1017 525 1044 q 432 989 472 989 m 640 381 l 222 381 l 422 915 q 429 950 428 936 l 432 950 q 440 915 432 947 l 640 381 "},"Ǻ":{"ha":864,"x_min":38,"x_max":822,"o":"m 347 1210 l 560 1314 q 565 1317 565 1315 q 561 1325 565 1319 l 556 1333 q 547 1339 550 1339 q 536 1336 543 1339 l 335 1231 q 330 1227 333 1229 q 326 1222 326 1225 q 329 1218 326 1221 l 335 1211 q 339 1208 336 1208 q 347 1210 342 1207 m 50 0 l 65 0 q 85 10 81 0 l 210 344 l 653 344 l 778 10 q 797 0 782 0 l 813 0 q 822 6 822 0 l 821 11 l 461 968 q 526 1003 503 975 q 550 1074 550 1031 q 517 1152 550 1121 q 432 1183 485 1183 q 344 1152 378 1183 q 310 1074 310 1121 q 335 1003 310 1031 q 403 968 360 975 l 42 11 q 50 0 38 0 m 432 986 q 363 1009 389 986 q 336 1074 336 1032 q 363 1134 336 1110 q 432 1158 390 1158 q 498 1134 472 1158 q 524 1074 524 1110 q 499 1009 524 1032 q 432 986 474 986 m 640 381 l 222 381 l 422 915 q 429 950 428 936 l 432 950 q 440 915 432 947 l 640 381 "},"Ã":{"ha":864,"x_min":38,"x_max":822,"o":"m 50 0 l 65 0 q 85 10 81 0 l 210 344 l 653 344 l 778 10 q 797 0 782 0 l 813 0 q 822 6 822 0 l 821 11 l 457 983 q 440 993 453 993 l 422 993 q 407 982 411 993 l 42 11 q 50 0 38 0 m 640 381 l 222 381 l 422 915 q 429 950 428 936 l 432 950 q 440 915 432 947 l 640 381 m 251 1078 l 265 1078 q 272 1086 272 1078 q 290 1156 272 1129 q 339 1183 308 1183 q 381 1171 363 1183 q 425 1133 400 1158 q 476 1091 456 1104 q 525 1078 496 1078 q 594 1112 569 1078 q 618 1203 618 1146 q 610 1211 618 1211 l 597 1211 q 590 1210 592 1211 q 589 1203 589 1208 q 572 1134 589 1161 q 524 1107 554 1107 q 482 1119 500 1107 q 439 1156 464 1131 q 391 1197 414 1182 q 336 1211 368 1211 q 269 1177 294 1211 q 243 1086 243 1143 q 251 1078 243 1078 "},"Æ":{"ha":1115,"x_min":15,"x_max":1033,"o":"m 28 0 l 47 0 q 59 2 56 0 q 65 10 63 4 l 213 271 l 583 271 l 583 11 q 585 2 583 4 q 593 0 588 0 l 1022 0 q 1033 11 1033 0 l 1033 26 q 1022 38 1033 38 l 624 38 l 624 481 l 947 481 q 956 483 954 481 q 958 490 958 485 l 958 507 q 947 518 958 518 l 624 518 l 624 949 l 1004 949 q 1015 960 1015 949 l 1015 975 q 1004 986 1015 986 l 588 986 q 578 983 582 986 q 572 975 575 981 l 19 11 q 28 0 15 0 m 583 307 l 235 307 l 583 925 l 583 307 "},"Ǽ":{"ha":1115,"x_min":15,"x_max":1033,"o":"m 28 0 l 47 0 q 59 2 56 0 q 65 10 63 4 l 213 271 l 583 271 l 583 11 q 585 2 583 4 q 593 0 588 0 l 1022 0 q 1033 11 1033 0 l 1033 26 q 1022 38 1033 38 l 624 38 l 624 481 l 947 481 q 956 483 954 481 q 958 490 958 485 l 958 507 q 947 518 958 518 l 624 518 l 624 949 l 1004 949 q 1015 960 1015 949 l 1015 975 q 1004 986 1015 986 l 588 986 q 578 983 582 986 q 572 975 575 981 l 19 11 q 28 0 15 0 m 583 307 l 235 307 l 583 925 l 583 307 m 707 1060 l 904 1210 q 910 1215 910 1213 q 907 1224 911 1218 l 897 1233 q 878 1233 888 1240 l 688 1082 q 685 1067 678 1075 l 692 1060 q 707 1060 699 1053 "},"B":{"ha":879,"x_min":142,"x_max":783,"o":"m 153 0 l 526 0 q 714 68 644 0 q 783 260 783 136 q 738 425 783 363 q 610 507 693 488 l 610 508 q 716 590 679 532 q 753 739 753 649 q 687 922 753 857 q 507 986 621 986 l 153 986 q 142 975 142 986 l 142 11 q 153 0 142 0 m 510 522 l 182 522 l 182 949 l 504 949 q 658 894 603 949 q 713 736 713 840 q 660 576 713 631 q 510 522 607 522 m 524 38 l 182 38 l 182 486 l 531 486 q 687 428 631 486 q 743 263 743 371 q 684 96 743 154 q 524 38 625 38 "},"C":{"ha":872,"x_min":111,"x_max":793,"o":"m 453 -19 q 678 42 601 -19 q 792 232 754 104 q 792 242 793 239 q 785 247 790 244 l 768 253 q 751 244 756 257 q 652 75 719 131 q 453 19 585 19 q 230 99 307 19 q 153 318 153 178 l 153 669 q 229 889 153 810 q 453 968 306 968 q 651 915 583 968 q 750 749 719 863 q 764 743 753 739 l 781 747 q 789 756 789 750 q 788 761 789 760 q 677 945 756 885 q 453 1006 599 1006 q 199 916 286 1006 q 111 668 111 826 l 111 319 q 201 71 111 161 q 453 -19 290 -19 "},"Ć":{"ha":872,"x_min":111,"x_max":793,"o":"m 453 -19 q 678 42 601 -19 q 792 232 754 104 q 792 242 793 239 q 785 247 790 244 l 768 253 q 751 244 756 257 q 652 75 719 131 q 453 19 585 19 q 230 99 307 19 q 153 318 153 178 l 153 669 q 229 889 153 810 q 453 968 306 968 q 651 915 583 968 q 750 749 719 863 q 764 743 753 739 l 781 747 q 789 756 789 750 q 788 761 789 760 q 677 945 756 885 q 453 1006 599 1006 q 199 916 286 1006 q 111 668 111 826 l 111 319 q 201 71 111 161 q 453 -19 290 -19 m 367 1060 l 564 1210 q 570 1215 569 1213 q 567 1224 571 1218 l 557 1233 q 538 1233 547 1240 l 347 1082 q 344 1067 338 1075 l 351 1060 q 367 1060 358 1053 "},"Č":{"ha":872,"x_min":111,"x_max":793,"o":"m 453 -19 q 678 42 601 -19 q 792 232 754 104 q 792 242 793 239 q 785 247 790 244 l 768 253 q 751 244 756 257 q 652 75 719 131 q 453 19 585 19 q 230 99 307 19 q 153 318 153 178 l 153 669 q 229 889 153 810 q 453 968 306 968 q 651 915 583 968 q 750 749 719 863 q 764 743 753 739 l 781 747 q 789 756 789 750 q 788 761 789 760 q 677 945 756 885 q 453 1006 599 1006 q 199 916 286 1006 q 111 668 111 826 l 111 319 q 201 71 111 161 q 453 -19 290 -19 m 453 1056 l 456 1056 q 467 1058 463 1056 q 478 1065 471 1060 l 644 1226 q 648 1232 649 1229 q 639 1235 647 1235 l 619 1235 q 603 1229 610 1235 l 453 1083 l 304 1229 q 296 1234 300 1233 q 286 1235 292 1235 l 269 1235 q 260 1232 261 1235 q 264 1226 260 1229 l 428 1065 q 440 1057 436 1058 q 453 1056 443 1056 "},"Ç":{"ha":872,"x_min":111,"x_max":793,"o":"m 460 -342 q 558 -310 522 -342 q 593 -215 593 -279 q 563 -142 593 -169 q 485 -114 532 -114 q 449 -121 463 -114 l 476 -19 q 683 48 611 -14 q 792 232 756 110 q 792 242 793 239 q 785 247 790 244 l 768 253 q 751 244 756 257 q 652 75 719 131 q 453 19 585 19 q 230 99 307 19 q 153 318 153 178 l 153 669 q 229 889 153 810 q 453 968 306 968 q 651 915 583 968 q 750 749 719 863 q 764 743 753 739 l 781 747 q 789 756 789 750 q 788 761 789 760 q 677 945 756 885 q 453 1006 599 1006 q 199 916 286 1006 q 111 668 111 826 l 111 319 q 199 72 111 161 q 447 -19 286 -18 l 414 -135 q 422 -149 411 -149 l 426 -149 q 471 -139 449 -139 q 534 -160 510 -139 q 558 -217 558 -181 q 456 -314 558 -314 q 401 -303 422 -314 q 361 -274 379 -292 q 356 -272 358 -271 q 354 -278 354 -274 l 354 -290 q 356 -302 354 -299 q 364 -308 358 -306 q 460 -342 408 -342 "},"Ĉ":{"ha":872,"x_min":111,"x_max":793,"o":"m 453 -19 q 678 42 601 -19 q 792 232 754 104 q 792 242 793 239 q 785 247 790 244 l 768 253 q 751 244 756 257 q 652 75 719 131 q 453 19 585 19 q 230 99 307 19 q 153 318 153 178 l 153 669 q 229 889 153 810 q 453 968 306 968 q 651 915 583 968 q 750 749 719 863 q 764 743 753 739 l 781 747 q 789 756 789 750 q 788 761 789 760 q 677 945 756 885 q 453 1006 599 1006 q 199 916 286 1006 q 111 668 111 826 l 111 319 q 201 71 111 161 q 453 -19 290 -19 m 268 1056 l 286 1056 q 303 1063 297 1056 l 454 1207 l 601 1063 q 610 1057 606 1058 q 619 1056 614 1056 l 638 1056 q 644 1064 653 1056 l 479 1225 q 467 1235 471 1233 q 456 1236 464 1236 l 453 1236 q 440 1233 444 1236 q 428 1225 435 1231 l 263 1064 q 259 1058 258 1061 q 268 1056 260 1056 "},"Ċ":{"ha":872,"x_min":111,"x_max":793,"o":"m 453 -19 q 678 42 601 -19 q 792 232 754 104 q 792 242 793 239 q 785 247 790 244 l 768 253 q 751 244 756 257 q 652 75 719 131 q 453 19 585 19 q 230 99 307 19 q 153 318 153 178 l 153 669 q 229 889 153 810 q 453 968 306 968 q 651 915 583 968 q 750 749 719 863 q 764 743 753 739 l 781 747 q 789 756 789 750 q 788 761 789 760 q 677 945 756 885 q 453 1006 599 1006 q 199 916 286 1006 q 111 668 111 826 l 111 319 q 201 71 111 161 q 453 -19 290 -19 m 450 1114 l 457 1114 q 476 1119 471 1114 q 481 1138 481 1124 l 481 1143 q 476 1163 481 1157 q 457 1168 471 1168 l 450 1168 q 431 1163 436 1168 q 426 1143 426 1157 l 426 1138 q 431 1119 426 1124 q 450 1114 436 1114 "},"D":{"ha":885,"x_min":142,"x_max":779,"o":"m 153 0 l 408 0 q 683 97 586 0 q 779 367 779 194 l 779 619 q 683 889 779 792 q 408 986 586 986 l 153 986 q 142 975 142 986 l 142 11 q 153 0 142 0 m 410 38 l 182 38 l 182 949 l 410 949 q 653 862 568 949 q 739 619 739 775 l 739 367 q 653 124 739 211 q 410 38 567 38 "},"Ð":{"ha":881,"x_min":25,"x_max":775,"o":"m 149 0 l 406 0 q 678 98 582 0 q 775 367 775 196 l 775 619 q 678 888 775 790 q 406 986 582 986 l 149 986 q 141 984 143 986 q 139 975 139 982 l 139 510 l 35 510 q 27 508 29 510 q 25 500 25 506 l 25 486 q 35 476 25 476 l 139 476 l 139 11 q 141 2 139 4 q 149 0 143 0 m 406 38 l 179 38 l 179 476 l 422 476 q 432 486 432 476 l 432 500 q 422 510 432 510 l 179 510 l 179 949 l 406 949 q 649 862 564 949 q 735 619 735 775 l 735 367 q 649 124 735 211 q 406 38 563 38 "},"Ď":{"ha":885,"x_min":142,"x_max":779,"o":"m 153 0 l 408 0 q 683 97 586 0 q 779 367 779 194 l 779 619 q 683 889 779 792 q 408 986 586 986 l 153 986 q 142 975 142 986 l 142 11 q 153 0 142 0 m 410 38 l 182 38 l 182 949 l 410 949 q 653 862 568 949 q 739 619 739 775 l 739 367 q 653 124 739 211 q 410 38 567 38 m 425 1056 l 428 1056 q 439 1058 435 1056 q 450 1065 443 1060 l 617 1226 q 620 1232 621 1229 q 611 1235 619 1235 l 592 1235 q 575 1229 582 1235 l 425 1083 l 276 1229 q 268 1234 272 1233 q 258 1235 264 1235 l 242 1235 q 233 1232 233 1235 q 236 1226 232 1229 l 400 1065 q 412 1057 408 1058 q 425 1056 415 1056 "},"Đ":{"ha":881,"x_min":25,"x_max":775,"o":"m 149 0 l 406 0 q 678 98 582 0 q 775 367 775 196 l 775 619 q 678 888 775 790 q 406 986 582 986 l 149 986 q 141 984 143 986 q 139 975 139 982 l 139 510 l 35 510 q 27 508 29 510 q 25 500 25 506 l 25 486 q 35 476 25 476 l 139 476 l 139 11 q 141 2 139 4 q 149 0 143 0 m 406 38 l 179 38 l 179 476 l 422 476 q 432 486 432 476 l 432 500 q 422 510 432 510 l 179 510 l 179 949 l 406 949 q 649 862 564 949 q 735 619 735 775 l 735 367 q 649 124 735 211 q 406 38 563 38 "},"E":{"ha":782,"x_min":142,"x_max":699,"o":"m 153 0 l 689 0 q 697 2 694 0 q 699 11 699 4 l 699 26 q 697 35 699 33 q 689 38 694 38 l 182 38 l 182 481 l 617 481 q 626 492 626 481 l 626 508 q 617 519 626 519 l 182 519 l 182 949 l 671 949 q 681 960 681 949 l 681 975 q 671 986 681 986 l 153 986 q 142 975 142 986 l 142 11 q 153 0 142 0 "},"É":{"ha":782,"x_min":142,"x_max":699,"o":"m 153 0 l 689 0 q 697 2 694 0 q 699 11 699 4 l 699 26 q 697 35 699 33 q 689 38 694 38 l 182 38 l 182 481 l 617 481 q 626 492 626 481 l 626 508 q 617 519 626 519 l 182 519 l 182 949 l 671 949 q 681 960 681 949 l 681 975 q 671 986 681 986 l 153 986 q 142 975 142 986 l 142 11 q 153 0 142 0 m 325 1060 l 522 1210 q 528 1215 528 1213 q 525 1224 529 1218 l 515 1233 q 496 1233 506 1240 l 306 1082 q 303 1067 296 1075 l 310 1060 q 325 1060 317 1053 "},"Ĕ":{"ha":782,"x_min":142,"x_max":699,"o":"m 153 0 l 689 0 q 697 2 694 0 q 699 11 699 4 l 699 26 q 697 35 699 33 q 689 38 694 38 l 182 38 l 182 481 l 617 481 q 626 492 626 481 l 626 508 q 617 519 626 519 l 182 519 l 182 949 l 671 949 q 681 960 681 949 l 681 975 q 671 986 681 986 l 153 986 q 142 975 142 986 l 142 11 q 153 0 142 0 m 413 1060 q 526 1098 485 1060 q 596 1218 568 1136 q 590 1229 599 1228 l 574 1233 q 564 1228 567 1233 q 506 1123 539 1154 q 413 1092 474 1092 q 319 1124 353 1092 q 263 1228 285 1157 q 250 1233 258 1235 l 236 1229 q 232 1218 228 1226 q 300 1098 258 1136 q 413 1060 342 1060 "},"Ě":{"ha":782,"x_min":142,"x_max":699,"o":"m 153 0 l 689 0 q 697 2 694 0 q 699 11 699 4 l 699 26 q 697 35 699 33 q 689 38 694 38 l 182 38 l 182 481 l 617 481 q 626 492 626 481 l 626 508 q 617 519 626 519 l 182 519 l 182 949 l 671 949 q 681 960 681 949 l 681 975 q 671 986 681 986 l 153 986 q 142 975 142 986 l 142 11 q 153 0 142 0 m 413 1056 l 415 1056 q 426 1058 422 1056 q 438 1065 431 1060 l 604 1226 q 608 1232 608 1229 q 599 1235 607 1235 l 579 1235 q 563 1229 569 1235 l 413 1083 l 264 1229 q 256 1234 260 1233 q 246 1235 251 1235 l 229 1235 q 220 1232 221 1235 q 224 1226 219 1229 l 388 1065 q 399 1057 396 1058 q 413 1056 403 1056 "},"Ê":{"ha":782,"x_min":142,"x_max":699,"o":"m 153 0 l 689 0 q 697 2 694 0 q 699 11 699 4 l 699 26 q 697 35 699 33 q 689 38 694 38 l 182 38 l 182 481 l 617 481 q 626 492 626 481 l 626 508 q 617 519 626 519 l 182 519 l 182 949 l 671 949 q 681 960 681 949 l 681 975 q 671 986 681 986 l 153 986 q 142 975 142 986 l 142 11 q 153 0 142 0 m 226 1056 l 244 1056 q 261 1063 256 1056 l 413 1207 l 560 1063 q 568 1057 564 1058 q 578 1056 572 1056 l 596 1056 q 603 1064 611 1056 l 438 1225 q 426 1235 429 1233 q 414 1236 422 1236 l 411 1236 q 398 1233 403 1236 q 386 1225 393 1231 l 221 1064 q 217 1058 217 1061 q 226 1056 218 1056 "},"Ë":{"ha":782,"x_min":142,"x_max":699,"o":"m 153 0 l 689 0 q 697 2 694 0 q 699 11 699 4 l 699 26 q 697 35 699 33 q 689 38 694 38 l 182 38 l 182 481 l 617 481 q 626 492 626 481 l 626 508 q 617 519 626 519 l 182 519 l 182 949 l 671 949 q 681 960 681 949 l 681 975 q 671 986 681 986 l 153 986 q 142 975 142 986 l 142 11 q 153 0 142 0 m 290 1119 l 299 1119 q 317 1124 313 1119 q 321 1143 321 1129 l 321 1151 q 317 1169 321 1164 q 299 1174 313 1174 l 290 1174 q 272 1169 278 1174 q 267 1151 267 1164 l 267 1143 q 272 1124 267 1129 q 290 1119 278 1119 m 528 1119 l 536 1119 q 554 1124 549 1119 q 560 1143 560 1129 l 560 1151 q 554 1169 560 1164 q 536 1174 549 1174 l 528 1174 q 509 1169 514 1174 q 504 1151 504 1164 l 504 1143 q 509 1124 504 1129 q 528 1119 514 1119 "},"Ė":{"ha":782,"x_min":142,"x_max":699,"o":"m 153 0 l 689 0 q 697 2 694 0 q 699 11 699 4 l 699 26 q 697 35 699 33 q 689 38 694 38 l 182 38 l 182 481 l 617 481 q 626 492 626 481 l 626 508 q 617 519 626 519 l 182 519 l 182 949 l 671 949 q 681 960 681 949 l 681 975 q 671 986 681 986 l 153 986 q 142 975 142 986 l 142 11 q 153 0 142 0 m 410 1114 l 417 1114 q 435 1119 431 1114 q 440 1138 440 1124 l 440 1143 q 435 1163 440 1157 q 417 1168 431 1168 l 410 1168 q 391 1163 396 1168 q 386 1143 386 1157 l 386 1138 q 391 1119 386 1124 q 410 1114 396 1114 "},"È":{"ha":782,"x_min":142,"x_max":699,"o":"m 153 0 l 689 0 q 697 2 694 0 q 699 11 699 4 l 699 26 q 697 35 699 33 q 689 38 694 38 l 182 38 l 182 481 l 617 481 q 626 492 626 481 l 626 508 q 617 519 626 519 l 182 519 l 182 949 l 671 949 q 681 960 681 949 l 681 975 q 671 986 681 986 l 153 986 q 142 975 142 986 l 142 11 q 153 0 142 0 m 300 1208 l 497 1058 q 513 1058 507 1050 l 519 1065 q 517 1081 526 1074 l 326 1232 q 317 1238 321 1238 q 307 1232 311 1238 l 297 1222 q 294 1214 293 1217 q 300 1208 294 1211 "},"Ē":{"ha":782,"x_min":142,"x_max":699,"o":"m 153 0 l 689 0 q 697 2 694 0 q 699 11 699 4 l 699 26 q 697 35 699 33 q 689 38 694 38 l 182 38 l 182 481 l 617 481 q 626 492 626 481 l 626 508 q 617 519 626 519 l 182 519 l 182 949 l 671 949 q 681 960 681 949 l 681 975 q 671 986 681 986 l 153 986 q 142 975 142 986 l 142 11 q 153 0 142 0 m 258 1126 l 567 1126 q 574 1128 572 1126 q 576 1136 576 1131 l 576 1146 q 567 1157 576 1157 l 258 1157 q 249 1146 249 1157 l 249 1136 q 251 1128 249 1131 q 258 1126 253 1126 "},"Ę":{"ha":782,"x_min":142,"x_max":714,"o":"m 610 -344 q 662 -333 638 -344 q 711 -296 686 -321 q 713 -290 713 -293 q 713 -285 714 -287 l 707 -268 q 699 -267 706 -262 q 617 -312 660 -312 q 557 -267 572 -312 q 553 -239 553 -254 q 591 -130 553 -193 q 696 1 629 -67 q 699 11 699 4 l 699 26 q 697 35 699 33 q 689 38 694 38 l 182 38 l 182 481 l 617 481 q 626 492 626 481 l 626 508 q 617 519 626 519 l 182 519 l 182 949 l 671 949 q 681 960 681 949 l 681 975 q 671 986 681 986 l 153 986 q 142 975 142 986 l 142 11 q 153 0 142 0 l 658 0 q 518 -247 518 -154 q 524 -282 518 -267 q 610 -344 544 -344 "},"F":{"ha":753,"x_min":142,"x_max":678,"o":"m 153 0 l 174 0 q 183 11 183 0 l 183 467 l 606 467 q 617 476 617 467 l 617 493 q 606 504 617 504 l 183 504 l 183 949 l 667 949 q 678 960 678 949 l 678 975 q 667 986 678 986 l 153 986 q 142 975 142 986 l 142 11 q 153 0 142 0 "},"G":{"ha":894,"x_min":111,"x_max":794,"o":"m 454 -19 q 706 70 618 -19 q 794 317 794 160 l 794 475 q 792 485 794 482 q 783 488 790 488 l 465 488 q 454 476 454 488 l 454 461 q 465 450 454 450 l 756 450 l 756 317 q 678 97 756 176 q 454 18 600 18 q 230 98 307 18 q 153 322 153 178 l 153 669 q 228 890 153 811 q 453 968 304 968 q 651 915 582 968 q 750 749 719 863 q 757 740 753 740 l 764 742 l 781 747 q 788 756 788 749 l 788 761 q 677 945 756 885 q 453 1006 599 1006 q 199 916 286 1006 q 111 668 111 826 l 111 321 q 200 71 111 161 q 454 -19 289 -19 "},"Ğ":{"ha":894,"x_min":111,"x_max":794,"o":"m 454 -19 q 706 70 618 -19 q 794 317 794 160 l 794 475 q 792 485 794 482 q 783 488 790 488 l 465 488 q 454 476 454 488 l 454 461 q 465 450 454 450 l 756 450 l 756 317 q 678 97 756 176 q 454 18 600 18 q 230 98 307 18 q 153 322 153 178 l 153 669 q 228 890 153 811 q 453 968 304 968 q 651 915 582 968 q 750 749 719 863 q 757 740 753 740 l 764 742 l 781 747 q 788 756 788 749 l 788 761 q 677 945 756 885 q 453 1006 599 1006 q 199 916 286 1006 q 111 668 111 826 l 111 321 q 200 71 111 161 q 454 -19 289 -19 m 453 1074 q 567 1112 525 1074 q 636 1232 608 1150 q 631 1243 639 1242 l 614 1247 q 604 1242 607 1247 q 547 1137 579 1168 q 453 1106 514 1106 q 359 1138 393 1106 q 303 1242 325 1171 q 290 1247 299 1249 l 276 1243 q 272 1232 268 1240 q 340 1112 299 1150 q 453 1074 382 1074 "},"Ĝ":{"ha":894,"x_min":111,"x_max":794,"o":"m 454 -19 q 706 70 618 -19 q 794 317 794 160 l 794 475 q 792 485 794 482 q 783 488 790 488 l 465 488 q 454 476 454 488 l 454 461 q 465 450 454 450 l 756 450 l 756 317 q 678 97 756 176 q 454 18 600 18 q 230 98 307 18 q 153 322 153 178 l 153 669 q 228 890 153 811 q 453 968 304 968 q 651 915 582 968 q 750 749 719 863 q 757 740 753 740 l 764 742 l 781 747 q 788 756 788 749 l 788 761 q 677 945 756 885 q 453 1006 599 1006 q 199 916 286 1006 q 111 668 111 826 l 111 321 q 200 71 111 161 q 454 -19 289 -19 m 268 1069 l 286 1069 q 303 1076 297 1069 l 454 1221 l 601 1076 q 610 1071 606 1072 q 619 1069 614 1069 l 638 1069 q 644 1078 653 1069 l 479 1239 q 467 1249 471 1247 q 456 1250 464 1250 l 453 1250 q 440 1247 444 1250 q 428 1239 435 1244 l 263 1078 q 259 1072 258 1075 q 268 1069 260 1069 "},"Ģ":{"ha":894,"x_min":111,"x_max":794,"o":"m 454 -19 q 706 70 618 -19 q 794 317 794 160 l 794 475 q 792 485 794 482 q 783 488 790 488 l 465 488 q 454 476 454 488 l 454 461 q 465 450 454 450 l 756 450 l 756 317 q 678 97 756 176 q 454 18 600 18 q 230 98 307 18 q 153 322 153 178 l 153 669 q 228 890 153 811 q 453 968 304 968 q 651 915 582 968 q 750 749 719 863 q 757 740 753 740 l 764 742 l 781 747 q 788 756 788 749 l 788 761 q 677 945 756 885 q 453 1006 599 1006 q 199 916 286 1006 q 111 668 111 826 l 111 321 q 200 71 111 161 q 454 -19 289 -19 m 392 -337 l 403 -337 q 411 -335 408 -337 q 417 -326 414 -333 l 482 -125 q 472 -114 486 -114 l 457 -114 q 447 -116 450 -114 q 443 -125 444 -118 l 383 -328 q 392 -337 379 -337 "},"Ġ":{"ha":894,"x_min":111,"x_max":794,"o":"m 454 -19 q 706 70 618 -19 q 794 317 794 160 l 794 475 q 792 485 794 482 q 783 488 790 488 l 465 488 q 454 476 454 488 l 454 461 q 465 450 454 450 l 756 450 l 756 317 q 678 97 756 176 q 454 18 600 18 q 230 98 307 18 q 153 322 153 178 l 153 669 q 228 890 153 811 q 453 968 304 968 q 651 915 582 968 q 750 749 719 863 q 757 740 753 740 l 764 742 l 781 747 q 788 756 788 749 l 788 761 q 677 945 756 885 q 453 1006 599 1006 q 199 916 286 1006 q 111 668 111 826 l 111 321 q 200 71 111 161 q 454 -19 289 -19 m 450 1128 l 457 1128 q 476 1133 471 1128 q 481 1151 481 1138 l 481 1157 q 476 1176 481 1171 q 457 1182 471 1182 l 450 1182 q 431 1176 436 1182 q 426 1157 426 1171 l 426 1151 q 431 1133 426 1138 q 450 1128 436 1128 "},"H":{"ha":933,"x_min":142,"x_max":792,"o":"m 153 0 l 172 0 q 182 11 182 0 l 182 481 l 751 481 l 751 11 q 761 0 751 0 l 782 0 q 792 11 792 0 l 792 975 q 782 986 792 986 l 761 986 q 751 975 751 986 l 751 519 l 182 519 l 182 975 q 172 986 182 986 l 153 986 q 142 975 142 986 l 142 11 q 153 0 142 0 "},"Ħ":{"ha":938,"x_min":38,"x_max":903,"o":"m 154 0 l 174 0 q 185 11 185 0 l 185 481 l 753 481 l 753 11 q 764 0 753 0 l 783 0 q 791 2 789 0 q 793 11 793 4 l 793 774 l 893 774 q 901 776 899 774 q 903 785 903 778 l 903 793 q 901 801 903 799 q 893 803 899 803 l 793 803 l 793 975 q 791 984 793 982 q 783 986 789 986 l 764 986 q 753 975 753 986 l 753 803 l 185 803 l 185 975 q 174 986 185 986 l 154 986 q 144 975 144 986 l 144 803 l 47 803 q 40 801 42 803 q 38 793 38 799 l 38 785 q 39 776 38 778 q 47 774 40 774 l 144 774 l 144 11 q 154 0 144 0 m 753 519 l 185 519 l 185 774 l 753 774 l 753 519 "},"Ĥ":{"ha":933,"x_min":142,"x_max":792,"o":"m 153 0 l 172 0 q 182 11 182 0 l 182 481 l 751 481 l 751 11 q 761 0 751 0 l 782 0 q 792 11 792 0 l 792 975 q 782 986 792 986 l 761 986 q 751 975 751 986 l 751 519 l 182 519 l 182 975 q 172 986 182 986 l 153 986 q 142 975 142 986 l 142 11 q 153 0 142 0 m 281 1056 l 299 1056 q 315 1063 310 1056 l 467 1207 l 614 1063 q 622 1057 618 1058 q 632 1056 626 1056 l 650 1056 q 657 1064 665 1056 l 492 1225 q 480 1235 483 1233 q 468 1236 476 1236 l 465 1236 q 452 1233 457 1236 q 440 1225 447 1231 l 275 1064 q 272 1058 271 1061 q 281 1056 272 1056 "},"I":{"ha":325,"x_min":142,"x_max":182,"o":"m 151 0 l 172 0 q 182 10 182 0 l 182 976 q 180 984 182 982 q 172 986 178 986 l 151 986 q 142 976 142 986 l 142 10 q 151 0 142 0 "},"Ĳ":{"ha":1056,"x_min":142,"x_max":921,"o":"m 151 0 l 172 0 q 182 10 182 0 l 182 976 q 180 984 182 982 q 172 986 178 986 l 151 986 q 142 976 142 986 l 142 10 q 151 0 142 0 m 626 -19 q 844 65 767 -19 q 921 297 921 150 l 921 975 q 910 986 921 986 l 890 986 q 879 975 879 986 l 879 297 q 814 93 879 167 q 626 19 749 19 q 453 83 514 19 q 372 274 392 147 q 363 285 369 285 q 358 283 360 285 l 342 279 q 335 269 335 278 l 335 264 q 626 -19 379 -19 "},"Í":{"ha":325,"x_min":44,"x_max":278,"o":"m 151 0 l 172 0 q 182 10 182 0 l 182 976 q 180 984 182 982 q 172 986 178 986 l 151 986 q 142 976 142 986 l 142 10 q 151 0 142 0 m 74 1060 l 271 1210 q 277 1215 276 1213 q 274 1224 278 1218 l 264 1233 q 244 1233 254 1240 l 54 1082 q 51 1067 44 1075 l 58 1060 q 74 1060 65 1053 "},"Ĭ":{"ha":325,"x_min":-24,"x_max":347,"o":"m 151 0 l 172 0 q 182 10 182 0 l 182 976 q 180 984 182 982 q 172 986 178 986 l 151 986 q 142 976 142 986 l 142 10 q 151 0 142 0 m 161 1060 q 275 1098 233 1060 q 344 1218 317 1136 q 339 1229 347 1228 l 322 1233 q 313 1228 315 1233 q 255 1123 288 1154 q 161 1092 222 1092 q 67 1124 101 1092 q 11 1228 33 1157 q -1 1233 7 1235 l -15 1229 q -19 1218 -24 1226 q 49 1098 7 1136 q 161 1060 90 1060 "},"Î":{"ha":325,"x_min":-33,"x_max":361,"o":"m 151 0 l 172 0 q 182 10 182 0 l 182 976 q 180 984 182 982 q 172 986 178 986 l 151 986 q 142 976 142 986 l 142 10 q 151 0 142 0 m -24 1056 l -6 1056 q 11 1063 6 1056 l 163 1207 l 310 1063 q 318 1057 314 1058 q 328 1056 322 1056 l 346 1056 q 353 1064 361 1056 l 188 1225 q 176 1235 179 1233 q 164 1236 172 1236 l 161 1236 q 148 1233 153 1236 q 136 1225 143 1231 l -29 1064 q -33 1058 -33 1061 q -24 1056 -32 1056 "},"Ï":{"ha":325,"x_min":15,"x_max":308,"o":"m 151 0 l 172 0 q 182 10 182 0 l 182 976 q 180 984 182 982 q 172 986 178 986 l 151 986 q 142 976 142 986 l 142 10 q 151 0 142 0 m 39 1119 l 47 1119 q 65 1124 61 1119 q 69 1143 69 1129 l 69 1151 q 65 1169 69 1164 q 47 1174 61 1174 l 39 1174 q 21 1169 26 1174 q 15 1151 15 1164 l 15 1143 q 21 1124 15 1129 q 39 1119 26 1119 m 276 1119 l 285 1119 q 303 1124 297 1119 q 308 1143 308 1129 l 308 1151 q 303 1169 308 1164 q 285 1174 297 1174 l 276 1174 q 258 1169 263 1174 q 253 1151 253 1164 l 253 1143 q 258 1124 253 1129 q 276 1119 263 1119 "},"İ":{"ha":325,"x_min":135,"x_max":189,"o":"m 151 0 l 172 0 q 182 10 182 0 l 182 976 q 180 984 182 982 q 172 986 178 986 l 151 986 q 142 976 142 986 l 142 10 q 151 0 142 0 m 158 1114 l 165 1114 q 184 1119 179 1114 q 189 1138 189 1124 l 189 1143 q 184 1163 189 1157 q 165 1168 179 1168 l 158 1168 q 140 1163 144 1168 q 135 1143 135 1157 l 135 1138 q 140 1119 135 1124 q 158 1114 144 1114 "},"Ì":{"ha":325,"x_min":42,"x_max":275,"o":"m 151 0 l 172 0 q 182 10 182 0 l 182 976 q 180 984 182 982 q 172 986 178 986 l 151 986 q 142 976 142 986 l 142 10 q 151 0 142 0 m 49 1208 l 246 1058 q 261 1058 256 1050 l 268 1065 q 265 1081 275 1074 l 75 1232 q 65 1238 69 1238 q 56 1232 60 1238 l 46 1222 q 42 1214 42 1217 q 49 1208 43 1211 "},"Ī":{"ha":325,"x_min":-3,"x_max":325,"o":"m 151 0 l 172 0 q 182 10 182 0 l 182 976 q 180 984 182 982 q 172 986 178 986 l 151 986 q 142 976 142 986 l 142 10 q 151 0 142 0 m 7 1126 l 315 1126 q 323 1128 321 1126 q 325 1136 325 1131 l 325 1146 q 315 1157 325 1157 l 7 1157 q -3 1146 -3 1157 l -3 1136 q -1 1128 -3 1131 q 7 1126 1 1126 "},"Į":{"ha":325,"x_min":51,"x_max":278,"o":"m 154 -344 q 274 -294 221 -344 q 276 -283 278 -289 l 271 -268 q 263 -267 269 -262 q 217 -299 243 -287 q 165 -311 192 -311 q 122 -300 142 -311 q 94 -265 103 -289 q 86 -219 86 -244 q 179 1 86 -133 q 182 11 182 4 l 182 975 q 172 986 182 986 l 153 986 q 142 975 142 986 l 142 14 q 150 4 142 4 q 51 -228 51 -137 q 61 -282 51 -253 q 97 -329 72 -314 q 154 -344 122 -344 "},"Ĩ":{"ha":325,"x_min":-28,"x_max":347,"o":"m 151 0 l 172 0 q 182 10 182 0 l 182 976 q 180 984 182 982 q 172 986 178 986 l 151 986 q 142 976 142 986 l 142 10 q 151 0 142 0 m -19 1078 l -6 1078 q 1 1086 1 1078 q 19 1156 1 1129 q 68 1183 38 1183 q 110 1171 92 1183 q 154 1133 129 1158 q 205 1091 185 1104 q 254 1078 225 1078 q 323 1112 299 1078 q 347 1203 347 1146 q 339 1211 347 1211 l 326 1211 q 319 1210 321 1211 q 318 1203 318 1208 q 301 1134 318 1161 q 253 1107 283 1107 q 211 1119 229 1107 q 168 1156 193 1131 q 120 1197 143 1182 q 65 1211 97 1211 q -2 1177 24 1211 q -28 1086 -28 1143 q -19 1078 -28 1078 "},"J":{"ha":778,"x_min":57,"x_max":643,"o":"m 349 -19 q 566 65 489 -19 q 643 297 643 150 l 643 975 q 632 986 643 986 l 613 986 q 601 975 601 986 l 601 297 q 536 93 601 167 q 349 19 471 19 q 175 83 236 19 q 94 274 114 147 q 85 285 92 285 q 81 283 82 285 l 64 279 q 57 269 57 278 l 57 264 q 349 -19 101 -19 "},"Ĵ":{"ha":778,"x_min":57,"x_max":821,"o":"m 349 -19 q 566 65 489 -19 q 643 297 643 150 l 643 975 q 632 986 643 986 l 613 986 q 601 975 601 986 l 601 297 q 536 93 601 167 q 349 19 471 19 q 175 83 236 19 q 94 274 114 147 q 85 285 92 285 q 81 283 82 285 l 64 279 q 57 269 57 278 l 57 264 q 349 -19 101 -19 m 436 1056 l 454 1056 q 471 1063 465 1056 l 622 1207 l 769 1063 q 778 1057 774 1058 q 788 1056 782 1056 l 806 1056 q 813 1064 821 1056 l 647 1225 q 635 1235 639 1233 q 624 1236 632 1236 l 621 1236 q 608 1233 613 1236 q 596 1225 603 1231 l 431 1064 q 427 1058 426 1061 q 436 1056 428 1056 "},"K":{"ha":818,"x_min":142,"x_max":767,"o":"m 153 0 l 172 0 q 182 11 182 0 l 182 482 l 367 482 q 491 449 446 482 q 568 343 536 417 l 721 10 q 726 1 724 3 q 739 0 729 0 l 757 0 q 765 3 763 0 q 764 13 767 7 l 604 360 q 536 463 574 426 q 440 511 499 499 l 751 974 q 744 986 758 986 l 725 986 q 712 985 715 986 q 704 976 708 983 l 400 518 l 365 518 l 182 518 l 182 975 q 172 986 182 986 l 153 986 q 142 975 142 986 l 142 11 q 153 0 142 0 "},"Ķ":{"ha":818,"x_min":142,"x_max":767,"o":"m 153 0 l 172 0 q 182 11 182 0 l 182 482 l 367 482 q 491 449 446 482 q 568 343 536 417 l 721 10 q 726 1 724 3 q 739 0 729 0 l 757 0 q 765 3 763 0 q 764 13 767 7 l 604 360 q 536 463 574 426 q 440 511 499 499 l 751 974 q 744 986 758 986 l 725 986 q 712 985 715 986 q 704 976 708 983 l 400 518 l 365 518 l 182 518 l 182 975 q 172 986 182 986 l 153 986 q 142 975 142 986 l 142 11 q 153 0 142 0 m 386 -337 l 397 -337 q 406 -335 403 -337 q 411 -326 408 -333 l 476 -125 q 467 -114 481 -114 l 451 -114 q 442 -116 444 -114 q 438 -125 439 -118 l 378 -328 q 386 -337 374 -337 "},"L":{"ha":710,"x_min":142,"x_max":667,"o":"m 153 0 l 656 0 q 667 11 667 0 l 667 26 q 656 38 667 38 l 182 38 l 182 975 q 172 986 182 986 l 153 986 q 142 975 142 986 l 142 11 q 153 0 142 0 "},"Ĺ":{"ha":710,"x_min":46,"x_max":667,"o":"m 153 0 l 656 0 q 667 11 667 0 l 667 26 q 656 38 667 38 l 182 38 l 182 975 q 172 986 182 986 l 153 986 q 142 975 142 986 l 142 11 q 153 0 142 0 m 75 1060 l 272 1210 q 278 1215 278 1213 q 275 1224 279 1218 l 265 1233 q 246 1233 256 1240 l 56 1082 q 53 1067 46 1075 l 60 1060 q 75 1060 67 1053 "},"Ľ":{"ha":710,"x_min":140,"x_max":665,"o":"m 151 0 l 654 0 q 665 11 665 0 l 665 26 q 654 38 665 38 l 181 38 l 181 975 q 178 984 181 982 q 171 986 176 986 l 151 986 q 140 975 140 986 l 140 11 q 151 0 140 0 m 492 706 l 501 706 q 510 707 508 706 q 515 715 513 708 l 583 975 q 574 986 588 986 l 557 986 q 548 984 550 986 q 544 975 546 982 l 483 715 q 483 708 482 710 q 492 706 485 706 "},"Ļ":{"ha":710,"x_min":142,"x_max":667,"o":"m 153 0 l 656 0 q 667 11 667 0 l 667 26 q 656 38 667 38 l 182 38 l 182 975 q 172 986 182 986 l 153 986 q 142 975 142 986 l 142 11 q 153 0 142 0 m 340 -337 l 351 -337 q 360 -335 357 -337 q 365 -326 363 -333 l 431 -125 q 421 -114 435 -114 l 406 -114 q 396 -116 399 -114 q 392 -125 393 -118 l 332 -328 q 340 -337 328 -337 "},"Ŀ":{"ha":710,"x_min":142,"x_max":667,"o":"m 153 0 l 656 0 q 667 11 667 0 l 667 26 q 656 38 667 38 l 182 38 l 182 975 q 172 986 182 986 l 153 986 q 142 975 142 986 l 142 11 q 153 0 142 0 m 465 450 l 471 450 q 494 456 488 450 q 501 479 501 463 l 501 486 q 494 509 501 503 q 471 515 488 515 l 465 515 q 442 509 449 515 q 436 486 436 503 l 436 479 q 442 456 436 461 q 465 450 449 450 "},"Ł":{"ha":740,"x_min":17,"x_max":697,"o":"m 174 0 l 686 0 q 697 11 697 0 l 697 26 q 686 38 697 38 l 203 38 l 203 444 l 539 624 q 545 629 544 626 q 543 636 546 632 l 536 650 q 524 653 535 658 l 203 482 l 203 975 q 192 986 203 986 l 174 986 q 163 975 163 986 l 163 464 l 24 390 q 21 378 17 386 l 28 364 q 33 358 31 358 q 40 360 36 357 l 163 425 l 163 11 q 174 0 163 0 "},"M":{"ha":1093,"x_min":142,"x_max":951,"o":"m 153 0 l 171 0 q 178 2 176 0 q 181 11 181 4 l 181 694 q 178 918 181 842 l 181 918 q 271 738 247 781 l 526 250 q 533 241 529 243 q 542 239 536 239 l 556 239 q 569 250 564 239 l 819 732 q 896 882 847 782 q 914 917 900 888 l 917 917 q 911 694 911 815 l 911 11 q 922 0 911 0 l 940 0 q 951 11 951 0 l 951 975 q 940 986 951 986 l 922 986 q 912 983 915 986 q 906 974 908 981 l 549 286 l 188 975 q 169 986 182 986 l 153 986 q 142 975 142 986 l 142 11 q 153 0 142 0 "},"N":{"ha":946,"x_min":142,"x_max":804,"o":"m 153 0 l 169 0 q 179 2 176 0 q 182 11 182 4 l 182 706 l 181 822 q 179 924 179 857 l 181 924 l 226 847 q 282 754 256 796 l 760 8 q 774 0 765 0 l 794 0 q 804 11 804 0 l 804 975 q 794 986 804 986 l 776 986 q 765 976 765 986 l 765 307 q 769 92 765 199 l 769 61 l 768 61 q 725 132 749 89 l 650 254 l 186 979 q 174 986 183 986 l 153 986 q 142 975 142 986 l 142 11 q 153 0 142 0 "},"Ń":{"ha":946,"x_min":142,"x_max":804,"o":"m 153 0 l 169 0 q 179 2 176 0 q 182 11 182 4 l 182 706 l 181 822 q 179 924 179 857 l 181 924 l 226 847 q 282 754 256 796 l 760 8 q 774 0 765 0 l 794 0 q 804 11 804 0 l 804 975 q 794 986 804 986 l 776 986 q 765 976 765 986 l 765 307 q 769 92 765 199 l 769 61 l 768 61 q 725 132 749 89 l 650 254 l 186 979 q 174 986 183 986 l 153 986 q 142 975 142 986 l 142 11 q 153 0 142 0 m 386 1060 l 583 1210 q 590 1215 589 1213 q 586 1224 590 1218 l 576 1233 q 557 1233 567 1240 l 367 1082 q 364 1067 357 1075 l 371 1060 q 386 1060 378 1053 "},"Ň":{"ha":946,"x_min":142,"x_max":804,"o":"m 153 0 l 169 0 q 179 2 176 0 q 182 11 182 4 l 182 706 l 181 822 q 179 924 179 857 l 181 924 l 226 847 q 282 754 256 796 l 760 8 q 774 0 765 0 l 794 0 q 804 11 804 0 l 804 975 q 794 986 804 986 l 776 986 q 765 976 765 986 l 765 307 q 769 92 765 199 l 769 61 l 768 61 q 725 132 749 89 l 650 254 l 186 979 q 174 986 183 986 l 153 986 q 142 975 142 986 l 142 11 q 153 0 142 0 m 474 1056 l 476 1056 q 488 1058 483 1056 q 499 1065 492 1060 l 665 1226 q 669 1232 669 1229 q 660 1235 668 1235 l 640 1235 q 624 1229 631 1235 l 474 1083 l 325 1229 q 317 1234 321 1233 q 307 1235 313 1235 l 290 1235 q 281 1232 282 1235 q 285 1226 281 1229 l 449 1065 q 460 1057 457 1058 q 474 1056 464 1056 "},"Ņ":{"ha":946,"x_min":142,"x_max":804,"o":"m 153 0 l 169 0 q 179 2 176 0 q 182 11 182 4 l 182 706 l 181 822 q 179 924 179 857 l 181 924 l 226 847 q 282 754 256 796 l 760 8 q 774 0 765 0 l 794 0 q 804 11 804 0 l 804 975 q 794 986 804 986 l 776 986 q 765 976 765 986 l 765 307 q 769 92 765 199 l 769 61 l 768 61 q 725 132 749 89 l 650 254 l 186 979 q 174 986 183 986 l 153 986 q 142 975 142 986 l 142 11 q 153 0 142 0 m 410 -337 l 421 -337 q 429 -335 426 -337 q 435 -326 432 -333 l 500 -125 q 490 -114 504 -114 l 475 -114 q 465 -116 468 -114 q 461 -125 463 -118 l 401 -328 q 410 -337 397 -337 "},"Ŋ":{"ha":946,"x_min":142,"x_max":804,"o":"m 544 -319 q 745 -249 686 -319 q 804 -33 804 -179 l 804 975 q 794 986 804 986 l 776 986 q 765 976 765 986 l 765 307 q 769 92 765 199 l 769 61 l 768 61 q 725 132 749 89 l 650 254 l 186 979 q 174 986 183 986 l 153 986 q 142 975 142 986 l 142 11 q 153 0 142 0 l 169 0 q 179 2 176 0 q 182 11 182 4 l 182 706 l 181 822 q 179 924 179 857 l 181 924 q 225 849 211 874 q 250 806 236 831 q 282 754 264 782 l 764 1 l 764 -28 q 715 -221 764 -158 q 544 -283 665 -283 q 535 -285 538 -283 q 533 -294 533 -287 l 533 -308 q 544 -319 533 -319 "},"Ñ":{"ha":946,"x_min":142,"x_max":804,"o":"m 153 0 l 169 0 q 179 2 176 0 q 182 11 182 4 l 182 706 l 181 822 q 179 924 179 857 l 181 924 l 226 847 q 282 754 256 796 l 760 8 q 774 0 765 0 l 794 0 q 804 11 804 0 l 804 975 q 794 986 804 986 l 776 986 q 765 976 765 986 l 765 307 q 769 92 765 199 l 769 61 l 768 61 q 725 132 749 89 l 650 254 l 186 979 q 174 986 183 986 l 153 986 q 142 975 142 986 l 142 11 q 153 0 142 0 m 293 1078 l 307 1078 q 314 1086 314 1078 q 332 1156 314 1129 q 381 1183 350 1183 q 423 1171 404 1183 q 467 1133 442 1158 q 517 1091 497 1104 q 567 1078 538 1078 q 635 1112 611 1078 q 660 1203 660 1146 q 651 1211 660 1211 l 639 1211 q 632 1210 633 1211 q 631 1203 631 1208 q 613 1134 631 1161 q 565 1107 596 1107 q 524 1119 542 1107 q 481 1156 506 1131 q 433 1197 456 1182 q 378 1211 410 1211 q 310 1177 336 1211 q 285 1086 285 1143 q 293 1078 285 1078 "},"O":{"ha":907,"x_min":111,"x_max":794,"o":"m 454 -19 q 706 70 618 -19 q 794 319 794 160 l 794 667 q 706 916 794 826 q 454 1006 618 1006 q 200 916 289 1006 q 111 667 111 826 l 111 319 q 200 70 111 160 q 454 -19 289 -19 m 454 18 q 231 98 308 18 q 153 321 153 178 l 153 665 q 231 888 153 808 q 454 968 308 968 q 676 888 599 968 q 754 665 754 808 l 754 321 q 677 98 756 178 q 454 18 599 18 "},"Ó":{"ha":907,"x_min":111,"x_max":794,"o":"m 454 -19 q 706 70 618 -19 q 794 319 794 160 l 794 667 q 706 916 794 826 q 454 1006 618 1006 q 200 916 289 1006 q 111 667 111 826 l 111 319 q 200 70 111 160 q 454 -19 289 -19 m 454 18 q 231 98 308 18 q 153 321 153 178 l 153 665 q 231 888 153 808 q 454 968 308 968 q 676 888 599 968 q 754 665 754 808 l 754 321 q 677 98 756 178 q 454 18 599 18 m 367 1074 l 564 1224 q 570 1229 569 1226 q 567 1238 571 1232 l 557 1247 q 538 1247 547 1254 l 347 1096 q 344 1081 338 1089 l 351 1074 q 367 1074 358 1067 "},"Ŏ":{"ha":907,"x_min":111,"x_max":794,"o":"m 454 -19 q 706 70 618 -19 q 794 319 794 160 l 794 667 q 706 916 794 826 q 454 1006 618 1006 q 200 916 289 1006 q 111 667 111 826 l 111 319 q 200 70 111 160 q 454 -19 289 -19 m 454 18 q 231 98 308 18 q 153 321 153 178 l 153 665 q 231 888 153 808 q 454 968 308 968 q 676 888 599 968 q 754 665 754 808 l 754 321 q 677 98 756 178 q 454 18 599 18 m 454 1074 q 568 1112 526 1074 q 638 1232 610 1150 q 632 1243 640 1242 l 615 1247 q 606 1242 608 1247 q 548 1137 581 1168 q 454 1106 515 1106 q 360 1138 394 1106 q 304 1242 326 1171 q 292 1247 300 1249 l 278 1243 q 274 1232 269 1240 q 342 1112 300 1150 q 454 1074 383 1074 "},"Ô":{"ha":907,"x_min":111,"x_max":794,"o":"m 454 -19 q 706 70 618 -19 q 794 319 794 160 l 794 667 q 706 916 794 826 q 454 1006 618 1006 q 200 916 289 1006 q 111 667 111 826 l 111 319 q 200 70 111 160 q 454 -19 289 -19 m 454 18 q 231 98 308 18 q 153 321 153 178 l 153 665 q 231 888 153 808 q 454 968 308 968 q 676 888 599 968 q 754 665 754 808 l 754 321 q 677 98 756 178 q 454 18 599 18 m 268 1069 l 286 1069 q 303 1076 297 1069 l 454 1221 l 601 1076 q 610 1071 606 1072 q 619 1069 614 1069 l 638 1069 q 644 1078 653 1069 l 479 1239 q 467 1249 471 1247 q 456 1250 464 1250 l 453 1250 q 440 1247 444 1250 q 428 1239 435 1244 l 263 1078 q 259 1072 258 1075 q 268 1069 260 1069 "},"Ö":{"ha":907,"x_min":111,"x_max":794,"o":"m 454 -19 q 706 70 618 -19 q 794 319 794 160 l 794 667 q 706 916 794 826 q 454 1006 618 1006 q 200 916 289 1006 q 111 667 111 826 l 111 319 q 200 70 111 160 q 454 -19 289 -19 m 454 18 q 231 98 308 18 q 153 321 153 178 l 153 665 q 231 888 153 808 q 454 968 308 968 q 676 888 599 968 q 754 665 754 808 l 754 321 q 677 98 756 178 q 454 18 599 18 m 332 1133 l 340 1133 q 358 1138 354 1133 q 363 1157 363 1143 l 363 1165 q 358 1183 363 1178 q 340 1188 354 1188 l 332 1188 q 314 1183 319 1188 q 308 1165 308 1178 l 308 1157 q 314 1138 308 1143 q 332 1133 319 1133 m 569 1133 l 578 1133 q 596 1138 590 1133 q 601 1157 601 1143 l 601 1165 q 596 1183 601 1178 q 578 1188 590 1188 l 569 1188 q 551 1183 556 1188 q 546 1165 546 1178 l 546 1157 q 551 1138 546 1143 q 569 1133 556 1133 "},"Ò":{"ha":907,"x_min":111,"x_max":794,"o":"m 454 -19 q 706 70 618 -19 q 794 319 794 160 l 794 667 q 706 916 794 826 q 454 1006 618 1006 q 200 916 289 1006 q 111 667 111 826 l 111 319 q 200 70 111 160 q 454 -19 289 -19 m 454 18 q 231 98 308 18 q 153 321 153 178 l 153 665 q 231 888 153 808 q 454 968 308 968 q 676 888 599 968 q 754 665 754 808 l 754 321 q 677 98 756 178 q 454 18 599 18 m 342 1222 l 539 1072 q 554 1072 549 1064 l 561 1079 q 558 1094 568 1088 l 368 1246 q 358 1251 363 1251 q 349 1246 353 1251 l 339 1236 q 335 1228 335 1231 q 342 1222 336 1225 "},"Ő":{"ha":907,"x_min":111,"x_max":794,"o":"m 454 -19 q 706 70 618 -19 q 794 319 794 160 l 794 667 q 706 916 794 826 q 454 1006 618 1006 q 200 916 289 1006 q 111 667 111 826 l 111 319 q 200 70 111 160 q 454 -19 289 -19 m 454 18 q 231 98 308 18 q 153 321 153 178 l 153 665 q 231 888 153 808 q 454 968 308 968 q 676 888 599 968 q 754 665 754 808 l 754 321 q 677 98 756 178 q 454 18 599 18 m 293 1075 l 301 1071 q 317 1075 311 1068 l 456 1239 q 458 1245 460 1242 q 451 1250 457 1249 l 439 1256 q 421 1249 426 1258 l 290 1086 q 293 1075 283 1076 m 506 1076 l 514 1072 q 528 1078 522 1069 l 674 1236 q 676 1242 678 1239 q 669 1249 675 1246 l 656 1253 q 646 1253 650 1254 q 636 1246 642 1251 l 501 1088 q 499 1081 499 1085 q 506 1076 500 1078 "},"Ō":{"ha":907,"x_min":111,"x_max":794,"o":"m 454 -19 q 706 70 618 -19 q 794 319 794 160 l 794 667 q 706 916 794 826 q 454 1006 618 1006 q 200 916 289 1006 q 111 667 111 826 l 111 319 q 200 70 111 160 q 454 -19 289 -19 m 454 18 q 231 98 308 18 q 153 321 153 178 l 153 665 q 231 888 153 808 q 454 968 308 968 q 676 888 599 968 q 754 665 754 808 l 754 321 q 677 98 756 178 q 454 18 599 18 m 300 1140 l 608 1140 q 616 1142 614 1140 q 618 1150 618 1144 l 618 1160 q 608 1171 618 1171 l 300 1171 q 290 1160 290 1171 l 290 1150 q 292 1142 290 1144 q 300 1140 294 1140 "},"Ø":{"ha":907,"x_min":111,"x_max":799,"o":"m 121 -61 l 143 -61 q 151 -60 149 -61 q 156 -56 154 -60 l 219 53 q 454 -19 310 -19 q 706 70 618 -19 q 794 319 794 160 l 794 667 q 718 904 794 813 l 796 1035 q 792 1040 799 1040 l 768 1040 q 757 1035 761 1040 l 693 926 q 454 1006 607 1006 q 200 916 289 1006 q 111 667 111 826 l 111 319 q 194 75 111 165 l 117 -56 q 121 -61 115 -61 m 674 892 l 219 117 q 153 324 153 194 l 153 665 q 231 888 153 808 q 454 968 308 968 q 674 892 594 968 m 454 18 q 240 89 318 18 l 694 861 q 754 665 754 792 l 754 321 q 677 98 756 178 q 454 18 599 18 "},"Ǿ":{"ha":907,"x_min":111,"x_max":799,"o":"m 121 -61 l 143 -61 q 151 -60 149 -61 q 156 -56 154 -60 l 219 53 q 454 -19 310 -19 q 706 70 618 -19 q 794 319 794 160 l 794 667 q 718 904 794 813 l 796 1035 q 792 1040 799 1040 l 768 1040 q 757 1035 761 1040 l 693 926 q 454 1006 607 1006 q 200 916 289 1006 q 111 667 111 826 l 111 319 q 194 75 111 165 l 117 -56 q 121 -61 115 -61 m 674 892 l 219 117 q 153 324 153 194 l 153 665 q 231 888 153 808 q 454 968 308 968 q 674 892 594 968 m 454 18 q 240 89 318 18 l 694 861 q 754 665 754 792 l 754 321 q 677 98 756 178 q 454 18 599 18 m 367 1074 l 564 1224 q 570 1229 569 1226 q 567 1238 571 1232 l 557 1247 q 538 1247 547 1254 l 347 1096 q 344 1081 338 1089 l 351 1074 q 367 1074 358 1067 "},"Õ":{"ha":907,"x_min":111,"x_max":794,"o":"m 454 -19 q 706 70 618 -19 q 794 319 794 160 l 794 667 q 706 916 794 826 q 454 1006 618 1006 q 200 916 289 1006 q 111 667 111 826 l 111 319 q 200 70 111 160 q 454 -19 289 -19 m 454 18 q 231 98 308 18 q 153 321 153 178 l 153 665 q 231 888 153 808 q 454 968 308 968 q 676 888 599 968 q 754 665 754 808 l 754 321 q 677 98 756 178 q 454 18 599 18 m 274 1092 l 288 1092 q 294 1100 294 1092 q 313 1170 294 1143 q 361 1197 331 1197 q 403 1185 385 1197 q 447 1147 422 1172 q 498 1105 478 1118 q 547 1092 518 1092 q 616 1126 592 1092 q 640 1217 640 1160 q 632 1225 640 1225 l 619 1225 q 613 1224 614 1225 q 611 1217 611 1222 q 594 1148 611 1175 q 546 1121 576 1121 q 504 1133 522 1121 q 461 1169 486 1144 q 413 1210 436 1196 q 358 1225 390 1225 q 291 1191 317 1225 q 265 1100 265 1157 q 274 1092 265 1092 "},"Œ":{"ha":1174,"x_min":111,"x_max":1090,"o":"m 468 -21 q 621 0 547 -21 l 1081 0 q 1090 11 1090 0 l 1090 26 q 1081 38 1090 38 l 646 38 l 646 481 l 1001 481 q 1010 483 1008 481 q 1013 490 1013 485 l 1013 507 q 1001 518 1013 518 l 646 518 l 646 949 l 1060 949 q 1071 960 1071 949 l 1071 975 q 1060 986 1071 986 l 619 986 q 468 1007 547 1007 q 204 916 297 1007 q 111 667 111 825 l 111 319 q 204 70 111 161 q 468 -21 297 -21 m 468 17 q 235 97 317 17 q 153 321 153 178 l 153 665 q 235 889 153 808 q 468 969 317 969 q 546 963 508 969 q 607 949 583 957 l 607 36 q 549 23 589 29 q 468 17 510 17 "},"P":{"ha":847,"x_min":142,"x_max":775,"o":"m 153 0 l 172 0 q 182 11 182 0 l 182 393 l 496 393 q 700 472 625 393 q 775 688 775 550 q 700 907 775 828 q 496 986 625 986 l 153 986 q 142 975 142 986 l 142 11 q 153 0 142 0 m 494 431 l 182 431 l 182 949 l 494 949 q 670 880 606 949 q 735 688 735 811 q 670 499 735 567 q 494 431 606 431 "},"Þ":{"ha":842,"x_min":142,"x_max":772,"o":"m 153 0 l 172 0 q 182 11 182 0 l 182 190 l 483 190 q 694 273 615 190 q 772 499 772 356 q 694 726 772 643 q 483 810 615 810 l 182 810 l 182 975 q 172 986 182 986 l 153 986 q 142 975 142 986 l 142 11 q 153 0 142 0 m 479 226 l 182 226 l 182 772 l 479 772 q 665 699 596 772 q 733 499 733 626 q 665 299 733 372 q 479 226 596 226 "},"Q":{"ha":969,"x_min":161,"x_max":889,"o":"m 728 49 l 851 -82 q 867 -83 857 -89 l 879 -72 q 881 -57 889 -65 l 758 72 q 844 319 844 161 l 844 667 q 756 916 844 826 q 504 1006 668 1006 q 250 916 339 1006 q 161 667 161 826 l 161 319 q 250 70 161 160 q 504 -19 339 -19 q 728 49 642 -19 m 504 18 q 280 98 358 18 q 201 321 201 178 l 201 665 q 280 888 201 808 q 504 968 358 968 q 726 888 649 968 q 804 665 804 808 l 804 321 q 727 98 806 178 q 504 18 649 18 "},"R":{"ha":879,"x_min":142,"x_max":807,"o":"m 153 0 l 172 0 q 182 11 182 0 l 182 446 l 419 446 q 544 413 499 446 q 624 306 589 381 l 760 10 q 767 1 763 3 q 781 0 771 0 l 797 0 q 805 3 803 0 q 804 13 807 7 l 660 324 q 610 403 638 374 q 540 450 582 433 q 714 524 650 456 q 778 714 778 593 q 709 915 778 843 q 521 986 640 986 l 153 986 q 142 975 142 986 l 142 11 q 153 0 142 0 m 519 483 l 182 483 l 182 949 l 519 949 q 680 888 622 949 q 738 714 738 826 q 680 544 738 604 q 519 483 622 483 "},"Ŕ":{"ha":879,"x_min":142,"x_max":807,"o":"m 153 0 l 172 0 q 182 11 182 0 l 182 446 l 419 446 q 544 413 499 446 q 624 306 589 381 l 760 10 q 767 1 763 3 q 781 0 771 0 l 797 0 q 805 3 803 0 q 804 13 807 7 l 660 324 q 610 403 638 374 q 540 450 582 433 q 714 524 650 456 q 778 714 778 593 q 709 915 778 843 q 521 986 640 986 l 153 986 q 142 975 142 986 l 142 11 q 153 0 142 0 m 519 483 l 182 483 l 182 949 l 519 949 q 680 888 622 949 q 738 714 738 826 q 680 544 738 604 q 519 483 622 483 m 342 1060 l 539 1210 q 545 1215 544 1213 q 542 1224 546 1218 l 532 1233 q 513 1233 522 1240 l 322 1082 q 319 1067 313 1075 l 326 1060 q 342 1060 333 1053 "},"Ř":{"ha":879,"x_min":142,"x_max":807,"o":"m 153 0 l 172 0 q 182 11 182 0 l 182 446 l 419 446 q 544 413 499 446 q 624 306 589 381 l 760 10 q 767 1 763 3 q 781 0 771 0 l 797 0 q 805 3 803 0 q 804 13 807 7 l 660 324 q 610 403 638 374 q 540 450 582 433 q 714 524 650 456 q 778 714 778 593 q 709 915 778 843 q 521 986 640 986 l 153 986 q 142 975 142 986 l 142 11 q 153 0 142 0 m 519 483 l 182 483 l 182 949 l 519 949 q 680 888 622 949 q 738 714 738 826 q 680 544 738 604 q 519 483 622 483 m 429 1056 l 432 1056 q 443 1058 439 1056 q 454 1065 447 1060 l 621 1226 q 624 1232 625 1229 q 615 1235 624 1235 l 596 1235 q 579 1229 586 1235 l 429 1083 l 281 1229 q 272 1234 276 1233 q 263 1235 268 1235 l 246 1235 q 237 1232 238 1235 q 240 1226 236 1229 l 404 1065 q 416 1057 413 1058 q 429 1056 419 1056 "},"Ŗ":{"ha":879,"x_min":142,"x_max":807,"o":"m 153 0 l 172 0 q 182 11 182 0 l 182 446 l 419 446 q 544 413 499 446 q 624 306 589 381 l 760 10 q 767 1 763 3 q 781 0 771 0 l 797 0 q 805 3 803 0 q 804 13 807 7 l 660 324 q 610 403 638 374 q 540 450 582 433 q 714 524 650 456 q 778 714 778 593 q 709 915 778 843 q 521 986 640 986 l 153 986 q 142 975 142 986 l 142 11 q 153 0 142 0 m 519 483 l 182 483 l 182 949 l 519 949 q 680 888 622 949 q 738 714 738 826 q 680 544 738 604 q 519 483 622 483 m 404 -337 l 415 -337 q 424 -335 421 -337 q 429 -326 426 -333 l 494 -125 q 485 -114 499 -114 l 469 -114 q 460 -116 463 -114 q 456 -125 457 -118 l 396 -328 q 404 -337 392 -337 "},"S":{"ha":854,"x_min":82,"x_max":763,"o":"m 428 -19 q 678 50 593 -19 q 763 256 763 119 q 719 406 763 353 q 610 481 675 460 q 444 514 544 501 q 288 544 350 525 q 185 608 226 563 q 144 738 144 654 q 218 906 144 844 q 419 967 292 967 q 603 922 532 967 q 719 776 674 876 q 725 770 722 771 q 733 772 728 769 l 750 778 q 758 786 758 781 q 756 793 758 788 q 626 956 704 906 q 419 1006 547 1006 q 188 934 272 1006 q 103 738 103 863 q 149 586 103 640 q 265 510 196 532 q 435 475 333 489 q 586 447 528 464 q 683 384 644 429 q 721 256 721 339 q 428 19 721 19 q 240 70 314 19 q 122 236 167 121 q 114 244 118 244 l 108 243 l 90 238 q 82 229 82 233 q 85 221 82 226 q 213 38 131 94 q 428 -19 296 -19 "},"Ś":{"ha":854,"x_min":82,"x_max":763,"o":"m 428 -19 q 678 50 593 -19 q 763 256 763 119 q 719 406 763 353 q 610 481 675 460 q 444 514 544 501 q 288 544 350 525 q 185 608 226 563 q 144 738 144 654 q 218 906 144 844 q 419 967 292 967 q 603 922 532 967 q 719 776 674 876 q 725 770 722 771 q 733 772 728 769 l 750 778 q 758 786 758 781 q 756 793 758 788 q 626 956 704 906 q 419 1006 547 1006 q 188 934 272 1006 q 103 738 103 863 q 149 586 103 640 q 265 510 196 532 q 435 475 333 489 q 586 447 528 464 q 683 384 644 429 q 721 256 721 339 q 428 19 721 19 q 240 70 314 19 q 122 236 167 121 q 114 244 118 244 l 108 243 l 90 238 q 82 229 82 233 q 85 221 82 226 q 213 38 131 94 q 428 -19 296 -19 m 343 1072 l 540 1222 q 547 1228 546 1225 q 543 1236 547 1231 l 533 1246 q 514 1246 524 1253 l 324 1094 q 321 1079 314 1088 l 328 1072 q 343 1072 335 1065 "},"Š":{"ha":854,"x_min":82,"x_max":763,"o":"m 428 -19 q 678 50 593 -19 q 763 256 763 119 q 719 406 763 353 q 610 481 675 460 q 444 514 544 501 q 288 544 350 525 q 185 608 226 563 q 144 738 144 654 q 218 906 144 844 q 419 967 292 967 q 603 922 532 967 q 719 776 674 876 q 725 770 722 771 q 733 772 728 769 l 750 778 q 758 786 758 781 q 756 793 758 788 q 626 956 704 906 q 419 1006 547 1006 q 188 934 272 1006 q 103 738 103 863 q 149 586 103 640 q 265 510 196 532 q 435 475 333 489 q 586 447 528 464 q 683 384 644 429 q 721 256 721 339 q 428 19 721 19 q 240 70 314 19 q 122 236 167 121 q 114 244 118 244 l 108 243 l 90 238 q 82 229 82 233 q 85 221 82 226 q 213 38 131 94 q 428 -19 296 -19 m 431 1068 l 433 1068 q 444 1070 440 1068 q 456 1078 449 1072 l 622 1239 q 626 1244 626 1242 q 617 1247 625 1247 l 597 1247 q 581 1242 588 1247 l 431 1096 l 282 1242 q 274 1247 278 1246 q 264 1247 269 1247 l 247 1247 q 238 1244 239 1247 q 242 1239 238 1242 l 406 1078 q 417 1069 414 1071 q 431 1068 421 1068 "},"Ş":{"ha":854,"x_min":82,"x_max":763,"o":"m 438 -342 q 537 -310 500 -342 q 574 -217 574 -279 q 542 -142 574 -171 q 464 -114 511 -114 q 426 -121 440 -114 l 454 -19 q 685 56 607 -12 q 763 256 763 125 q 719 406 763 353 q 610 481 675 460 q 444 514 544 501 q 288 544 350 525 q 185 608 226 563 q 144 738 144 654 q 218 906 144 844 q 419 967 292 967 q 603 922 532 967 q 719 776 674 876 q 725 770 722 771 q 733 772 728 769 l 750 778 q 758 786 758 781 q 756 793 758 788 q 626 956 704 906 q 419 1006 547 1006 q 188 934 272 1006 q 103 738 103 863 q 149 586 103 640 q 265 510 196 532 q 435 475 333 489 q 586 447 528 464 q 683 384 644 429 q 721 256 721 339 q 428 19 721 19 q 241 73 315 19 q 122 243 167 126 q 114 250 119 250 l 108 249 l 90 243 q 82 235 82 239 l 85 226 q 215 42 132 101 q 426 -19 297 -18 l 392 -135 q 400 -149 389 -149 l 404 -149 q 449 -139 426 -139 q 513 -160 488 -139 q 539 -217 539 -181 q 433 -314 539 -314 q 340 -274 378 -314 q 335 -272 338 -271 q 332 -278 332 -274 l 332 -290 q 342 -308 332 -303 q 385 -332 363 -322 q 438 -342 407 -342 "},"Ŝ":{"ha":854,"x_min":82,"x_max":763,"o":"m 428 -19 q 678 50 593 -19 q 763 256 763 119 q 719 406 763 353 q 610 481 675 460 q 444 514 544 501 q 288 544 350 525 q 185 608 226 563 q 144 738 144 654 q 218 906 144 844 q 419 967 292 967 q 603 922 532 967 q 719 776 674 876 q 725 770 722 771 q 733 772 728 769 l 750 778 q 758 786 758 781 q 756 793 758 788 q 626 956 704 906 q 419 1006 547 1006 q 188 934 272 1006 q 103 738 103 863 q 149 586 103 640 q 265 510 196 532 q 435 475 333 489 q 586 447 528 464 q 683 384 644 429 q 721 256 721 339 q 428 19 721 19 q 240 70 314 19 q 122 236 167 121 q 114 244 118 244 l 108 243 l 90 238 q 82 229 82 233 q 85 221 82 226 q 213 38 131 94 q 428 -19 296 -19 m 246 1068 l 264 1068 q 281 1075 275 1068 l 432 1219 l 579 1075 q 588 1069 583 1071 q 597 1068 592 1068 l 615 1068 q 622 1076 631 1068 l 457 1238 q 445 1247 449 1246 q 433 1249 442 1249 l 431 1249 q 417 1246 422 1249 q 406 1238 413 1243 l 240 1076 q 237 1071 236 1074 q 246 1068 238 1068 "},"Ș":{"ha":854,"x_min":82,"x_max":763,"o":"m 428 -19 q 678 50 593 -19 q 763 256 763 119 q 719 406 763 353 q 610 481 675 460 q 444 514 544 501 q 288 544 350 525 q 185 608 226 563 q 144 738 144 654 q 218 906 144 844 q 419 967 292 967 q 603 922 532 967 q 719 776 674 876 q 725 770 722 771 q 733 772 728 769 l 750 778 q 758 786 758 781 q 756 793 758 788 q 626 956 704 906 q 419 1006 547 1006 q 188 934 272 1006 q 103 738 103 863 q 149 586 103 640 q 265 510 196 532 q 435 475 333 489 q 586 447 528 464 q 683 384 644 429 q 721 256 721 339 q 428 19 721 19 q 240 70 314 19 q 122 236 167 121 q 114 244 118 244 l 108 243 l 90 238 q 82 229 82 233 q 85 221 82 226 q 213 38 131 94 q 428 -19 296 -19 m 389 -349 l 400 -349 q 408 -347 406 -349 q 414 -337 411 -344 l 479 -136 q 469 -125 483 -125 l 454 -125 q 444 -127 447 -125 q 440 -136 442 -129 l 381 -339 q 389 -349 376 -349 "},"ẞ":{"ha":878,"x_min":142,"x_max":783,"o":"m 549 560 q 464 554 504 560 l 724 943 q 729 958 729 954 l 729 975 q 718 986 729 986 l 153 986 q 142 975 142 986 l 142 11 q 153 0 142 0 l 172 0 q 182 11 182 0 l 182 949 l 679 949 l 424 557 q 417 542 417 549 l 417 525 q 426 515 417 515 l 429 515 q 509 524 479 524 q 544 524 539 524 q 689 463 636 524 q 742 276 742 401 q 677 85 742 146 q 476 25 613 25 q 385 33 426 25 q 282 67 343 40 q 273 66 276 68 q 269 60 269 64 l 269 40 q 281 29 269 29 q 386 -3 340 6 q 478 -12 432 -12 q 708 58 632 -12 q 783 275 783 129 q 719 490 783 421 q 549 560 654 560 "},"T":{"ha":731,"x_min":42,"x_max":690,"o":"m 356 0 l 375 0 q 386 11 386 0 l 386 949 l 679 949 q 690 960 690 949 l 690 975 q 679 986 690 986 l 51 986 q 42 975 42 986 l 42 960 q 51 949 42 949 l 346 949 l 346 11 q 356 0 346 0 "},"Ŧ":{"ha":729,"x_min":42,"x_max":689,"o":"m 356 0 l 375 0 q 386 11 386 0 l 386 444 l 590 444 q 598 447 596 444 q 600 456 600 449 l 600 467 q 598 474 600 472 q 590 476 596 476 l 386 476 l 386 949 l 678 949 q 689 960 689 949 l 689 975 q 678 986 689 986 l 51 986 q 42 975 42 986 l 42 960 q 51 949 42 949 l 346 949 l 346 476 l 142 476 q 134 474 136 476 q 132 467 132 472 l 132 456 q 133 447 132 449 q 142 444 135 444 l 346 444 l 346 11 q 356 0 346 0 "},"Ť":{"ha":731,"x_min":42,"x_max":690,"o":"m 356 0 l 375 0 q 386 11 386 0 l 386 949 l 679 949 q 690 960 690 949 l 690 975 q 679 986 690 986 l 51 986 q 42 975 42 986 l 42 960 q 51 949 42 949 l 346 949 l 346 11 q 356 0 346 0 m 365 1056 l 368 1056 q 379 1058 375 1056 q 390 1065 383 1060 l 557 1226 q 560 1232 561 1229 q 551 1235 560 1235 l 532 1235 q 515 1229 522 1235 l 365 1083 l 217 1229 q 208 1234 213 1233 q 199 1235 204 1235 l 182 1235 q 173 1232 174 1235 q 176 1226 172 1229 l 340 1065 q 352 1057 349 1058 q 365 1056 356 1056 "},"Ţ":{"ha":731,"x_min":42,"x_max":690,"o":"m 356 0 l 375 0 q 386 11 386 0 l 386 949 l 679 949 q 690 960 690 949 l 690 975 q 679 986 690 986 l 51 986 q 42 975 42 986 l 42 960 q 51 949 42 949 l 346 949 l 346 11 q 356 0 346 0 m 301 -337 l 313 -337 q 321 -335 318 -337 q 326 -326 324 -333 l 392 -125 q 382 -114 396 -114 l 367 -114 q 357 -116 360 -114 q 353 -125 354 -118 l 293 -328 q 301 -337 289 -337 "},"U":{"ha":935,"x_min":133,"x_max":800,"o":"m 467 -19 q 716 75 632 -19 q 800 335 800 169 l 800 975 q 790 986 800 986 l 771 986 q 760 975 760 986 l 760 333 q 685 102 760 186 q 467 18 611 18 q 248 102 322 18 q 174 333 174 186 l 174 975 q 172 984 174 982 q 164 986 169 986 l 144 986 q 133 975 133 986 l 133 335 q 218 75 133 169 q 467 -19 303 -19 "},"Ú":{"ha":935,"x_min":133,"x_max":800,"o":"m 467 -19 q 716 75 632 -19 q 800 335 800 169 l 800 975 q 790 986 800 986 l 771 986 q 760 975 760 986 l 760 333 q 685 102 760 186 q 467 18 611 18 q 248 102 322 18 q 174 333 174 186 l 174 975 q 172 984 174 982 q 164 986 169 986 l 144 986 q 133 975 133 986 l 133 335 q 218 75 133 169 q 467 -19 303 -19 m 379 1060 l 576 1210 q 583 1215 582 1213 q 579 1224 583 1218 l 569 1233 q 550 1233 560 1240 l 360 1082 q 357 1067 350 1075 l 364 1060 q 379 1060 371 1053 "},"Ŭ":{"ha":935,"x_min":133,"x_max":800,"o":"m 467 -19 q 716 75 632 -19 q 800 335 800 169 l 800 975 q 790 986 800 986 l 771 986 q 760 975 760 986 l 760 333 q 685 102 760 186 q 467 18 611 18 q 248 102 322 18 q 174 333 174 186 l 174 975 q 172 984 174 982 q 164 986 169 986 l 144 986 q 133 975 133 986 l 133 335 q 218 75 133 169 q 467 -19 303 -19 m 467 1060 q 581 1098 539 1060 q 650 1218 622 1136 q 644 1229 653 1228 l 628 1233 q 618 1228 621 1233 q 560 1123 593 1154 q 467 1092 528 1092 q 373 1124 407 1092 q 317 1228 339 1157 q 304 1233 313 1235 l 290 1229 q 286 1218 282 1226 q 354 1098 313 1136 q 467 1060 396 1060 "},"Û":{"ha":935,"x_min":133,"x_max":800,"o":"m 467 -19 q 716 75 632 -19 q 800 335 800 169 l 800 975 q 790 986 800 986 l 771 986 q 760 975 760 986 l 760 333 q 685 102 760 186 q 467 18 611 18 q 248 102 322 18 q 174 333 174 186 l 174 975 q 172 984 174 982 q 164 986 169 986 l 144 986 q 133 975 133 986 l 133 335 q 218 75 133 169 q 467 -19 303 -19 m 281 1056 l 299 1056 q 315 1063 310 1056 l 467 1207 l 614 1063 q 622 1057 618 1058 q 632 1056 626 1056 l 650 1056 q 657 1064 665 1056 l 492 1225 q 480 1235 483 1233 q 468 1236 476 1236 l 465 1236 q 452 1233 457 1236 q 440 1225 447 1231 l 275 1064 q 272 1058 271 1061 q 281 1056 272 1056 "},"Ü":{"ha":935,"x_min":133,"x_max":800,"o":"m 467 -19 q 716 75 632 -19 q 800 335 800 169 l 800 975 q 790 986 800 986 l 771 986 q 760 975 760 986 l 760 333 q 685 102 760 186 q 467 18 611 18 q 248 102 322 18 q 174 333 174 186 l 174 975 q 172 984 174 982 q 164 986 169 986 l 144 986 q 133 975 133 986 l 133 335 q 218 75 133 169 q 467 -19 303 -19 m 344 1119 l 353 1119 q 371 1124 367 1119 q 375 1143 375 1129 l 375 1151 q 371 1169 375 1164 q 353 1174 367 1174 l 344 1174 q 326 1169 332 1174 q 321 1151 321 1164 l 321 1143 q 326 1124 321 1129 q 344 1119 332 1119 m 582 1119 l 590 1119 q 608 1124 603 1119 q 614 1143 614 1129 l 614 1151 q 608 1169 614 1164 q 590 1174 603 1174 l 582 1174 q 563 1169 568 1174 q 558 1151 558 1164 l 558 1143 q 563 1124 558 1129 q 582 1119 568 1119 "},"Ù":{"ha":935,"x_min":133,"x_max":800,"o":"m 467 -19 q 716 75 632 -19 q 800 335 800 169 l 800 975 q 790 986 800 986 l 771 986 q 760 975 760 986 l 760 333 q 685 102 760 186 q 467 18 611 18 q 248 102 322 18 q 174 333 174 186 l 174 975 q 172 984 174 982 q 164 986 169 986 l 144 986 q 133 975 133 986 l 133 335 q 218 75 133 169 q 467 -19 303 -19 m 354 1208 l 551 1058 q 567 1058 561 1050 l 574 1065 q 571 1081 581 1074 l 381 1232 q 371 1238 375 1238 q 361 1232 365 1238 l 351 1222 q 348 1214 347 1217 q 354 1208 349 1211 "},"Ű":{"ha":935,"x_min":133,"x_max":800,"o":"m 467 -19 q 716 75 632 -19 q 800 335 800 169 l 800 975 q 790 986 800 986 l 771 986 q 760 975 760 986 l 760 333 q 685 102 760 186 q 467 18 611 18 q 248 102 322 18 q 174 333 174 186 l 174 975 q 172 984 174 982 q 164 986 169 986 l 144 986 q 133 975 133 986 l 133 335 q 218 75 133 169 q 467 -19 303 -19 m 306 1061 l 314 1057 q 329 1061 324 1054 l 468 1225 q 471 1231 472 1228 q 464 1236 469 1235 l 451 1242 q 433 1235 439 1244 l 303 1072 q 306 1061 296 1063 m 518 1063 l 526 1058 q 540 1064 535 1056 l 686 1222 q 689 1228 690 1225 q 682 1235 688 1232 l 668 1239 q 658 1239 663 1240 q 649 1232 654 1238 l 514 1074 q 512 1067 511 1071 q 518 1063 513 1064 "},"Ū":{"ha":935,"x_min":133,"x_max":800,"o":"m 467 -19 q 716 75 632 -19 q 800 335 800 169 l 800 975 q 790 986 800 986 l 771 986 q 760 975 760 986 l 760 333 q 685 102 760 186 q 467 18 611 18 q 248 102 322 18 q 174 333 174 186 l 174 975 q 172 984 174 982 q 164 986 169 986 l 144 986 q 133 975 133 986 l 133 335 q 218 75 133 169 q 467 -19 303 -19 m 313 1126 l 621 1126 q 628 1128 626 1126 q 631 1136 631 1131 l 631 1146 q 621 1157 631 1157 l 313 1157 q 303 1146 303 1157 l 303 1136 q 305 1128 303 1131 q 313 1126 307 1126 "},"Ų":{"ha":935,"x_min":133,"x_max":800,"o":"m 586 -344 q 649 -332 618 -344 q 703 -296 681 -319 q 706 -285 707 -290 l 699 -268 q 690 -267 697 -262 q 646 -299 674 -286 q 594 -312 618 -312 q 533 -267 550 -312 q 529 -237 529 -254 q 574 -110 529 -186 q 693 53 618 -33 q 800 335 800 146 l 800 975 q 790 986 800 986 l 771 986 q 760 975 760 986 l 760 333 q 685 102 760 186 q 467 18 611 18 q 248 102 322 18 q 174 333 174 186 l 174 975 q 172 984 174 982 q 164 986 169 986 l 144 986 q 133 975 133 986 l 133 335 q 218 75 133 169 q 467 -19 303 -19 q 624 13 557 -19 q 494 -244 494 -150 q 500 -282 494 -260 q 534 -329 511 -314 q 586 -344 557 -344 "},"Ů":{"ha":935,"x_min":133,"x_max":800,"o":"m 467 -19 q 716 75 632 -19 q 800 335 800 169 l 800 975 q 790 986 800 986 l 771 986 q 760 975 760 986 l 760 333 q 685 102 760 186 q 467 18 611 18 q 248 102 322 18 q 174 333 174 186 l 174 975 q 172 984 174 982 q 164 986 169 986 l 144 986 q 133 975 133 986 l 133 335 q 218 75 133 169 q 467 -19 303 -19 m 468 1050 q 553 1085 521 1050 q 586 1175 586 1119 q 553 1267 586 1232 q 468 1301 521 1301 q 381 1266 415 1301 q 347 1175 347 1231 q 381 1085 347 1119 q 468 1050 415 1050 m 468 1075 q 399 1102 425 1075 q 372 1175 372 1129 q 399 1249 372 1221 q 468 1276 425 1276 q 535 1249 510 1276 q 561 1175 561 1221 q 535 1102 561 1129 q 468 1075 510 1075 "},"Ũ":{"ha":935,"x_min":133,"x_max":800,"o":"m 467 -19 q 716 75 632 -19 q 800 335 800 169 l 800 975 q 790 986 800 986 l 771 986 q 760 975 760 986 l 760 333 q 685 102 760 186 q 467 18 611 18 q 248 102 322 18 q 174 333 174 186 l 174 975 q 172 984 174 982 q 164 986 169 986 l 144 986 q 133 975 133 986 l 133 335 q 218 75 133 169 q 467 -19 303 -19 m 286 1078 l 300 1078 q 307 1086 307 1078 q 325 1156 307 1129 q 374 1183 343 1183 q 416 1171 397 1183 q 460 1133 435 1158 q 510 1091 490 1104 q 560 1078 531 1078 q 628 1112 604 1078 q 653 1203 653 1146 q 644 1211 653 1211 l 632 1211 q 625 1210 626 1211 q 624 1203 624 1208 q 606 1134 624 1161 q 558 1107 589 1107 q 517 1119 535 1107 q 474 1156 499 1131 q 426 1197 449 1182 q 371 1211 403 1211 q 303 1177 329 1211 q 278 1086 278 1143 q 286 1078 278 1078 "},"V":{"ha":836,"x_min":39,"x_max":796,"o":"m 408 0 l 428 0 q 443 11 439 0 l 794 975 q 794 983 796 981 q 788 986 793 986 l 768 986 q 750 976 754 986 l 446 133 q 432 90 442 124 l 419 51 l 417 51 q 389 133 394 121 l 85 976 q 81 984 83 982 q 69 986 78 986 l 50 986 q 42 975 39 986 l 393 11 q 408 0 397 0 "},"W":{"ha":1218,"x_min":54,"x_max":1161,"o":"m 331 0 l 349 0 q 360 2 357 0 q 364 11 364 4 l 578 782 q 608 901 599 856 l 611 901 l 619 863 q 642 782 632 814 l 853 11 q 868 0 854 0 l 888 0 q 898 2 894 0 q 903 11 901 4 l 1160 975 q 1151 986 1161 986 l 1131 986 q 1117 976 1118 986 l 906 174 l 879 60 l 878 60 l 849 175 l 633 951 q 619 961 632 961 l 601 961 q 586 951 589 961 l 371 178 l 363 146 l 340 60 l 339 60 q 311 179 326 121 l 101 976 q 88 986 100 986 l 67 986 q 58 975 54 986 l 315 11 q 331 0 317 0 "},"Ẃ":{"ha":1218,"x_min":54,"x_max":1161,"o":"m 331 0 l 349 0 q 360 2 357 0 q 364 11 364 4 l 578 782 q 608 901 599 856 l 611 901 l 619 863 q 642 782 632 814 l 853 11 q 868 0 854 0 l 888 0 q 898 2 894 0 q 903 11 901 4 l 1160 975 q 1151 986 1161 986 l 1131 986 q 1117 976 1118 986 l 906 174 l 879 60 l 878 60 l 849 175 l 633 951 q 619 961 632 961 l 601 961 q 586 951 589 961 l 371 178 l 363 146 l 340 60 l 339 60 q 311 179 326 121 l 101 976 q 88 986 100 986 l 67 986 q 58 975 54 986 l 315 11 q 331 0 317 0 m 524 1060 l 721 1210 q 727 1215 726 1213 q 724 1224 728 1218 l 714 1233 q 694 1233 704 1240 l 504 1082 q 501 1067 494 1075 l 508 1060 q 524 1060 515 1053 "},"Ŵ":{"ha":1218,"x_min":54,"x_max":1161,"o":"m 331 0 l 349 0 q 360 2 357 0 q 364 11 364 4 l 578 782 q 608 901 599 856 l 611 901 l 619 863 q 642 782 632 814 l 853 11 q 868 0 854 0 l 888 0 q 898 2 894 0 q 903 11 901 4 l 1160 975 q 1151 986 1161 986 l 1131 986 q 1117 976 1118 986 l 906 174 l 879 60 l 878 60 l 849 175 l 633 951 q 619 961 632 961 l 601 961 q 586 951 589 961 l 371 178 l 363 146 l 340 60 l 339 60 q 311 179 326 121 l 101 976 q 88 986 100 986 l 67 986 q 58 975 54 986 l 315 11 q 331 0 317 0 m 425 1056 l 443 1056 q 460 1063 454 1056 l 611 1207 l 758 1063 q 767 1057 763 1058 q 776 1056 771 1056 l 794 1056 q 801 1064 810 1056 l 636 1225 q 624 1235 628 1233 q 613 1236 621 1236 l 610 1236 q 597 1233 601 1236 q 585 1225 592 1231 l 419 1064 q 416 1058 415 1061 q 425 1056 417 1056 "},"Ẅ":{"ha":1218,"x_min":54,"x_max":1161,"o":"m 331 0 l 349 0 q 360 2 357 0 q 364 11 364 4 l 578 782 q 608 901 599 856 l 611 901 l 619 863 q 642 782 632 814 l 853 11 q 868 0 854 0 l 888 0 q 898 2 894 0 q 903 11 901 4 l 1160 975 q 1151 986 1161 986 l 1131 986 q 1117 976 1118 986 l 906 174 l 879 60 l 878 60 l 849 175 l 633 951 q 619 961 632 961 l 601 961 q 586 951 589 961 l 371 178 l 363 146 l 340 60 l 339 60 q 311 179 326 121 l 101 976 q 88 986 100 986 l 67 986 q 58 975 54 986 l 315 11 q 331 0 317 0 m 488 1119 l 496 1119 q 514 1124 510 1119 q 518 1143 518 1129 l 518 1151 q 514 1169 518 1164 q 496 1174 510 1174 l 488 1174 q 469 1169 475 1174 q 464 1151 464 1164 l 464 1143 q 469 1124 464 1129 q 488 1119 475 1119 m 725 1119 l 733 1119 q 751 1124 746 1119 q 757 1143 757 1129 l 757 1151 q 751 1169 757 1164 q 733 1174 746 1174 l 725 1174 q 706 1169 711 1174 q 701 1151 701 1164 l 701 1143 q 706 1124 701 1129 q 725 1119 711 1119 "},"Ẁ":{"ha":1218,"x_min":54,"x_max":1161,"o":"m 331 0 l 349 0 q 360 2 357 0 q 364 11 364 4 l 578 782 q 608 901 599 856 l 611 901 l 619 863 q 642 782 632 814 l 853 11 q 868 0 854 0 l 888 0 q 898 2 894 0 q 903 11 901 4 l 1160 975 q 1151 986 1161 986 l 1131 986 q 1117 976 1118 986 l 906 174 l 879 60 l 878 60 l 849 175 l 633 951 q 619 961 632 961 l 601 961 q 586 951 589 961 l 371 178 l 363 146 l 340 60 l 339 60 q 311 179 326 121 l 101 976 q 88 986 100 986 l 67 986 q 58 975 54 986 l 315 11 q 331 0 317 0 m 499 1208 l 696 1058 q 711 1058 706 1050 l 718 1065 q 715 1081 725 1074 l 525 1232 q 515 1238 519 1238 q 506 1232 510 1238 l 496 1222 q 492 1214 492 1217 q 499 1208 493 1211 "},"X":{"ha":819,"x_min":39,"x_max":776,"o":"m 53 0 l 76 0 q 88 2 85 0 q 94 10 92 4 l 408 471 l 725 10 q 732 1 729 3 q 743 0 735 0 l 767 0 q 775 4 774 0 q 772 15 776 8 l 435 503 l 763 975 q 764 983 765 979 q 757 986 763 986 l 733 986 q 720 985 724 986 q 714 976 717 983 l 410 532 l 104 976 q 98 985 101 983 q 85 986 94 986 l 63 986 q 55 983 57 986 q 56 975 53 979 l 382 501 l 49 15 q 53 0 39 0 "},"Y":{"ha":844,"x_min":44,"x_max":801,"o":"m 413 0 l 432 0 q 443 11 443 0 l 443 408 l 799 975 q 799 983 801 979 q 792 986 797 986 l 771 986 q 758 984 763 986 q 751 976 754 982 l 424 449 l 94 976 q 88 984 90 982 q 76 986 85 986 l 54 986 q 47 983 49 986 q 47 975 44 979 l 403 410 l 403 11 q 405 2 403 4 q 413 0 407 0 "},"Ý":{"ha":844,"x_min":44,"x_max":801,"o":"m 413 0 l 432 0 q 443 11 443 0 l 443 408 l 799 975 q 799 983 801 979 q 792 986 797 986 l 771 986 q 758 984 763 986 q 751 976 754 982 l 424 449 l 94 976 q 88 984 90 982 q 76 986 85 986 l 54 986 q 47 983 49 986 q 47 975 44 979 l 403 410 l 403 11 q 405 2 403 4 q 413 0 407 0 m 336 1060 l 533 1210 q 540 1215 539 1213 q 536 1224 540 1218 l 526 1233 q 507 1233 517 1240 l 317 1082 q 314 1067 307 1075 l 321 1060 q 336 1060 328 1053 "},"Ŷ":{"ha":844,"x_min":44,"x_max":801,"o":"m 413 0 l 432 0 q 443 11 443 0 l 443 408 l 799 975 q 799 983 801 979 q 792 986 797 986 l 771 986 q 758 984 763 986 q 751 976 754 982 l 424 449 l 94 976 q 88 984 90 982 q 76 986 85 986 l 54 986 q 47 983 49 986 q 47 975 44 979 l 403 410 l 403 11 q 405 2 403 4 q 413 0 407 0 m 238 1056 l 256 1056 q 272 1063 267 1056 l 424 1207 l 571 1063 q 579 1057 575 1058 q 589 1056 583 1056 l 607 1056 q 614 1064 622 1056 l 449 1225 q 437 1235 440 1233 q 425 1236 433 1236 l 422 1236 q 409 1233 414 1236 q 397 1225 404 1231 l 232 1064 q 228 1058 228 1061 q 238 1056 229 1056 "},"Ÿ":{"ha":844,"x_min":44,"x_max":801,"o":"m 413 0 l 432 0 q 443 11 443 0 l 443 408 l 799 975 q 799 983 801 979 q 792 986 797 986 l 771 986 q 758 984 763 986 q 751 976 754 982 l 424 449 l 94 976 q 88 984 90 982 q 76 986 85 986 l 54 986 q 47 983 49 986 q 47 975 44 979 l 403 410 l 403 11 q 405 2 403 4 q 413 0 407 0 m 300 1119 l 308 1119 q 326 1124 322 1119 q 331 1143 331 1129 l 331 1151 q 326 1169 331 1164 q 308 1174 322 1174 l 300 1174 q 282 1169 288 1174 q 276 1151 276 1164 l 276 1143 q 282 1124 276 1129 q 300 1119 288 1119 m 538 1119 l 546 1119 q 564 1124 558 1119 q 569 1143 569 1129 l 569 1151 q 564 1169 569 1164 q 546 1174 558 1174 l 538 1174 q 519 1169 524 1174 q 514 1151 514 1164 l 514 1143 q 519 1124 514 1129 q 538 1119 524 1119 "},"Ỳ":{"ha":844,"x_min":44,"x_max":801,"o":"m 413 0 l 432 0 q 443 11 443 0 l 443 408 l 799 975 q 799 983 801 979 q 792 986 797 986 l 771 986 q 758 984 763 986 q 751 976 754 982 l 424 449 l 94 976 q 88 984 90 982 q 76 986 85 986 l 54 986 q 47 983 49 986 q 47 975 44 979 l 403 410 l 403 11 q 405 2 403 4 q 413 0 407 0 m 311 1208 l 508 1058 q 524 1058 518 1050 l 531 1065 q 528 1081 538 1074 l 338 1232 q 328 1238 332 1238 q 318 1232 322 1238 l 308 1222 q 305 1214 304 1217 q 311 1208 306 1211 "},"Z":{"ha":754,"x_min":68,"x_max":692,"o":"m 78 0 l 682 0 q 690 2 688 0 q 692 11 692 4 l 692 28 q 690 37 692 35 q 682 39 688 39 l 117 39 l 671 946 q 675 963 675 951 l 675 975 q 665 986 675 986 l 83 986 q 74 975 74 986 l 74 960 q 83 949 74 949 l 626 949 l 74 44 q 68 25 68 38 l 68 11 q 78 0 68 0 "},"Ź":{"ha":754,"x_min":68,"x_max":692,"o":"m 78 0 l 682 0 q 690 2 688 0 q 692 11 692 4 l 692 28 q 690 37 692 35 q 682 39 688 39 l 117 39 l 671 946 q 675 963 675 951 l 675 975 q 665 986 675 986 l 83 986 q 74 975 74 986 l 74 960 q 83 949 74 949 l 626 949 l 74 44 q 68 25 68 38 l 68 11 q 78 0 68 0 m 294 1060 l 492 1210 q 498 1215 497 1213 q 494 1224 499 1218 l 485 1233 q 465 1233 475 1240 l 275 1082 q 272 1067 265 1075 l 279 1060 q 294 1060 286 1053 "},"Ž":{"ha":754,"x_min":68,"x_max":692,"o":"m 78 0 l 682 0 q 690 2 688 0 q 692 11 692 4 l 692 28 q 690 37 692 35 q 682 39 688 39 l 117 39 l 671 946 q 675 963 675 951 l 675 975 q 665 986 675 986 l 83 986 q 74 975 74 986 l 74 960 q 83 949 74 949 l 626 949 l 74 44 q 68 25 68 38 l 68 11 q 78 0 68 0 m 381 1056 l 383 1056 q 394 1058 390 1056 q 406 1065 399 1060 l 572 1226 q 576 1232 576 1229 q 567 1235 575 1235 l 547 1235 q 531 1229 538 1235 l 381 1083 l 232 1229 q 224 1234 228 1233 q 214 1235 219 1235 l 197 1235 q 188 1232 189 1235 q 192 1226 188 1229 l 356 1065 q 367 1057 364 1058 q 381 1056 371 1056 "},"Ż":{"ha":754,"x_min":68,"x_max":692,"o":"m 78 0 l 682 0 q 690 2 688 0 q 692 11 692 4 l 692 28 q 690 37 692 35 q 682 39 688 39 l 117 39 l 671 946 q 675 963 675 951 l 675 975 q 665 986 675 986 l 83 986 q 74 975 74 986 l 74 960 q 83 949 74 949 l 626 949 l 74 44 q 68 25 68 38 l 68 11 q 78 0 68 0 m 378 1114 l 385 1114 q 403 1119 399 1114 q 408 1138 408 1124 l 408 1143 q 403 1163 408 1157 q 385 1168 399 1168 l 378 1168 q 359 1163 364 1168 q 354 1143 354 1157 l 354 1138 q 359 1119 354 1124 q 378 1114 364 1114 "},"a":{"ha":697,"x_min":83,"x_max":583,"o":"m 347 -19 q 539 17 464 -19 q 574 44 565 29 q 583 96 583 60 l 583 474 q 527 667 583 604 q 347 729 471 729 q 106 582 174 729 q 110 567 100 571 l 122 561 q 136 567 132 558 q 347 696 200 696 q 499 643 451 696 q 547 475 547 590 l 547 378 q 351 396 444 396 q 149 346 214 396 q 83 190 83 296 q 147 31 83 82 q 347 -19 210 -19 m 344 13 q 175 56 229 13 q 121 190 121 100 q 176 322 121 281 q 349 364 231 364 q 547 346 439 364 l 547 101 q 541 65 547 75 q 515 44 535 54 q 344 13 444 13 "},"á":{"ha":697,"x_min":83,"x_max":583,"o":"m 347 -19 q 539 17 464 -19 q 574 44 565 29 q 583 96 583 60 l 583 474 q 527 667 583 604 q 347 729 471 729 q 106 582 174 729 q 110 567 100 571 l 122 561 q 136 567 132 558 q 347 696 200 696 q 499 643 451 696 q 547 475 547 590 l 547 378 q 351 396 444 396 q 149 346 214 396 q 83 190 83 296 q 147 31 83 82 q 347 -19 210 -19 m 344 13 q 175 56 229 13 q 121 190 121 100 q 176 322 121 281 q 349 364 231 364 q 547 346 439 364 l 547 101 q 541 65 547 75 q 515 44 535 54 q 344 13 444 13 m 253 851 l 450 1001 q 453 1015 461 1007 l 443 1025 q 424 1025 435 1033 l 233 874 q 231 858 224 867 l 238 851 q 253 851 244 844 "},"ă":{"ha":697,"x_min":83,"x_max":583,"o":"m 347 -19 q 539 17 464 -19 q 574 44 565 29 q 583 96 583 60 l 583 474 q 527 667 583 604 q 347 729 471 729 q 106 582 174 729 q 110 567 100 571 l 122 561 q 136 567 132 558 q 347 696 200 696 q 499 643 451 696 q 547 475 547 590 l 547 378 q 351 396 444 396 q 149 346 214 396 q 83 190 83 296 q 147 31 83 82 q 347 -19 210 -19 m 344 13 q 175 56 229 13 q 121 190 121 100 q 176 322 121 281 q 349 364 231 364 q 547 346 439 364 l 547 101 q 541 65 547 75 q 515 44 535 54 q 344 13 444 13 m 342 847 q 459 885 415 847 q 524 1004 503 922 q 524 1012 525 1010 q 518 1017 524 1014 l 504 1021 q 493 1014 497 1022 q 439 912 475 944 q 342 879 403 879 q 245 911 281 879 q 192 1014 210 943 q 182 1021 188 1021 l 179 1021 l 167 1017 q 160 1013 161 1015 q 160 1004 158 1011 q 226 885 182 922 q 342 847 269 847 "},"â":{"ha":697,"x_min":83,"x_max":583,"o":"m 347 -19 q 539 17 464 -19 q 574 44 565 29 q 583 96 583 60 l 583 474 q 527 667 583 604 q 347 729 471 729 q 106 582 174 729 q 110 567 100 571 l 122 561 q 136 567 132 558 q 347 696 200 696 q 499 643 451 696 q 547 475 547 590 l 547 378 q 351 396 444 396 q 149 346 214 396 q 83 190 83 296 q 147 31 83 82 q 347 -19 210 -19 m 344 13 q 175 56 229 13 q 121 190 121 100 q 176 322 121 281 q 349 364 231 364 q 547 346 439 364 l 547 101 q 541 65 547 75 q 515 44 535 54 q 344 13 444 13 m 157 840 l 175 840 q 193 846 186 840 l 344 992 l 492 846 q 500 841 496 842 q 510 840 504 840 l 528 840 q 536 843 535 840 q 533 849 538 846 l 368 1010 q 358 1018 361 1017 q 346 1019 354 1019 l 342 1019 q 329 1017 333 1019 q 318 1010 325 1015 l 151 849 q 148 843 147 846 q 157 840 149 840 "},"ä":{"ha":697,"x_min":83,"x_max":583,"o":"m 347 -19 q 539 17 464 -19 q 574 44 565 29 q 583 96 583 60 l 583 474 q 527 667 583 604 q 347 729 471 729 q 106 582 174 729 q 110 567 100 571 l 122 561 q 136 567 132 558 q 347 696 200 696 q 499 643 451 696 q 547 475 547 590 l 547 378 q 351 396 444 396 q 149 346 214 396 q 83 190 83 296 q 147 31 83 82 q 347 -19 210 -19 m 344 13 q 175 56 229 13 q 121 190 121 100 q 176 322 121 281 q 349 364 231 364 q 547 346 439 364 l 547 101 q 541 65 547 75 q 515 44 535 54 q 344 13 444 13 m 219 907 l 225 907 q 247 913 240 907 q 253 935 253 919 l 253 942 q 247 963 253 957 q 225 968 240 968 l 219 968 q 198 963 204 968 q 192 942 192 957 l 192 935 q 198 913 192 918 q 219 907 204 907 m 468 907 l 475 907 q 496 913 490 907 q 501 935 501 919 l 501 942 q 495 963 501 957 q 475 968 489 968 l 468 968 q 447 962 453 968 q 440 942 440 956 l 440 935 q 447 913 440 919 q 468 907 454 907 "},"à":{"ha":697,"x_min":83,"x_max":583,"o":"m 347 -19 q 539 17 464 -19 q 574 44 565 29 q 583 96 583 60 l 583 474 q 527 667 583 604 q 347 729 471 729 q 106 582 174 729 q 110 567 100 571 l 122 561 q 136 567 132 558 q 347 696 200 696 q 499 643 451 696 q 547 475 547 590 l 547 378 q 351 396 444 396 q 149 346 214 396 q 83 190 83 296 q 147 31 83 82 q 347 -19 210 -19 m 344 13 q 175 56 229 13 q 121 190 121 100 q 176 322 121 281 q 349 364 231 364 q 547 346 439 364 l 547 101 q 541 65 547 75 q 515 44 535 54 q 344 13 444 13 m 229 1000 l 426 850 q 442 850 438 843 l 449 857 q 446 872 457 867 l 256 1024 q 246 1029 250 1029 q 236 1024 240 1029 l 226 1014 q 229 1000 219 1006 "},"ā":{"ha":697,"x_min":83,"x_max":583,"o":"m 347 -19 q 539 17 464 -19 q 574 44 565 29 q 583 96 583 60 l 583 474 q 527 667 583 604 q 347 729 471 729 q 106 582 174 729 q 110 567 100 571 l 122 561 q 136 567 132 558 q 347 696 200 696 q 499 643 451 696 q 547 475 547 590 l 547 378 q 351 396 444 396 q 149 346 214 396 q 83 190 83 296 q 147 31 83 82 q 347 -19 210 -19 m 344 13 q 175 56 229 13 q 121 190 121 100 q 176 322 121 281 q 349 364 231 364 q 547 346 439 364 l 547 101 q 541 65 547 75 q 515 44 535 54 q 344 13 444 13 m 188 910 l 496 910 q 506 921 506 910 l 506 931 q 503 938 506 936 q 496 940 501 940 l 188 940 q 180 938 182 940 q 178 931 178 936 l 178 921 q 188 910 178 910 "},"ą":{"ha":697,"x_min":83,"x_max":599,"o":"m 494 -344 q 594 -296 549 -344 q 598 -290 597 -293 q 597 -285 599 -287 l 592 -268 q 583 -267 590 -262 q 501 -312 544 -312 q 442 -267 457 -312 q 436 -236 436 -256 q 567 33 436 -144 q 579 59 575 46 q 583 96 583 72 l 583 474 q 527 667 583 604 q 347 729 471 729 q 106 582 174 729 q 110 567 100 571 l 122 561 q 136 567 131 557 q 347 696 200 696 q 499 643 451 696 q 547 475 547 590 l 547 378 q 351 396 444 396 q 149 346 214 396 q 83 190 83 296 q 147 31 83 82 q 347 -19 210 -19 q 518 10 449 -19 q 401 -243 401 -150 q 408 -283 401 -262 q 494 -344 428 -344 m 344 13 q 174 56 228 13 q 121 190 121 99 q 176 322 121 279 q 349 364 231 364 q 547 346 444 364 l 547 101 q 541 65 547 75 q 515 44 535 54 q 344 13 444 13 "},"å":{"ha":697,"x_min":83,"x_max":583,"o":"m 347 -19 q 539 17 464 -19 q 574 44 565 29 q 583 96 583 60 l 583 474 q 527 667 583 604 q 347 729 471 729 q 106 582 174 729 q 110 567 100 571 l 122 561 q 136 567 132 558 q 347 696 200 696 q 499 643 451 696 q 547 475 547 590 l 547 378 q 351 396 444 396 q 149 346 214 396 q 83 190 83 296 q 147 31 83 82 q 347 -19 210 -19 m 344 13 q 175 56 229 13 q 121 190 121 100 q 176 322 121 281 q 349 364 231 364 q 547 346 439 364 l 547 101 q 541 65 547 75 q 515 44 535 54 q 344 13 444 13 m 343 803 q 428 838 396 803 q 461 928 461 872 q 428 1019 461 985 q 343 1053 396 1053 q 256 1018 290 1053 q 222 928 222 983 q 256 838 222 872 q 343 803 290 803 m 343 828 q 274 855 300 828 q 247 928 247 882 q 274 1001 247 974 q 343 1029 300 1029 q 410 1001 385 1029 q 436 928 436 974 q 410 855 436 882 q 343 828 385 828 "},"ǻ":{"ha":697,"x_min":83,"x_max":583,"o":"m 217 1067 l 449 1154 q 456 1160 454 1157 q 454 1168 457 1163 l 447 1179 q 438 1188 443 1188 q 429 1185 435 1188 l 206 1093 q 197 1085 197 1092 q 199 1079 197 1081 l 203 1071 q 217 1067 207 1063 m 343 803 q 428 837 396 803 q 460 928 460 871 q 428 1019 460 985 q 343 1053 396 1053 q 256 1018 290 1053 q 222 928 222 983 q 256 838 222 872 q 343 803 290 803 m 343 828 q 274 855 300 828 q 247 928 247 882 q 274 1001 247 974 q 343 1029 300 1029 q 410 1001 385 1029 q 436 928 436 974 q 410 855 436 882 q 343 828 385 828 m 347 -19 q 539 17 464 -19 q 574 44 565 29 q 583 96 583 60 l 583 474 q 527 667 583 604 q 347 729 471 729 q 106 582 174 729 q 110 567 100 571 l 122 561 q 136 567 132 558 q 347 696 200 696 q 499 643 451 696 q 547 475 547 590 l 547 378 q 351 396 444 396 q 149 346 214 396 q 83 190 83 296 q 147 31 83 82 q 347 -19 210 -19 m 344 13 q 175 56 229 13 q 121 190 121 100 q 176 322 121 281 q 349 364 231 364 q 547 346 439 364 l 547 101 q 541 65 547 75 q 515 44 535 54 q 344 13 444 13 "},"ã":{"ha":697,"x_min":83,"x_max":583,"o":"m 347 -19 q 539 17 464 -19 q 574 44 565 29 q 583 96 583 60 l 583 474 q 527 667 583 604 q 347 729 471 729 q 106 582 174 729 q 110 567 100 571 l 122 561 q 136 567 132 558 q 347 696 200 696 q 499 643 451 696 q 547 475 547 590 l 547 378 q 351 396 444 396 q 149 346 214 396 q 83 190 83 296 q 147 31 83 82 q 347 -19 210 -19 m 344 13 q 175 56 229 13 q 121 190 121 100 q 176 322 121 281 q 349 364 231 364 q 547 346 439 364 l 547 101 q 541 65 547 75 q 515 44 535 54 q 344 13 444 13 m 161 864 l 174 864 q 181 865 179 864 q 182 872 182 867 q 200 941 182 914 q 249 968 218 968 q 291 956 272 968 q 335 918 310 943 q 383 878 361 892 q 435 864 406 864 q 503 898 479 864 q 528 989 528 932 q 519 997 528 997 l 506 997 q 499 989 499 997 q 482 919 499 946 q 433 892 465 892 q 392 903 410 892 q 349 940 374 915 q 299 983 319 969 q 246 997 278 997 q 178 963 204 997 q 153 872 153 929 q 161 864 153 864 "},"æ":{"ha":1068,"x_min":83,"x_max":979,"o":"m 328 -19 q 470 10 421 -19 q 542 89 519 40 q 736 -19 589 -19 q 847 1 803 -19 q 917 55 890 21 q 969 143 943 89 q 965 158 974 153 l 954 164 q 946 166 949 167 q 939 160 943 165 q 891 78 914 108 q 831 31 868 49 q 736 14 794 14 q 542 244 542 14 l 542 351 l 954 351 q 979 374 979 351 l 979 446 q 923 656 979 582 q 742 729 867 729 q 528 574 572 729 q 467 688 513 647 q 329 729 421 729 q 195 692 249 729 q 106 583 142 656 q 111 568 100 572 l 124 564 q 132 563 129 563 q 138 568 135 564 q 214 663 168 631 q 328 696 260 696 q 441 666 401 696 q 493 588 481 636 q 506 468 506 539 l 506 376 q 449 386 500 378 q 333 394 397 394 q 142 346 200 394 q 83 186 83 297 q 140 28 83 76 q 328 -19 196 -19 m 943 382 l 542 382 l 542 447 q 588 632 542 568 q 742 696 635 696 q 896 632 849 696 q 943 447 943 568 l 943 382 m 326 13 q 168 53 215 13 q 121 186 121 93 q 169 320 121 279 q 331 361 218 361 q 506 343 415 361 l 506 239 q 518 128 506 178 q 326 13 479 13 "},"ǽ":{"ha":1068,"x_min":83,"x_max":979,"o":"m 328 -19 q 470 10 421 -19 q 542 89 519 40 q 736 -19 589 -19 q 847 1 803 -19 q 917 55 890 21 q 969 143 943 89 q 965 158 974 153 l 954 164 q 946 166 949 167 q 939 160 943 165 q 891 78 914 108 q 831 31 868 49 q 736 14 794 14 q 542 244 542 14 l 542 351 l 954 351 q 979 374 979 351 l 979 446 q 923 656 979 582 q 742 729 867 729 q 528 574 572 729 q 467 688 513 647 q 329 729 421 729 q 195 692 249 729 q 106 583 142 656 q 111 568 100 572 l 124 564 q 132 563 129 563 q 138 568 135 564 q 214 663 168 631 q 328 696 260 696 q 441 666 401 696 q 493 588 481 636 q 506 468 506 539 l 506 376 q 449 386 500 378 q 333 394 397 394 q 142 346 200 394 q 83 186 83 297 q 140 28 83 76 q 328 -19 196 -19 m 943 382 l 542 382 l 542 447 q 588 632 542 568 q 742 696 635 696 q 896 632 849 696 q 943 447 943 568 l 943 382 m 326 13 q 168 53 215 13 q 121 186 121 93 q 169 320 121 279 q 331 361 218 361 q 506 343 415 361 l 506 239 q 518 128 506 178 q 326 13 479 13 m 439 851 l 636 1001 q 639 1015 647 1007 l 629 1025 q 610 1025 621 1033 l 419 874 q 417 858 410 867 l 424 851 q 439 851 431 844 "},"b":{"ha":736,"x_min":122,"x_max":633,"o":"m 371 -19 q 633 258 633 -19 l 633 464 q 569 662 633 594 q 382 729 506 729 q 160 671 271 729 l 160 1018 q 158 1026 160 1024 q 150 1028 156 1028 l 132 1028 q 122 1018 122 1028 l 122 96 q 132 49 122 63 q 172 19 142 35 q 371 -19 256 -19 m 371 17 q 271 26 317 17 q 196 51 225 36 q 165 71 171 63 q 160 104 160 79 l 160 633 q 379 693 264 693 q 541 635 486 693 q 596 463 596 576 l 596 258 q 371 17 599 17 "},"c":{"ha":706,"x_min":100,"x_max":629,"o":"m 363 -19 q 531 28 471 -19 q 625 179 590 75 q 618 193 629 190 l 601 199 q 594 199 596 200 q 589 192 592 197 q 508 57 560 99 q 364 15 457 15 q 197 77 256 15 q 138 246 138 139 l 138 465 q 195 633 138 572 q 364 694 253 694 q 511 654 461 694 q 586 524 561 614 q 600 518 589 514 l 615 522 q 621 538 624 526 q 535 681 594 633 q 364 729 475 729 q 167 660 235 729 q 100 465 100 590 l 100 246 q 168 51 100 121 q 363 -19 236 -19 "},"ć":{"ha":706,"x_min":100,"x_max":629,"o":"m 363 -19 q 531 28 471 -19 q 625 179 590 75 q 618 193 629 190 l 601 199 q 594 199 596 200 q 589 192 592 197 q 508 57 560 99 q 364 15 457 15 q 197 77 256 15 q 138 246 138 139 l 138 465 q 195 633 138 572 q 364 694 253 694 q 511 654 461 694 q 586 524 561 614 q 600 518 589 514 l 615 522 q 621 538 624 526 q 535 681 594 633 q 364 729 475 729 q 167 660 235 729 q 100 465 100 590 l 100 246 q 168 51 100 121 q 363 -19 236 -19 m 275 851 l 472 1001 q 475 1015 483 1007 l 465 1025 q 446 1025 457 1033 l 256 874 q 253 858 246 867 l 260 851 q 275 851 267 844 "},"č":{"ha":706,"x_min":100,"x_max":629,"o":"m 363 -19 q 531 28 471 -19 q 625 179 590 75 q 618 193 629 190 l 601 199 q 594 199 596 200 q 589 192 592 197 q 508 57 560 99 q 364 15 457 15 q 197 77 256 15 q 138 246 138 139 l 138 465 q 195 633 138 572 q 364 694 253 694 q 511 654 461 694 q 586 524 561 614 q 600 518 589 514 l 615 522 q 621 538 624 526 q 535 681 594 633 q 364 729 475 729 q 167 660 235 729 q 100 465 100 590 l 100 246 q 168 51 100 121 q 363 -19 236 -19 m 364 839 l 367 839 q 378 841 374 839 q 389 850 382 843 l 556 1011 q 560 1017 561 1014 q 551 1019 560 1019 l 532 1019 q 514 1013 521 1019 l 364 868 l 215 1013 q 207 1019 211 1018 q 197 1019 203 1019 l 181 1019 q 172 1017 172 1019 q 175 1011 171 1014 l 339 850 q 351 841 346 843 q 364 839 356 839 "},"ç":{"ha":706,"x_min":100,"x_max":629,"o":"m 356 -339 q 460 -308 421 -339 q 499 -215 499 -278 q 467 -143 499 -169 q 382 -117 435 -117 q 347 -122 360 -117 l 375 -19 q 534 31 478 -17 q 625 179 590 78 q 618 193 629 190 l 601 199 q 594 199 596 200 q 589 192 592 197 q 508 57 560 99 q 364 15 457 15 q 197 77 256 15 q 138 246 138 139 l 138 465 q 195 633 138 572 q 364 694 253 694 q 511 654 461 694 q 586 524 561 614 q 600 518 589 514 l 615 522 q 621 538 624 526 q 535 681 594 633 q 364 729 475 729 q 167 660 235 729 q 100 465 100 590 l 100 246 q 164 56 100 125 q 347 -19 228 -14 l 313 -137 q 313 -147 311 -143 q 321 -151 315 -151 l 325 -151 q 368 -142 343 -142 q 440 -161 414 -142 q 465 -217 465 -181 q 353 -311 465 -311 q 298 -300 319 -311 q 258 -271 276 -289 q 253 -271 256 -269 q 251 -275 251 -272 l 251 -287 q 253 -299 251 -296 q 260 -307 254 -303 q 356 -339 306 -339 "},"ĉ":{"ha":706,"x_min":100,"x_max":629,"o":"m 363 -19 q 531 28 471 -19 q 625 179 590 75 q 618 193 629 190 l 601 199 q 594 199 596 200 q 589 192 592 197 q 508 57 560 99 q 364 15 457 15 q 197 77 256 15 q 138 246 138 139 l 138 465 q 195 633 138 572 q 364 694 253 694 q 511 654 461 694 q 586 524 561 614 q 600 518 589 514 l 615 522 q 621 538 624 526 q 535 681 594 633 q 364 729 475 729 q 167 660 235 729 q 100 465 100 590 l 100 246 q 168 51 100 121 q 363 -19 236 -19 m 179 840 l 197 840 q 215 846 208 840 l 367 992 l 514 846 q 522 841 518 842 q 532 840 526 840 l 550 840 q 558 843 557 840 q 556 849 560 846 l 390 1010 q 380 1018 383 1017 q 368 1019 376 1019 l 364 1019 q 351 1017 356 1019 q 340 1010 347 1015 l 174 849 q 170 843 169 846 q 179 840 171 840 "},"ċ":{"ha":706,"x_min":100,"x_max":629,"o":"m 363 -19 q 531 28 471 -19 q 625 179 590 75 q 618 193 629 190 l 601 199 q 594 199 596 200 q 589 192 592 197 q 508 57 560 99 q 364 15 457 15 q 197 77 256 15 q 138 246 138 139 l 138 465 q 195 633 138 572 q 364 694 253 694 q 511 654 461 694 q 586 524 561 614 q 600 518 589 514 l 615 522 q 621 538 624 526 q 535 681 594 633 q 364 729 475 729 q 167 660 235 729 q 100 465 100 590 l 100 246 q 168 51 100 121 q 363 -19 236 -19 m 360 907 l 372 907 q 391 913 386 907 q 396 933 396 918 l 396 942 q 390 962 396 956 q 372 968 385 968 l 360 968 q 335 942 335 968 l 335 933 q 340 913 335 918 q 360 907 346 907 "},"d":{"ha":736,"x_min":101,"x_max":613,"o":"m 365 -19 q 564 19 481 -19 q 603 49 594 35 q 613 96 613 63 l 613 1018 q 610 1026 613 1024 q 603 1028 608 1028 l 585 1028 q 575 1018 575 1028 l 575 671 q 478 712 531 694 q 354 729 426 729 q 166 662 231 729 q 101 464 101 594 l 101 258 q 365 -19 101 -19 m 365 17 q 139 258 139 17 l 139 463 q 194 635 139 576 q 357 693 250 693 q 483 674 428 693 q 575 633 539 654 l 575 104 q 569 71 575 79 q 540 51 564 63 q 465 26 511 36 q 365 17 419 17 "},"ð":{"ha":754,"x_min":101,"x_max":638,"o":"m 369 -19 q 569 49 500 -19 q 638 239 638 117 l 638 564 q 609 788 638 696 q 518 936 581 881 l 596 1017 q 600 1023 600 1021 q 596 1029 600 1025 l 588 1036 q 581 1040 583 1040 q 575 1036 579 1040 l 494 954 q 210 1028 396 1028 q 202 1026 204 1028 q 200 1018 200 1024 l 200 1004 q 202 995 200 997 q 210 993 204 993 q 471 926 379 993 l 361 813 q 357 806 357 808 q 361 800 357 804 l 369 793 q 381 793 375 786 l 493 908 q 574 774 549 858 q 601 569 600 690 q 516 672 576 635 q 365 708 456 708 q 169 640 238 708 q 101 449 101 571 l 101 239 q 170 49 101 117 q 369 -19 239 -19 m 369 17 q 198 75 257 17 q 139 239 139 133 l 139 447 q 198 614 139 554 q 369 674 257 674 q 540 615 481 674 q 600 449 600 556 l 600 239 q 540 75 600 133 q 369 17 481 17 "},"ď":{"ha":832,"x_min":101,"x_max":863,"o":"m 365 -19 q 564 19 481 -19 q 603 49 594 35 q 613 96 613 63 l 613 1018 q 610 1026 613 1024 q 603 1028 608 1028 l 585 1028 q 575 1018 575 1028 l 575 671 q 478 712 531 694 q 354 729 426 729 q 166 662 231 729 q 101 464 101 594 l 101 258 q 365 -19 101 -19 m 763 707 l 772 707 q 785 718 783 707 l 858 1017 q 849 1028 863 1028 l 833 1028 q 826 1026 828 1028 q 821 1017 824 1024 l 754 717 q 754 709 753 711 q 763 707 756 707 m 365 17 q 139 258 139 17 l 139 463 q 194 635 139 576 q 357 693 250 693 q 483 674 428 693 q 575 633 539 654 l 575 104 q 569 71 575 79 q 540 51 564 63 q 465 26 511 36 q 365 17 419 17 "},"đ":{"ha":733,"x_min":101,"x_max":724,"o":"m 365 -19 q 564 19 481 -19 q 603 49 594 35 q 613 96 613 63 l 613 865 l 715 865 q 722 867 721 865 q 724 875 724 869 l 724 882 q 722 891 724 889 q 715 893 721 893 l 613 893 l 613 1018 q 610 1026 613 1024 q 603 1028 608 1028 l 585 1028 q 575 1018 575 1028 l 575 893 l 365 893 q 356 882 356 893 l 356 875 q 358 867 356 869 q 365 865 360 865 l 575 865 l 575 671 q 478 712 531 694 q 354 729 426 729 q 166 662 231 729 q 101 464 101 594 l 101 258 q 365 -19 101 -19 m 365 17 q 139 258 139 17 l 139 463 q 194 635 139 576 q 357 693 250 693 q 483 674 428 693 q 575 633 539 654 l 575 104 q 569 71 575 79 q 540 51 564 63 q 465 26 511 36 q 365 17 419 17 "},"e":{"ha":721,"x_min":99,"x_max":629,"o":"m 357 -19 q 622 146 546 -19 q 624 153 625 150 q 618 160 622 157 l 606 167 q 590 163 596 172 q 502 52 557 90 q 357 14 447 14 q 192 76 249 14 q 135 247 135 139 l 135 351 l 607 351 q 629 374 629 351 l 629 443 q 563 653 629 576 q 365 729 496 729 q 167 653 235 729 q 99 442 99 576 l 99 250 q 164 52 99 124 q 357 -19 229 -19 m 593 382 l 135 382 l 135 444 q 194 628 135 561 q 365 696 253 696 q 535 628 478 696 q 593 444 593 561 l 593 382 "},"é":{"ha":721,"x_min":99,"x_max":629,"o":"m 357 -19 q 622 146 546 -19 q 624 153 625 150 q 618 160 622 157 l 606 167 q 590 163 596 172 q 502 52 557 90 q 357 14 447 14 q 192 76 249 14 q 135 247 135 139 l 135 351 l 607 351 q 629 374 629 351 l 629 443 q 563 653 629 576 q 365 729 496 729 q 167 653 235 729 q 99 442 99 576 l 99 250 q 164 52 99 124 q 357 -19 229 -19 m 593 382 l 135 382 l 135 444 q 194 628 135 561 q 365 696 253 696 q 535 628 478 696 q 593 444 593 561 l 593 382 m 276 853 l 474 1003 q 476 1017 485 1008 l 467 1026 q 447 1026 458 1035 l 257 875 q 254 860 247 868 l 261 853 q 276 853 268 846 "},"ĕ":{"ha":721,"x_min":99,"x_max":629,"o":"m 357 -19 q 622 146 546 -19 q 624 153 625 150 q 618 160 622 157 l 606 167 q 590 163 596 172 q 502 52 557 90 q 357 14 447 14 q 192 76 249 14 q 135 247 135 139 l 135 351 l 607 351 q 629 374 629 351 l 629 443 q 563 653 629 576 q 365 729 496 729 q 167 653 235 729 q 99 442 99 576 l 99 250 q 164 52 99 124 q 357 -19 229 -19 m 593 382 l 135 382 l 135 444 q 194 628 135 561 q 365 696 253 696 q 535 628 478 696 q 593 444 593 561 l 593 382 m 365 849 q 483 886 439 849 q 547 1006 526 924 q 548 1013 549 1011 q 542 1018 547 1015 l 528 1022 q 517 1015 521 1024 q 463 913 499 946 q 365 881 426 881 q 269 913 304 881 q 215 1015 233 944 q 206 1022 211 1022 l 203 1022 l 190 1018 q 183 1015 185 1017 q 183 1006 182 1013 q 249 886 206 924 q 365 849 293 849 "},"ě":{"ha":721,"x_min":99,"x_max":629,"o":"m 357 -19 q 622 146 546 -19 q 624 153 625 150 q 618 160 622 157 l 606 167 q 590 163 596 172 q 502 52 557 90 q 357 14 447 14 q 192 76 249 14 q 135 247 135 139 l 135 351 l 607 351 q 629 374 629 351 l 629 443 q 563 653 629 576 q 365 729 496 729 q 167 653 235 729 q 99 442 99 576 l 99 250 q 164 52 99 124 q 357 -19 229 -19 m 593 382 l 135 382 l 135 444 q 194 628 135 561 q 365 696 253 696 q 535 628 478 696 q 593 444 593 561 l 593 382 m 365 840 l 368 840 q 379 842 375 840 q 390 851 383 844 l 557 1013 q 562 1018 563 1015 q 553 1021 561 1021 l 533 1021 q 515 1014 522 1021 l 365 869 l 217 1014 q 208 1020 213 1019 q 199 1021 204 1021 l 182 1021 q 173 1018 174 1021 q 176 1013 172 1015 l 340 851 q 352 842 347 844 q 365 840 357 840 "},"ê":{"ha":721,"x_min":99,"x_max":629,"o":"m 357 -19 q 622 146 546 -19 q 624 153 625 150 q 618 160 622 157 l 606 167 q 590 163 596 172 q 502 52 557 90 q 357 14 447 14 q 192 76 249 14 q 135 247 135 139 l 135 351 l 607 351 q 629 374 629 351 l 629 443 q 563 653 629 576 q 365 729 496 729 q 167 653 235 729 q 99 442 99 576 l 99 250 q 164 52 99 124 q 357 -19 229 -19 m 593 382 l 135 382 l 135 444 q 194 628 135 561 q 365 696 253 696 q 535 628 478 696 q 593 444 593 561 l 593 382 m 179 842 l 197 842 q 215 847 208 842 l 367 993 l 514 847 q 522 842 518 843 q 532 842 526 842 l 550 842 q 558 844 557 842 q 556 850 560 847 l 390 1011 q 380 1019 383 1018 q 368 1021 376 1021 l 364 1021 q 351 1019 356 1021 q 340 1011 347 1017 l 174 850 q 170 844 169 847 q 179 842 171 842 "},"ë":{"ha":721,"x_min":99,"x_max":629,"o":"m 357 -19 q 622 146 546 -19 q 624 153 625 150 q 618 160 622 157 l 606 167 q 590 163 596 172 q 502 52 557 90 q 357 14 447 14 q 192 76 249 14 q 135 247 135 139 l 135 351 l 607 351 q 629 374 629 351 l 629 443 q 563 653 629 576 q 365 729 496 729 q 167 653 235 729 q 99 442 99 576 l 99 250 q 164 52 99 124 q 357 -19 229 -19 m 593 382 l 135 382 l 135 444 q 194 628 135 561 q 365 696 253 696 q 535 628 478 696 q 593 444 593 561 l 593 382 m 242 908 l 247 908 q 269 915 263 908 q 275 936 275 921 l 275 943 q 269 964 275 958 q 247 969 263 969 l 242 969 q 220 964 226 969 q 214 943 214 958 l 214 936 q 220 914 214 919 q 242 908 226 908 m 490 908 l 497 908 q 518 915 513 908 q 524 936 524 921 l 524 943 q 517 964 524 958 q 497 969 511 969 l 490 969 q 469 963 475 969 q 463 943 463 957 l 463 936 q 469 915 463 921 q 490 908 476 908 "},"ė":{"ha":721,"x_min":99,"x_max":629,"o":"m 357 -19 q 622 146 546 -19 q 624 153 625 150 q 618 160 622 157 l 606 167 q 590 163 596 172 q 502 52 557 90 q 357 14 447 14 q 192 76 249 14 q 135 247 135 139 l 135 351 l 607 351 q 629 374 629 351 l 629 443 q 563 653 629 576 q 365 729 496 729 q 167 653 235 729 q 99 442 99 576 l 99 250 q 164 52 99 124 q 357 -19 229 -19 m 593 382 l 135 382 l 135 444 q 194 628 135 561 q 365 696 253 696 q 535 628 478 696 q 593 444 593 561 l 593 382 m 361 908 l 374 908 q 392 914 388 908 q 397 935 397 919 l 397 943 q 392 963 397 957 q 374 969 386 969 l 361 969 q 336 943 336 969 l 336 935 q 342 914 336 919 q 361 908 347 908 "},"è":{"ha":721,"x_min":99,"x_max":629,"o":"m 357 -19 q 622 146 546 -19 q 624 153 625 150 q 618 160 622 157 l 606 167 q 590 163 596 172 q 502 52 557 90 q 357 14 447 14 q 192 76 249 14 q 135 247 135 139 l 135 351 l 607 351 q 629 374 629 351 l 629 443 q 563 653 629 576 q 365 729 496 729 q 167 653 235 729 q 99 442 99 576 l 99 250 q 164 52 99 124 q 357 -19 229 -19 m 593 382 l 135 382 l 135 444 q 194 628 135 561 q 365 696 253 696 q 535 628 478 696 q 593 444 593 561 l 593 382 m 253 1001 l 450 851 q 465 851 461 844 l 472 858 q 469 874 481 868 l 279 1025 q 269 1031 274 1031 q 260 1025 264 1031 l 250 1015 q 253 1001 243 1007 "},"ē":{"ha":721,"x_min":99,"x_max":629,"o":"m 357 -19 q 622 146 546 -19 q 624 153 625 150 q 618 160 622 157 l 606 167 q 590 163 596 172 q 502 52 557 90 q 357 14 447 14 q 192 76 249 14 q 135 247 135 139 l 135 351 l 607 351 q 629 374 629 351 l 629 443 q 563 653 629 576 q 365 729 496 729 q 167 653 235 729 q 99 442 99 576 l 99 250 q 164 52 99 124 q 357 -19 229 -19 m 593 382 l 135 382 l 135 444 q 194 628 135 561 q 365 696 253 696 q 535 628 478 696 q 593 444 593 561 l 593 382 m 211 911 l 519 911 q 529 922 529 911 l 529 932 q 527 940 529 938 q 519 942 525 942 l 211 942 q 203 940 206 942 q 201 932 201 938 l 201 922 q 211 911 201 911 "},"ę":{"ha":721,"x_min":99,"x_max":629,"o":"m 482 -344 q 535 -333 511 -344 q 583 -296 560 -321 q 586 -285 588 -290 l 579 -268 q 572 -267 578 -262 q 490 -312 533 -312 q 440 -294 461 -312 q 419 -237 419 -276 q 462 -97 419 -182 q 564 58 504 -11 q 622 146 600 94 q 624 153 625 150 q 618 160 622 157 l 606 167 q 590 163 596 172 q 502 52 557 90 q 357 14 447 14 q 192 76 249 14 q 135 247 135 139 l 135 351 l 607 351 q 629 374 629 351 l 629 443 q 563 653 629 576 q 365 729 496 729 q 167 653 235 729 q 99 442 99 576 l 99 250 q 164 52 99 124 q 357 -19 229 -19 q 496 11 439 -19 q 415 -123 446 -53 q 385 -244 385 -193 q 413 -320 385 -296 q 482 -344 442 -344 m 593 382 l 135 382 l 135 444 q 194 628 135 561 q 365 696 253 696 q 535 628 478 696 q 593 444 593 561 l 593 382 "},"f":{"ha":443,"x_min":31,"x_max":406,"o":"m 179 0 l 196 0 q 207 10 207 0 l 207 675 l 396 675 q 406 685 406 675 l 406 700 q 396 710 406 710 l 207 710 l 207 763 q 222 906 207 857 q 277 973 238 954 q 394 992 317 992 q 404 1003 404 992 l 404 1017 q 394 1028 404 1028 l 386 1028 q 255 1003 301 1028 q 189 923 208 979 q 169 763 169 867 l 169 710 l 40 710 q 31 700 31 710 l 31 685 q 40 675 31 675 l 169 675 l 169 10 q 172 2 169 4 q 179 0 174 0 "},"g":{"ha":733,"x_min":101,"x_max":610,"o":"m 354 -357 q 610 -58 610 -357 l 610 613 q 601 662 610 647 q 561 690 592 676 q 363 729 478 729 q 101 453 101 729 l 101 249 q 160 53 101 121 q 339 -15 218 -15 q 572 38 475 -15 l 572 -60 q 520 -253 572 -186 q 354 -321 468 -321 q 226 -283 274 -321 q 149 -176 179 -246 q 140 -169 146 -169 q 133 -172 139 -169 l 119 -179 q 117 -194 110 -183 q 206 -314 150 -271 q 354 -357 263 -357 m 342 19 q 188 78 238 19 q 139 250 139 136 l 139 451 q 194 634 139 574 q 363 694 249 694 q 463 684 417 694 q 538 658 508 674 q 567 640 561 649 q 572 606 572 631 l 572 75 q 475 35 529 50 q 342 19 421 19 "},"ğ":{"ha":733,"x_min":101,"x_max":610,"o":"m 354 -357 q 610 -58 610 -357 l 610 613 q 601 662 610 647 q 561 690 592 676 q 363 729 478 729 q 101 453 101 729 l 101 249 q 160 53 101 121 q 339 -15 218 -15 q 572 38 475 -15 l 572 -60 q 520 -253 572 -186 q 354 -321 468 -321 q 226 -283 274 -321 q 149 -176 179 -246 q 140 -169 146 -169 q 133 -172 139 -169 l 119 -179 q 117 -194 110 -183 q 206 -314 150 -271 q 354 -357 263 -357 m 342 19 q 188 78 238 19 q 139 250 139 136 l 139 451 q 194 634 139 574 q 363 694 249 694 q 463 684 417 694 q 538 658 508 674 q 567 640 561 649 q 572 606 572 631 l 572 75 q 475 35 529 50 q 342 19 421 19 m 374 847 q 491 885 447 847 q 556 1004 535 922 q 556 1012 557 1010 q 550 1017 556 1014 l 536 1021 q 525 1014 529 1022 q 471 912 507 944 q 374 879 435 879 q 277 911 313 879 q 224 1014 242 943 q 214 1021 219 1021 l 211 1021 l 199 1017 q 192 1013 193 1015 q 192 1004 190 1011 q 258 885 214 922 q 374 847 301 847 "},"ĝ":{"ha":733,"x_min":101,"x_max":610,"o":"m 354 -357 q 610 -58 610 -357 l 610 613 q 601 662 610 647 q 561 690 592 676 q 363 729 478 729 q 101 453 101 729 l 101 249 q 160 53 101 121 q 339 -15 218 -15 q 572 38 475 -15 l 572 -60 q 520 -253 572 -186 q 354 -321 468 -321 q 226 -283 274 -321 q 149 -176 179 -246 q 140 -169 146 -169 q 133 -172 139 -169 l 119 -179 q 117 -194 110 -183 q 206 -314 150 -271 q 354 -357 263 -357 m 342 19 q 188 78 238 19 q 139 250 139 136 l 139 451 q 194 634 139 574 q 363 694 249 694 q 463 684 417 694 q 538 658 508 674 q 567 640 561 649 q 572 606 572 631 l 572 75 q 475 35 529 50 q 342 19 421 19 m 189 840 l 207 840 q 225 846 218 840 l 376 992 l 524 846 q 532 841 528 842 q 542 840 536 840 l 560 840 q 568 843 567 840 q 565 849 569 846 l 400 1010 q 390 1018 393 1017 q 378 1019 386 1019 l 374 1019 q 361 1017 365 1019 q 350 1010 357 1015 l 183 849 q 180 843 179 846 q 189 840 181 840 "},"ģ":{"ha":733,"x_min":101,"x_max":610,"o":"m 357 817 l 371 817 q 381 819 378 817 q 386 828 385 821 l 458 1010 q 450 1019 463 1019 l 439 1019 q 431 1017 433 1019 q 425 1008 428 1014 l 349 829 q 348 819 346 822 q 357 817 350 817 m 354 -357 q 610 -58 610 -357 l 610 613 q 601 662 610 647 q 561 690 592 676 q 363 729 478 729 q 101 453 101 729 l 101 249 q 160 53 101 121 q 339 -15 218 -15 q 572 38 475 -15 l 572 -60 q 520 -253 572 -186 q 354 -321 468 -321 q 226 -283 274 -321 q 149 -176 179 -246 q 140 -169 146 -169 q 133 -172 139 -169 l 119 -179 q 117 -194 110 -183 q 206 -314 150 -271 q 354 -357 263 -357 m 342 19 q 188 78 238 19 q 139 250 139 136 l 139 451 q 194 634 139 574 q 363 694 249 694 q 463 684 417 694 q 538 658 508 674 q 567 640 561 649 q 572 606 572 631 l 572 75 q 475 35 529 50 q 342 19 421 19 "},"ġ":{"ha":733,"x_min":101,"x_max":610,"o":"m 354 -357 q 610 -58 610 -357 l 610 613 q 601 662 610 647 q 561 690 592 676 q 363 729 478 729 q 101 453 101 729 l 101 249 q 160 53 101 121 q 339 -15 218 -15 q 572 38 475 -15 l 572 -60 q 520 -253 572 -186 q 354 -321 468 -321 q 226 -283 274 -321 q 149 -176 179 -246 q 140 -169 146 -169 q 133 -172 139 -169 l 119 -179 q 117 -194 110 -183 q 206 -314 150 -271 q 354 -357 263 -357 m 342 19 q 188 78 238 19 q 139 250 139 136 l 139 451 q 194 634 139 574 q 363 694 249 694 q 463 684 417 694 q 538 658 508 674 q 567 640 561 649 q 572 606 572 631 l 572 75 q 475 35 529 50 q 342 19 421 19 m 369 907 l 382 907 q 401 913 396 907 q 406 933 406 918 l 406 942 q 400 962 406 956 q 382 968 394 968 l 369 968 q 344 942 344 968 l 344 933 q 350 913 344 918 q 369 907 356 907 "},"h":{"ha":754,"x_min":126,"x_max":635,"o":"m 136 0 l 154 0 q 162 2 160 0 q 164 10 164 4 l 164 638 q 392 694 267 694 q 547 636 497 694 q 597 461 597 578 l 597 10 q 607 0 597 0 l 625 0 q 635 10 635 0 l 635 464 q 396 729 635 729 q 164 675 269 729 l 164 1018 q 162 1026 164 1024 q 154 1028 160 1028 l 136 1028 q 126 1018 126 1028 l 126 10 q 136 0 126 0 "},"ħ":{"ha":753,"x_min":33,"x_max":633,"o":"m 135 0 l 153 0 q 160 2 158 0 q 163 10 163 4 l 163 638 q 390 694 265 694 q 546 636 496 694 q 596 461 596 578 l 596 10 q 606 0 596 0 l 624 0 q 633 10 633 0 l 633 464 q 394 729 633 729 q 163 675 268 729 l 163 874 l 367 874 q 375 876 374 874 q 376 885 376 878 l 376 892 q 375 900 376 899 q 367 901 374 901 l 163 901 l 163 1018 q 160 1026 163 1024 q 153 1028 158 1028 l 135 1028 q 125 1018 125 1028 l 125 901 l 43 901 q 33 892 33 901 l 33 885 q 35 876 33 878 q 43 874 38 874 l 125 874 l 125 10 q 135 0 125 0 "},"ĥ":{"ha":754,"x_min":-49,"x_max":635,"o":"m 136 0 l 154 0 q 162 2 160 0 q 164 10 164 4 l 164 638 q 392 694 267 694 q 547 636 497 694 q 597 461 597 578 l 597 10 q 607 0 597 0 l 625 0 q 635 10 635 0 l 635 464 q 396 729 635 729 q 164 675 269 729 l 164 1018 q 162 1026 164 1024 q 154 1028 160 1028 l 136 1028 q 126 1018 126 1028 l 126 10 q 136 0 126 0 m -39 1075 l -21 1075 q -4 1082 -10 1075 l 147 1226 l 294 1082 q 303 1076 299 1078 q 313 1075 307 1075 l 331 1075 q 338 1083 346 1075 l 172 1244 q 160 1254 164 1253 q 149 1256 157 1256 l 146 1256 q 133 1253 138 1256 q 121 1244 128 1250 l -44 1083 q -48 1078 -49 1081 q -39 1075 -47 1075 "},"i":{"ha":290,"x_min":114,"x_max":176,"o":"m 139 907 l 151 907 q 171 913 165 907 q 176 933 176 919 l 176 942 q 151 968 176 968 l 139 968 q 114 942 114 968 l 114 933 q 119 913 114 918 q 139 907 125 907 m 138 0 l 154 0 q 164 10 164 0 l 164 700 q 154 710 164 710 l 138 710 q 126 700 126 710 l 126 10 q 138 0 126 0 "},"ı":{"ha":290,"x_min":126,"x_max":164,"o":"m 138 0 l 154 0 q 164 10 164 0 l 164 700 q 154 710 164 710 l 138 710 q 126 700 126 710 l 126 10 q 138 0 126 0 "},"í":{"ha":290,"x_min":28,"x_max":265,"o":"m 138 0 l 154 0 q 164 10 164 0 l 164 700 q 154 710 164 710 l 138 710 q 126 700 126 710 l 126 10 q 138 0 126 0 m 57 851 l 254 1001 q 257 1015 265 1007 l 247 1025 q 228 1025 239 1033 l 38 874 q 35 858 28 867 l 42 851 q 57 851 49 844 "},"ĭ":{"ha":290,"x_min":3,"x_max":286,"o":"m 144 838 q 240 874 203 838 q 285 982 276 911 q 285 989 286 986 q 279 993 283 992 l 265 997 q 254 992 256 1000 q 219 900 249 931 q 144 869 190 869 q 69 900 97 869 q 35 992 40 931 q 22 997 33 1000 l 8 993 q 3 989 4 992 q 4 982 3 986 q 49 874 13 911 q 144 838 86 838 m 138 0 l 154 0 q 164 10 164 0 l 164 700 q 154 710 164 710 l 138 710 q 126 700 126 710 l 126 10 q 138 0 126 0 "},"î":{"ha":290,"x_min":-3,"x_max":288,"o":"m 10 839 l 26 839 q 33 839 28 839 q 43 844 39 839 l 144 976 l 244 844 q 252 840 247 840 q 264 839 257 839 l 278 839 q 286 842 285 839 q 283 847 288 844 l 168 994 q 160 1003 164 1000 q 151 1006 157 1006 l 147 1006 l 142 1006 q 129 1004 132 1006 q 119 994 126 1003 l 3 847 q 10 839 -3 839 m 138 0 l 154 0 q 164 10 164 0 l 164 700 q 154 710 164 710 l 138 710 q 126 700 126 710 l 126 10 q 138 0 126 0 "},"ï":{"ha":290,"x_min":38,"x_max":251,"o":"m 60 875 l 68 875 q 86 879 82 875 q 90 897 90 883 l 90 907 q 86 924 90 919 q 68 929 82 929 l 60 929 q 42 924 47 929 q 38 907 38 919 l 38 897 q 42 879 38 883 q 60 875 47 875 m 221 875 l 228 875 q 246 880 240 875 q 251 897 251 885 l 251 907 q 246 924 251 919 q 228 929 240 929 l 221 929 q 201 924 207 929 q 196 907 196 919 l 196 897 q 201 879 196 883 q 221 875 206 875 m 138 0 l 154 0 q 164 10 164 0 l 164 700 q 154 710 164 710 l 138 710 q 126 700 126 710 l 126 10 q 138 0 126 0 "},"ì":{"ha":290,"x_min":24,"x_max":261,"o":"m 138 0 l 154 0 q 164 10 164 0 l 164 700 q 154 710 164 710 l 138 710 q 126 700 126 710 l 126 10 q 138 0 126 0 m 33 1000 l 231 850 q 246 850 242 843 l 253 857 q 250 872 261 867 l 60 1024 q 50 1029 54 1029 q 40 1024 44 1029 l 31 1014 q 33 1000 24 1006 "},"ĳ":{"ha":531,"x_min":114,"x_max":417,"o":"m 139 907 l 151 907 q 171 913 165 907 q 176 933 176 919 l 176 942 q 151 968 176 968 l 139 968 q 114 942 114 968 l 114 933 q 119 913 114 918 q 139 907 125 907 m 138 0 l 154 0 q 164 10 164 0 l 164 700 q 154 710 164 710 l 138 710 q 126 700 126 710 l 126 10 q 138 0 126 0 "},"ī":{"ha":290,"x_min":33,"x_max":254,"o":"m 43 874 l 244 874 q 253 876 251 874 q 254 883 254 878 l 254 893 q 252 902 254 900 q 244 904 250 904 l 43 904 q 33 893 33 904 l 33 883 q 35 876 33 878 q 43 874 38 874 m 138 0 l 154 0 q 164 10 164 0 l 164 700 q 154 710 164 710 l 138 710 q 126 700 126 710 l 126 10 q 138 0 126 0 "},"į":{"ha":290,"x_min":46,"x_max":238,"o":"m 142 907 l 149 907 q 176 935 176 907 l 176 942 q 170 963 176 957 q 149 969 164 969 l 142 969 q 120 963 126 969 q 114 942 114 957 l 114 935 q 120 913 114 919 q 142 907 126 907 m 139 -342 q 189 -329 164 -342 q 231 -289 214 -317 q 232 -278 238 -283 l 225 -269 q 215 -268 218 -265 q 146 -312 192 -312 q 106 -294 124 -312 q 86 -250 88 -276 q 110 -108 81 -185 q 163 3 140 -32 q 164 10 164 3 l 164 700 q 154 710 164 710 l 138 710 q 126 700 126 710 l 126 10 q 132 3 126 4 q 76 -113 107 -35 q 53 -258 46 -192 q 80 -318 56 -294 q 139 -342 104 -342 "},"ĩ":{"ha":290,"x_min":1,"x_max":285,"o":"m 10 842 l 19 842 q 26 850 26 842 q 39 920 26 899 q 79 942 51 942 q 114 930 101 942 q 139 894 126 918 q 170 855 156 868 q 213 842 185 842 q 267 870 250 842 q 285 964 285 899 q 276 972 285 972 l 267 972 q 258 964 258 972 q 247 892 258 914 q 210 871 236 871 q 176 883 189 871 q 153 917 164 894 q 120 959 135 946 q 76 972 106 972 q 19 944 38 972 q 1 850 1 915 q 10 842 1 842 m 138 0 l 154 0 q 164 10 164 0 l 164 700 q 154 710 164 710 l 138 710 q 126 700 126 710 l 126 10 q 138 0 126 0 "},"j":{"ha":290,"x_min":-64,"x_max":176,"o":"m -54 -319 q 91 -286 44 -319 q 151 -192 138 -253 q 164 -17 164 -131 l 164 700 q 154 710 164 710 l 136 710 q 126 700 126 710 l 126 -17 q 117 -173 126 -121 q 69 -254 107 -225 q -54 -283 31 -283 q -64 -294 -64 -283 l -64 -308 q -54 -319 -64 -319 m 140 907 l 153 907 q 172 913 167 907 q 176 933 176 918 l 176 942 q 171 962 176 956 q 153 968 165 968 l 140 968 q 115 942 115 968 l 115 933 q 121 913 115 918 q 140 907 126 907 "},"ȷ":{"ha":290,"x_min":-64,"x_max":164,"o":"m -54 -319 q 91 -286 44 -319 q 151 -192 138 -253 q 164 -17 164 -131 l 164 700 q 154 710 164 710 l 136 710 q 126 700 126 710 l 126 -17 q 117 -173 126 -121 q 69 -254 107 -225 q -54 -283 31 -283 q -64 -294 -64 -283 l -64 -308 q -54 -319 -64 -319 "},"ĵ":{"ha":290,"x_min":-64,"x_max":300,"o":"m -4 825 l 14 825 q 24 826 19 825 q 32 831 28 826 l 144 974 l 254 831 q 263 826 258 826 q 274 825 268 825 l 290 825 q 299 828 299 825 q 296 833 300 831 l 169 992 q 160 1000 164 999 q 151 1001 157 1001 l 147 1001 l 142 1001 q 136 1001 140 1001 q 128 1000 132 1001 q 119 992 125 999 l -8 833 q -10 828 -11 831 q -4 825 -10 825 m -54 -319 q 91 -286 44 -319 q 151 -192 138 -253 q 164 -17 164 -131 l 164 700 q 154 710 164 710 l 136 710 q 126 700 126 710 l 126 -17 q 117 -173 126 -121 q 69 -254 107 -225 q -54 -283 31 -283 q -64 -294 -64 -283 l -64 -308 q -54 -319 -64 -319 "},"k":{"ha":679,"x_min":126,"x_max":625,"o":"m 136 0 l 154 0 q 164 11 164 0 l 164 349 l 338 349 q 420 326 389 349 q 474 251 451 303 l 581 8 q 587 1 583 3 q 599 0 590 0 l 614 0 q 621 11 625 0 l 507 268 q 459 342 486 315 q 388 376 432 368 l 608 697 q 601 710 617 710 l 586 710 q 575 708 579 710 q 567 701 571 707 l 350 383 l 336 383 l 164 383 l 164 1017 q 154 1028 164 1028 l 136 1028 q 126 1017 126 1028 l 126 11 q 136 0 126 0 "},"ķ":{"ha":679,"x_min":126,"x_max":625,"o":"m 136 0 l 154 0 q 164 11 164 0 l 164 349 l 338 349 q 420 326 389 349 q 474 251 451 303 l 581 8 q 587 1 583 3 q 599 0 590 0 l 614 0 q 621 11 625 0 l 507 268 q 459 342 486 315 q 388 376 432 368 l 608 697 q 601 710 617 710 l 586 710 q 575 708 579 710 q 567 701 571 707 l 350 383 l 336 383 l 164 383 l 164 1017 q 154 1028 164 1028 l 136 1028 q 126 1017 126 1028 l 126 11 q 136 0 126 0 m 275 -337 l 286 -337 q 294 -335 292 -337 q 300 -326 297 -333 l 365 -125 q 356 -114 369 -114 l 340 -114 q 331 -116 333 -114 q 326 -125 328 -118 l 267 -328 q 275 -337 263 -337 "},"ĸ":{"ha":619,"x_min":126,"x_max":569,"o":"m 136 0 l 154 0 q 164 11 164 0 l 164 231 l 299 386 l 526 10 q 532 1 529 3 q 543 0 535 0 l 560 0 q 569 6 569 0 q 567 14 569 8 l 324 413 l 556 697 q 550 710 564 710 l 532 710 q 519 708 522 710 q 511 700 517 707 l 164 281 l 164 700 q 162 708 164 706 q 154 710 160 710 l 136 710 q 126 700 126 710 l 126 11 q 136 0 126 0 "},"l":{"ha":301,"x_min":132,"x_max":169,"o":"m 140 0 l 161 0 q 169 10 169 0 l 169 1018 q 161 1028 169 1028 l 140 1028 q 132 1018 132 1028 l 132 10 q 140 0 132 0 "},"ĺ":{"ha":301,"x_min":33,"x_max":267,"o":"m 140 0 l 161 0 q 169 10 169 0 l 169 1018 q 161 1028 169 1028 l 140 1028 q 132 1018 132 1028 l 132 10 q 140 0 132 0 m 63 1043 l 260 1193 q 266 1199 265 1196 q 263 1207 267 1201 l 253 1217 q 233 1217 243 1224 l 43 1065 q 40 1050 33 1058 l 47 1043 q 63 1043 54 1036 "},"ľ":{"ha":281,"x_min":131,"x_max":372,"o":"m 139 0 l 160 0 q 168 10 168 0 l 168 1018 q 160 1028 168 1028 l 139 1028 q 131 1018 131 1028 l 131 10 q 139 0 131 0 m 286 749 l 296 749 q 305 751 303 749 q 308 758 307 753 l 368 1017 q 358 1028 372 1028 l 342 1028 q 333 1026 335 1028 q 329 1017 331 1024 l 278 758 q 278 751 276 753 q 286 749 281 749 "},"ļ":{"ha":301,"x_min":74,"x_max":181,"o":"m 140 0 l 161 0 q 169 10 169 0 l 169 1018 q 161 1028 169 1028 l 140 1028 q 132 1018 132 1028 l 132 10 q 140 0 132 0 m 86 -337 l 97 -337 q 106 -335 103 -337 q 111 -326 108 -333 l 176 -125 q 167 -114 181 -114 l 151 -114 q 142 -116 144 -114 q 138 -125 139 -118 l 78 -328 q 86 -337 74 -337 "},"ŀ":{"ha":413,"x_min":132,"x_max":369,"o":"m 140 0 l 161 0 q 169 10 169 0 l 169 1018 q 161 1028 169 1028 l 140 1028 q 132 1018 132 1028 l 132 10 q 140 0 132 0 m 333 488 l 339 488 q 363 494 356 488 q 369 517 369 500 l 369 522 q 363 545 369 539 q 339 551 356 551 l 333 551 q 310 545 317 551 q 304 522 304 539 l 304 517 q 310 493 304 499 q 333 488 317 488 "},"ł":{"ha":386,"x_min":35,"x_max":350,"o":"m 181 0 l 197 0 q 207 10 207 0 l 207 511 l 342 593 q 348 599 346 596 q 347 606 350 601 l 340 615 q 334 620 336 619 q 326 617 332 621 l 207 546 l 207 1018 q 197 1028 207 1028 l 181 1028 q 169 1018 169 1028 l 169 525 l 42 449 q 39 436 35 444 l 46 425 q 50 420 47 421 q 57 422 53 419 l 169 489 l 169 10 q 181 0 169 0 "},"m":{"ha":1142,"x_min":122,"x_max":1021,"o":"m 133 0 l 150 0 q 158 2 156 0 q 160 10 160 4 l 160 603 q 165 635 160 622 q 190 657 171 647 q 267 685 228 676 q 364 694 307 694 q 512 647 465 694 q 558 486 558 599 l 558 10 q 569 0 558 0 l 586 0 q 596 10 596 0 l 596 489 q 571 622 596 572 q 660 675 615 656 q 783 694 706 694 q 935 640 888 694 q 983 471 983 585 l 983 10 q 994 0 983 0 l 1011 0 q 1021 10 1021 0 l 1021 472 q 964 665 1021 600 q 786 729 907 729 q 650 709 700 729 q 553 654 600 689 q 367 729 499 729 q 172 689 253 729 q 133 657 144 674 q 122 610 122 640 l 122 10 q 133 0 122 0 "},"n":{"ha":750,"x_min":122,"x_max":631,"o":"m 132 0 l 150 0 q 158 2 156 0 q 160 10 160 4 l 160 603 q 166 633 160 621 q 190 654 172 644 q 275 683 224 671 q 388 694 326 694 q 543 635 493 694 q 593 461 593 576 l 593 10 q 603 0 593 0 l 621 0 q 631 10 631 0 l 631 464 q 392 729 631 729 q 169 685 267 729 q 132 657 142 672 q 122 610 122 642 l 122 10 q 132 0 122 0 "},"ń":{"ha":750,"x_min":122,"x_max":631,"o":"m 132 0 l 150 0 q 158 2 156 0 q 160 10 160 4 l 160 603 q 166 633 160 621 q 190 654 172 644 q 275 683 224 671 q 388 694 326 694 q 543 635 493 694 q 593 461 593 576 l 593 10 q 603 0 593 0 l 621 0 q 631 10 631 0 l 631 464 q 392 729 631 729 q 169 685 267 729 q 132 657 142 672 q 122 610 122 642 l 122 10 q 132 0 122 0 m 282 853 l 479 1003 q 482 1017 490 1008 l 472 1026 q 453 1026 464 1035 l 263 875 q 260 860 253 868 l 267 853 q 282 853 274 846 "},"ŉ":{"ha":750,"x_min":100,"x_max":631,"o":"m 110 788 l 121 788 q 131 790 128 788 q 136 797 133 792 l 204 1004 q 196 1015 211 1015 l 179 1015 q 171 1013 174 1015 q 165 1006 168 1011 l 106 799 q 110 788 100 788 m 132 0 l 150 0 q 158 2 156 0 q 160 10 160 4 l 160 603 q 166 633 160 621 q 190 654 172 644 q 275 683 224 671 q 388 694 326 694 q 543 635 493 694 q 593 461 593 576 l 593 10 q 603 0 593 0 l 621 0 q 631 10 631 0 l 631 464 q 392 729 631 729 q 169 685 267 729 q 132 657 142 672 q 122 610 122 642 l 122 10 q 132 0 122 0 "},"ň":{"ha":750,"x_min":122,"x_max":631,"o":"m 132 0 l 150 0 q 158 2 156 0 q 160 10 160 4 l 160 603 q 166 633 160 621 q 190 654 172 644 q 275 683 224 671 q 388 694 326 694 q 543 635 493 694 q 593 461 593 576 l 593 10 q 603 0 593 0 l 621 0 q 631 10 631 0 l 631 464 q 392 729 631 729 q 169 685 267 729 q 132 657 142 672 q 122 610 122 642 l 122 10 q 132 0 122 0 m 371 840 l 374 840 q 385 842 381 840 q 396 851 389 844 l 563 1013 q 567 1018 568 1015 q 558 1021 567 1021 l 539 1021 q 521 1014 528 1021 l 371 869 l 222 1014 q 214 1020 218 1019 q 204 1021 210 1021 l 188 1021 q 178 1018 179 1021 q 182 1013 178 1015 l 346 851 q 358 842 353 844 q 371 840 363 840 "},"ņ":{"ha":750,"x_min":122,"x_max":631,"o":"m 132 0 l 150 0 q 158 2 156 0 q 160 10 160 4 l 160 603 q 166 633 160 621 q 190 654 172 644 q 275 683 224 671 q 388 694 326 694 q 543 635 493 694 q 593 461 593 576 l 593 10 q 603 0 593 0 l 621 0 q 631 10 631 0 l 631 464 q 392 729 631 729 q 169 685 267 729 q 132 657 142 672 q 122 610 122 642 l 122 10 q 132 0 122 0 m 310 -337 l 321 -337 q 329 -335 326 -337 q 335 -326 332 -333 l 400 -125 q 390 -114 404 -114 l 375 -114 q 365 -116 368 -114 q 361 -125 363 -118 l 301 -328 q 310 -337 297 -337 "},"ŋ":{"ha":750,"x_min":122,"x_max":631,"o":"m 388 -315 q 535 -284 482 -315 q 609 -192 588 -253 q 631 -33 631 -132 l 631 464 q 392 729 631 729 q 169 685 267 729 q 132 657 142 672 q 122 610 122 642 l 122 10 q 132 0 122 0 l 150 0 q 158 2 156 0 q 160 10 160 4 l 160 603 q 166 633 160 621 q 190 654 172 644 q 275 683 224 671 q 388 694 326 694 q 543 635 493 694 q 593 461 593 576 l 593 -32 q 576 -173 593 -119 q 514 -253 558 -226 q 388 -281 469 -281 q 380 -283 382 -281 q 378 -290 378 -285 l 378 -306 q 380 -313 378 -311 q 388 -315 382 -315 "},"ñ":{"ha":750,"x_min":122,"x_max":631,"o":"m 132 0 l 150 0 q 158 2 156 0 q 160 10 160 4 l 160 603 q 166 633 160 621 q 190 654 172 644 q 275 683 224 671 q 388 694 326 694 q 543 635 493 694 q 593 461 593 576 l 593 10 q 603 0 593 0 l 621 0 q 631 10 631 0 l 631 464 q 392 729 631 729 q 169 685 267 729 q 132 657 142 672 q 122 610 122 642 l 122 10 q 132 0 122 0 m 192 865 l 204 865 q 211 867 210 865 q 213 874 213 868 q 231 942 213 915 q 279 969 249 969 q 322 957 303 969 q 365 919 340 944 q 414 879 392 893 q 465 865 436 865 q 534 899 510 865 q 558 990 558 933 q 550 999 558 999 l 536 999 q 529 990 529 999 q 513 920 529 947 q 464 893 496 893 q 422 905 440 893 q 379 942 404 917 q 329 985 350 971 q 276 999 308 999 q 209 965 235 999 q 183 874 183 931 q 192 865 183 865 "},"o":{"ha":738,"x_min":103,"x_max":635,"o":"m 368 -19 q 563 44 490 -19 q 635 217 635 107 l 635 493 q 562 665 635 601 q 368 729 489 729 q 176 665 249 729 q 103 493 103 601 l 103 217 q 176 44 103 107 q 368 -19 249 -19 m 368 15 q 203 70 267 15 q 140 215 140 125 l 140 494 q 203 640 140 586 q 368 694 265 694 q 535 640 472 694 q 597 494 597 586 l 597 215 q 535 69 597 124 q 368 15 472 15 "},"ó":{"ha":738,"x_min":103,"x_max":635,"o":"m 368 -19 q 563 44 490 -19 q 635 217 635 107 l 635 493 q 562 665 635 601 q 368 729 489 729 q 176 665 249 729 q 103 493 103 601 l 103 217 q 176 44 103 107 q 368 -19 249 -19 m 368 15 q 203 70 267 15 q 140 215 140 125 l 140 494 q 203 640 140 586 q 368 694 265 694 q 535 640 472 694 q 597 494 597 586 l 597 215 q 535 69 597 124 q 368 15 472 15 m 279 851 l 476 1001 q 479 1015 488 1007 l 469 1025 q 450 1025 461 1033 l 260 874 q 257 858 250 867 l 264 851 q 279 851 271 844 "},"ŏ":{"ha":738,"x_min":103,"x_max":635,"o":"m 368 -19 q 563 44 490 -19 q 635 217 635 107 l 635 493 q 562 665 635 601 q 368 729 489 729 q 176 665 249 729 q 103 493 103 601 l 103 217 q 176 44 103 107 q 368 -19 249 -19 m 368 15 q 203 70 267 15 q 140 215 140 125 l 140 494 q 203 640 140 586 q 368 694 265 694 q 535 640 472 694 q 597 494 597 586 l 597 215 q 535 69 597 124 q 368 15 472 15 m 368 847 q 485 885 442 847 q 550 1004 529 922 q 551 1012 551 1010 q 544 1017 550 1014 l 531 1021 q 519 1014 524 1022 q 465 912 501 944 q 368 879 429 879 q 272 911 307 879 q 218 1014 236 943 q 208 1021 214 1021 l 206 1021 l 193 1017 q 186 1013 188 1015 q 186 1004 185 1011 q 252 885 208 922 q 368 847 296 847 "},"ô":{"ha":738,"x_min":103,"x_max":635,"o":"m 368 -19 q 563 44 490 -19 q 635 217 635 107 l 635 493 q 562 665 635 601 q 368 729 489 729 q 176 665 249 729 q 103 493 103 601 l 103 217 q 176 44 103 107 q 368 -19 249 -19 m 368 15 q 203 70 267 15 q 140 215 140 125 l 140 494 q 203 640 140 586 q 368 694 265 694 q 535 640 472 694 q 597 494 597 586 l 597 215 q 535 69 597 124 q 368 15 472 15 m 182 840 l 200 840 q 218 846 211 840 l 369 992 l 517 846 q 525 841 521 842 q 535 840 529 840 l 553 840 q 561 843 560 840 q 558 849 563 846 l 393 1010 q 383 1018 386 1017 q 371 1019 379 1019 l 367 1019 q 354 1017 358 1019 q 343 1010 350 1015 l 176 849 q 173 843 172 846 q 182 840 174 840 "},"ö":{"ha":738,"x_min":103,"x_max":635,"o":"m 368 -19 q 563 44 490 -19 q 635 217 635 107 l 635 493 q 562 665 635 601 q 368 729 489 729 q 176 665 249 729 q 103 493 103 601 l 103 217 q 176 44 103 107 q 368 -19 249 -19 m 368 15 q 203 70 267 15 q 140 215 140 125 l 140 494 q 203 640 140 586 q 368 694 265 694 q 535 640 472 694 q 597 494 597 586 l 597 215 q 535 69 597 124 q 368 15 472 15 m 244 907 l 250 907 q 272 913 265 907 q 278 935 278 919 l 278 942 q 272 963 278 957 q 250 968 265 968 l 244 968 q 223 963 229 968 q 217 942 217 957 l 217 935 q 223 913 217 918 q 244 907 229 907 m 493 907 l 500 907 q 521 913 515 907 q 526 935 526 919 l 526 942 q 520 963 526 957 q 500 968 514 968 l 493 968 q 472 962 478 968 q 465 942 465 956 l 465 935 q 472 913 465 919 q 493 907 479 907 "},"ò":{"ha":738,"x_min":103,"x_max":635,"o":"m 368 -19 q 563 44 490 -19 q 635 217 635 107 l 635 493 q 562 665 635 601 q 368 729 489 729 q 176 665 249 729 q 103 493 103 601 l 103 217 q 176 44 103 107 q 368 -19 249 -19 m 368 15 q 203 70 267 15 q 140 215 140 125 l 140 494 q 203 640 140 586 q 368 694 265 694 q 535 640 472 694 q 597 494 597 586 l 597 215 q 535 69 597 124 q 368 15 472 15 m 256 1000 l 453 850 q 468 850 464 843 l 475 857 q 472 872 483 867 l 282 1024 q 272 1029 276 1029 q 263 1024 267 1029 l 253 1014 q 256 1000 246 1006 "},"ő":{"ha":738,"x_min":103,"x_max":635,"o":"m 368 -19 q 563 44 490 -19 q 635 217 635 107 l 635 493 q 562 665 635 601 q 368 729 489 729 q 176 665 249 729 q 103 493 103 601 l 103 217 q 176 44 103 107 q 368 -19 249 -19 m 368 15 q 203 70 267 15 q 140 215 140 125 l 140 494 q 203 640 140 586 q 368 694 265 694 q 535 640 472 694 q 597 494 597 586 l 597 215 q 535 69 597 124 q 368 15 472 15 m 210 844 l 217 842 q 226 841 222 840 q 233 846 229 842 l 372 1010 q 368 1021 378 1017 l 354 1026 q 336 1018 344 1028 l 207 858 q 210 844 199 849 m 419 844 l 426 840 q 434 840 431 839 q 443 846 438 840 l 588 1006 q 590 1013 590 1008 q 583 1018 589 1017 l 569 1022 q 551 1015 558 1026 l 417 857 q 413 849 413 853 q 419 844 414 846 "},"ō":{"ha":738,"x_min":103,"x_max":635,"o":"m 368 -19 q 563 44 490 -19 q 635 217 635 107 l 635 493 q 562 665 635 601 q 368 729 489 729 q 176 665 249 729 q 103 493 103 601 l 103 217 q 176 44 103 107 q 368 -19 249 -19 m 368 15 q 203 70 267 15 q 140 215 140 125 l 140 494 q 203 640 140 586 q 368 694 265 694 q 535 640 472 694 q 597 494 597 586 l 597 215 q 535 69 597 124 q 368 15 472 15 m 214 910 l 522 910 q 532 921 532 910 l 532 931 q 530 938 532 936 q 522 940 528 940 l 214 940 q 206 938 208 940 q 204 931 204 936 l 204 921 q 214 910 204 910 "},"ø":{"ha":738,"x_min":103,"x_max":635,"o":"m 118 -51 l 138 -51 q 145 -50 143 -51 q 149 -46 147 -49 l 194 31 q 368 -19 261 -19 q 563 44 490 -19 q 635 217 635 107 l 635 493 q 571 658 635 594 l 629 758 q 628 764 631 764 l 607 764 q 597 760 601 764 l 549 676 q 368 729 479 729 q 176 665 249 729 q 103 493 103 601 l 103 217 q 171 47 103 113 l 117 -46 q 115 -49 114 -47 q 118 -51 115 -51 m 529 646 l 194 86 q 140 219 140 140 l 140 494 q 203 640 140 586 q 368 694 265 694 q 529 646 468 694 m 368 15 q 214 63 274 15 l 547 621 q 597 489 597 568 l 597 215 q 535 69 597 124 q 368 15 472 15 "},"ǿ":{"ha":738,"x_min":103,"x_max":635,"o":"m 118 -51 l 138 -51 q 145 -50 143 -51 q 149 -46 147 -49 l 194 31 q 368 -19 261 -19 q 563 44 490 -19 q 635 217 635 107 l 635 493 q 571 658 635 594 l 629 758 q 628 764 631 764 l 607 764 q 597 760 601 764 l 549 676 q 368 729 479 729 q 176 665 249 729 q 103 493 103 601 l 103 217 q 171 47 103 113 l 117 -46 q 115 -49 114 -47 q 118 -51 115 -51 m 529 646 l 194 86 q 140 219 140 140 l 140 494 q 203 640 140 586 q 368 694 265 694 q 529 646 468 694 m 368 15 q 214 63 274 15 l 547 621 q 597 489 597 568 l 597 215 q 535 69 597 124 q 368 15 472 15 m 281 851 l 478 1001 q 481 1015 489 1007 l 471 1025 q 451 1025 463 1033 l 261 874 q 258 858 251 867 l 265 851 q 281 851 272 844 "},"õ":{"ha":738,"x_min":103,"x_max":635,"o":"m 368 -19 q 563 44 490 -19 q 635 217 635 107 l 635 493 q 562 665 635 601 q 368 729 489 729 q 176 665 249 729 q 103 493 103 601 l 103 217 q 176 44 103 107 q 368 -19 249 -19 m 368 15 q 203 70 267 15 q 140 215 140 125 l 140 494 q 203 640 140 586 q 368 694 265 694 q 535 640 472 694 q 597 494 597 586 l 597 215 q 535 69 597 124 q 368 15 472 15 m 188 864 l 200 864 q 207 865 206 864 q 208 872 208 867 q 226 941 208 914 q 275 968 244 968 q 317 956 299 968 q 361 918 336 943 q 410 878 388 892 q 461 864 432 864 q 530 898 506 864 q 554 989 554 932 q 546 997 554 997 l 532 997 q 525 989 525 997 q 508 919 525 946 q 460 892 492 892 q 418 903 436 892 q 375 940 400 915 q 325 983 346 969 q 272 997 304 997 q 205 963 231 997 q 179 872 179 929 q 188 864 179 864 "},"œ":{"ha":1129,"x_min":103,"x_max":1040,"o":"m 347 -19 q 492 20 433 -19 q 574 133 551 60 q 649 19 594 58 q 797 -19 704 -19 q 906 1 863 -19 q 976 55 949 21 q 1031 143 1003 89 q 1026 158 1035 154 l 1014 165 q 999 160 1006 169 q 949 78 972 108 q 889 31 925 49 q 797 14 853 14 q 640 74 689 14 q 590 244 590 133 l 590 351 l 1015 351 q 1040 374 1040 351 l 1040 446 q 982 655 1040 581 q 800 729 924 729 q 651 689 706 729 q 575 571 597 649 q 495 688 556 646 q 347 729 435 729 q 224 701 279 729 q 135 619 168 672 q 103 494 103 565 l 103 215 q 135 91 103 144 q 224 9 168 38 q 347 -19 279 -19 m 1004 382 l 590 382 l 590 447 q 638 632 590 568 q 800 696 686 696 q 1004 447 1004 696 l 1004 382 m 347 14 q 244 39 292 14 q 169 109 197 64 q 140 214 140 154 l 140 496 q 168 601 140 556 q 244 672 196 647 q 347 696 292 696 q 498 642 442 696 q 554 496 554 588 l 554 214 q 498 68 554 122 q 347 14 442 14 "},"p":{"ha":733,"x_min":122,"x_max":631,"o":"m 132 -306 l 150 -306 q 158 -303 156 -306 q 160 -296 160 -301 l 160 43 q 260 1 199 21 q 394 -19 321 -19 q 631 244 631 -19 l 631 453 q 371 729 631 729 q 172 690 258 729 q 132 661 142 675 q 122 614 122 647 l 122 -296 q 132 -306 122 -306 m 390 17 q 258 38 318 17 q 160 81 197 58 l 160 606 q 166 639 160 631 q 196 658 172 647 q 272 684 225 674 q 371 694 318 694 q 539 634 485 694 q 593 451 593 574 l 593 246 q 390 17 593 17 "},"þ":{"ha":736,"x_min":126,"x_max":635,"o":"m 136 -306 l 154 -306 q 164 -296 164 -306 l 164 47 q 263 2 201 24 q 396 -19 324 -19 q 576 49 517 -19 q 635 246 635 118 l 635 453 q 571 658 635 588 q 378 729 507 729 q 253 710 307 729 q 164 671 200 692 l 164 1018 q 154 1028 164 1028 l 136 1028 q 126 1018 126 1028 l 126 -296 q 136 -306 126 -306 m 394 15 q 260 39 322 15 q 164 86 197 63 l 164 635 q 375 694 264 694 q 597 451 597 694 l 597 247 q 394 15 597 15 "},"q":{"ha":733,"x_min":101,"x_max":611,"o":"m 583 -306 l 600 -306 q 611 -296 611 -306 l 611 614 q 601 661 611 647 q 561 690 592 675 q 363 729 475 729 q 101 453 101 729 l 101 244 q 160 49 101 117 q 339 -19 218 -19 q 474 1 413 -19 q 574 43 535 21 l 574 -296 q 576 -303 574 -301 q 583 -306 578 -306 m 342 17 q 139 246 139 17 l 139 451 q 194 634 139 574 q 363 694 249 694 q 462 684 415 694 q 538 658 508 674 q 567 639 561 647 q 574 606 574 631 l 574 81 q 475 38 536 58 q 342 17 414 17 "},"r":{"ha":478,"x_min":122,"x_max":438,"o":"m 132 0 l 151 0 q 160 10 160 0 l 160 582 q 166 614 160 601 q 190 636 172 626 q 269 664 221 653 q 375 675 318 675 l 429 675 q 436 677 435 675 q 438 686 438 679 l 438 700 q 429 710 438 710 l 376 710 q 167 668 253 710 q 131 640 140 656 q 122 590 122 624 l 122 10 q 132 0 122 0 "},"ŕ":{"ha":478,"x_min":122,"x_max":438,"o":"m 132 0 l 151 0 q 160 10 160 0 l 160 582 q 166 614 160 601 q 190 636 172 626 q 269 664 221 653 q 375 675 318 675 l 429 675 q 436 677 435 675 q 438 686 438 679 l 438 700 q 429 710 438 710 l 376 710 q 167 668 253 710 q 131 640 140 656 q 122 590 122 624 l 122 10 q 132 0 122 0 m 179 851 l 376 1001 q 379 1015 388 1007 l 369 1025 q 350 1025 361 1033 l 160 874 q 157 858 150 867 l 164 851 q 179 851 171 844 "},"ř":{"ha":478,"x_min":75,"x_max":465,"o":"m 132 0 l 151 0 q 160 10 160 0 l 160 582 q 166 614 160 601 q 190 636 172 626 q 269 664 221 653 q 375 675 318 675 l 429 675 q 436 677 435 675 q 438 686 438 679 l 438 700 q 429 710 438 710 l 376 710 q 167 668 253 710 q 131 640 140 656 q 122 590 122 624 l 122 10 q 132 0 122 0 m 268 839 l 271 839 q 282 841 278 839 q 293 850 286 843 l 460 1011 q 465 1017 465 1014 q 456 1019 464 1019 l 436 1019 q 418 1013 425 1019 l 268 868 l 119 1013 q 111 1019 115 1018 q 101 1019 107 1019 l 85 1019 q 76 1017 76 1019 q 79 1011 75 1014 l 243 850 q 255 841 250 843 q 268 839 260 839 "},"ŗ":{"ha":478,"x_min":60,"x_max":438,"o":"m 132 0 l 151 0 q 160 10 160 0 l 160 582 q 166 614 160 601 q 190 636 172 626 q 269 664 221 653 q 375 675 318 675 l 429 675 q 436 677 435 675 q 438 686 438 679 l 438 700 q 429 710 438 710 l 376 710 q 167 668 253 710 q 131 640 140 656 q 122 590 122 624 l 122 10 q 132 0 122 0 m 72 -337 l 83 -337 q 92 -335 89 -337 q 97 -326 94 -333 l 163 -125 q 153 -114 167 -114 l 138 -114 q 128 -116 131 -114 q 124 -125 125 -118 l 64 -328 q 72 -337 60 -337 "},"s":{"ha":674,"x_min":76,"x_max":589,"o":"m 343 -19 q 527 32 465 -19 q 589 176 589 83 q 558 288 589 249 q 478 345 528 328 q 354 369 428 363 q 232 389 275 378 q 161 434 189 400 q 133 535 133 468 q 185 654 133 613 q 333 696 238 696 q 474 663 425 696 q 547 563 522 629 q 561 558 551 554 l 575 563 q 578 578 582 567 q 494 690 553 651 q 333 729 436 729 q 158 678 219 729 q 97 535 97 626 q 131 414 97 454 q 214 360 164 374 q 349 336 264 346 q 458 315 415 329 q 526 269 500 301 q 551 176 551 236 q 499 57 551 100 q 343 14 447 14 q 199 51 256 14 q 115 171 143 88 q 101 176 111 181 l 85 171 q 81 157 76 169 q 176 22 111 63 q 343 -19 242 -19 "},"ś":{"ha":674,"x_min":76,"x_max":589,"o":"m 343 -19 q 527 32 465 -19 q 589 176 589 83 q 558 288 589 249 q 478 345 528 328 q 354 369 428 363 q 232 389 275 378 q 161 434 189 400 q 133 535 133 468 q 185 654 133 613 q 333 696 238 696 q 474 663 425 696 q 547 563 522 629 q 561 558 551 554 l 575 563 q 578 578 582 567 q 494 690 553 651 q 333 729 436 729 q 158 678 219 729 q 97 535 97 626 q 131 414 97 454 q 214 360 164 374 q 349 336 264 346 q 458 315 415 329 q 526 269 500 301 q 551 176 551 236 q 499 57 551 100 q 343 14 447 14 q 199 51 256 14 q 115 171 143 88 q 101 176 111 181 l 85 171 q 81 157 76 169 q 176 22 111 63 q 343 -19 242 -19 m 249 853 l 446 1003 q 449 1017 457 1008 l 439 1026 q 419 1026 431 1035 l 229 875 q 226 860 219 868 l 233 853 q 249 853 240 846 "},"š":{"ha":674,"x_min":76,"x_max":589,"o":"m 343 -19 q 527 32 465 -19 q 589 176 589 83 q 558 288 589 249 q 478 345 528 328 q 354 369 428 363 q 232 389 275 378 q 161 434 189 400 q 133 535 133 468 q 185 654 133 613 q 333 696 238 696 q 474 663 425 696 q 547 563 522 629 q 561 558 551 554 l 575 563 q 578 578 582 567 q 494 690 553 651 q 333 729 436 729 q 158 678 219 729 q 97 535 97 626 q 131 414 97 454 q 214 360 164 374 q 349 336 264 346 q 458 315 415 329 q 526 269 500 301 q 551 176 551 236 q 499 57 551 100 q 343 14 447 14 q 199 51 256 14 q 115 171 143 88 q 101 176 111 181 l 85 171 q 81 157 76 169 q 176 22 111 63 q 343 -19 242 -19 m 336 840 l 339 840 q 350 842 346 840 q 361 851 354 844 l 528 1013 q 533 1018 533 1015 q 524 1021 532 1021 l 504 1021 q 486 1014 493 1021 l 336 869 l 188 1014 q 179 1020 183 1019 q 169 1021 175 1021 l 153 1021 q 144 1018 144 1021 q 147 1013 143 1015 l 311 851 q 323 842 318 844 q 336 840 328 840 "},"ş":{"ha":674,"x_min":76,"x_max":589,"o":"m 339 -339 q 437 -308 401 -339 q 472 -214 472 -278 q 441 -141 472 -169 q 364 -112 410 -112 q 326 -119 343 -112 l 356 -19 q 530 35 471 -17 q 589 176 589 88 q 558 288 589 249 q 478 345 528 328 q 354 369 428 363 q 232 389 275 378 q 161 434 189 400 q 133 535 133 468 q 185 654 133 613 q 333 696 238 696 q 474 663 425 696 q 547 563 522 629 q 561 558 551 554 l 575 563 q 578 578 582 567 q 494 690 553 651 q 333 729 436 729 q 158 678 219 729 q 97 535 97 626 q 131 414 97 454 q 214 360 164 374 q 349 336 264 346 q 458 315 415 329 q 526 269 500 301 q 551 176 551 236 q 499 57 551 100 q 343 14 447 14 q 199 51 256 14 q 115 171 143 88 q 101 176 111 181 l 85 171 q 81 157 76 169 q 172 25 111 67 q 328 -19 233 -17 l 294 -133 q 295 -143 293 -139 q 303 -147 297 -147 l 307 -147 q 350 -137 322 -137 q 413 -158 389 -137 q 438 -215 438 -179 q 335 -311 438 -311 q 242 -271 276 -311 q 236 -271 239 -269 q 233 -276 233 -272 l 233 -289 q 236 -300 233 -296 q 243 -307 239 -304 q 339 -339 289 -339 "},"ŝ":{"ha":674,"x_min":76,"x_max":589,"o":"m 343 -19 q 527 32 465 -19 q 589 176 589 83 q 558 288 589 249 q 478 345 528 328 q 354 369 428 363 q 232 389 275 378 q 161 434 189 400 q 133 535 133 468 q 185 654 133 613 q 333 696 238 696 q 474 663 425 696 q 547 563 522 629 q 561 558 551 554 l 575 563 q 578 578 582 567 q 494 690 553 651 q 333 729 436 729 q 158 678 219 729 q 97 535 97 626 q 131 414 97 454 q 214 360 164 374 q 349 336 264 346 q 458 315 415 329 q 526 269 500 301 q 551 176 551 236 q 499 57 551 100 q 343 14 447 14 q 199 51 256 14 q 115 171 143 88 q 101 176 111 181 l 85 171 q 81 157 76 169 q 176 22 111 63 q 343 -19 242 -19 m 151 842 l 169 842 q 188 847 181 842 l 339 993 l 486 847 q 494 842 490 843 q 504 842 499 842 l 522 842 q 531 844 529 842 q 528 850 532 847 l 363 1011 q 352 1019 356 1018 q 340 1021 349 1021 l 336 1021 q 324 1019 328 1021 q 313 1011 319 1017 l 146 850 q 142 844 142 847 q 151 842 143 842 "},"ș":{"ha":674,"x_min":76,"x_max":589,"o":"m 343 -19 q 527 32 465 -19 q 589 176 589 83 q 558 288 589 249 q 478 345 528 328 q 354 369 428 363 q 232 389 275 378 q 161 434 189 400 q 133 535 133 468 q 185 654 133 613 q 333 696 238 696 q 474 663 425 696 q 547 563 522 629 q 561 558 551 554 l 575 563 q 578 578 582 567 q 494 690 553 651 q 333 729 436 729 q 158 678 219 729 q 97 535 97 626 q 131 414 97 454 q 214 360 164 374 q 349 336 264 346 q 458 315 415 329 q 526 269 500 301 q 551 176 551 236 q 499 57 551 100 q 343 14 447 14 q 199 51 256 14 q 115 171 143 88 q 101 176 111 181 l 85 171 q 81 157 76 169 q 176 22 111 63 q 343 -19 242 -19 m 272 -337 l 283 -337 q 292 -335 289 -337 q 297 -326 294 -333 l 363 -125 q 353 -114 367 -114 l 338 -114 q 328 -116 331 -114 q 324 -125 325 -118 l 264 -328 q 272 -337 260 -337 "},"ß":{"ha":751,"x_min":126,"x_max":663,"o":"m 138 0 l 154 0 q 164 11 164 0 l 164 753 q 219 942 164 878 q 379 1006 274 1006 q 594 764 594 1006 q 576 668 594 717 q 517 586 557 619 q 417 553 476 553 l 288 553 q 281 551 282 553 q 279 542 279 549 l 279 528 q 281 519 279 521 q 290 517 283 517 l 418 517 q 569 453 514 517 q 625 285 625 390 q 565 100 625 164 q 399 36 504 36 l 283 36 q 274 25 274 36 l 274 11 q 283 0 274 0 l 401 0 q 593 72 524 0 q 663 282 663 143 q 619 448 663 382 q 497 536 575 514 l 497 539 q 597 631 563 564 q 631 767 631 697 q 379 1042 631 1042 q 191 968 256 1042 q 126 751 126 894 l 126 11 q 138 0 126 0 "},"ſ":{"ha":326,"x_min":35,"x_max":414,"o":"m 186 0 l 204 0 q 214 10 214 0 l 214 763 q 231 906 214 857 q 288 973 247 954 q 404 992 328 992 q 412 994 410 992 q 414 1003 414 996 l 414 1017 q 412 1026 414 1024 q 404 1028 410 1028 q 268 1004 317 1028 q 198 924 219 981 q 176 764 176 867 l 176 710 l 44 710 q 35 700 35 710 l 35 685 q 44 675 35 675 l 176 675 l 176 10 q 186 0 176 0 "},"t":{"ha":456,"x_min":29,"x_max":425,"o":"m 408 0 q 419 2 417 0 q 422 11 422 4 l 422 26 q 420 34 422 32 q 411 36 418 36 q 291 53 332 36 q 233 118 250 71 q 215 260 215 165 l 215 675 l 415 675 q 425 685 425 675 l 425 700 q 415 710 425 710 l 215 710 l 215 867 q 206 876 215 876 l 188 876 q 180 874 182 876 q 178 867 178 872 l 178 710 l 39 710 q 29 700 29 710 l 29 685 q 39 675 29 675 l 178 675 l 178 258 q 199 99 178 154 q 269 22 221 43 q 408 0 318 0 "},"ŧ":{"ha":456,"x_min":29,"x_max":425,"o":"m 408 0 q 419 2 417 0 q 422 11 422 4 l 422 26 q 420 34 422 32 q 411 36 418 36 q 291 53 332 36 q 233 118 250 71 q 215 260 215 165 l 215 368 l 389 368 q 397 370 394 368 q 399 378 399 372 l 399 388 q 397 395 399 393 q 389 397 394 397 l 215 397 l 215 675 l 415 675 q 425 685 425 675 l 425 700 q 415 710 425 710 l 215 710 l 215 867 q 206 876 215 876 l 188 876 q 180 874 182 876 q 178 867 178 872 l 178 710 l 39 710 q 29 700 29 710 l 29 685 q 39 675 29 675 l 178 675 l 178 397 l 67 397 q 59 396 61 397 q 57 388 57 394 l 57 378 q 59 370 57 372 q 67 368 61 368 l 178 368 l 178 258 q 199 99 178 154 q 269 22 221 43 q 408 0 318 0 "},"ť":{"ha":456,"x_min":29,"x_max":494,"o":"m 407 771 l 417 771 q 429 782 428 771 l 490 1017 q 481 1028 494 1028 l 465 1028 q 456 1026 458 1028 q 453 1017 454 1024 l 399 781 q 399 773 397 775 q 407 771 400 771 m 408 0 q 419 2 417 0 q 422 11 422 4 l 422 26 q 420 34 422 32 q 411 36 418 36 q 291 53 332 36 q 233 118 250 71 q 215 260 215 165 l 215 675 l 415 675 q 425 685 425 675 l 425 700 q 415 710 425 710 l 215 710 l 215 867 q 206 876 215 876 l 188 876 q 180 874 182 876 q 178 867 178 872 l 178 710 l 39 710 q 29 700 29 710 l 29 685 q 39 675 29 675 l 178 675 l 178 258 q 199 99 178 154 q 269 22 221 43 q 408 0 318 0 "},"ţ":{"ha":456,"x_min":29,"x_max":428,"o":"m 321 -111 q 283 -118 300 -111 l 318 7 q 408 0 351 0 q 419 2 417 0 q 422 11 422 4 l 422 26 q 420 34 422 32 q 411 36 418 36 q 291 53 332 36 q 233 118 250 71 q 215 260 215 165 l 215 675 l 415 675 q 425 685 425 675 l 425 700 q 415 710 425 710 l 215 710 l 215 867 q 206 876 215 876 l 188 876 q 180 874 182 876 q 178 867 178 872 l 178 710 l 39 710 q 29 700 29 710 l 29 685 q 39 675 29 675 l 178 675 l 178 258 q 203 88 178 144 q 293 13 229 32 l 249 -132 q 250 -143 247 -139 q 258 -147 253 -147 l 261 -146 q 307 -136 283 -136 q 370 -157 346 -136 q 394 -214 394 -178 q 290 -311 394 -311 q 197 -271 235 -311 q 192 -271 194 -269 q 190 -275 190 -272 l 190 -287 q 192 -299 190 -296 q 199 -307 193 -303 q 294 -339 244 -339 q 392 -308 357 -339 q 428 -214 428 -278 q 397 -140 428 -168 q 321 -111 367 -111 "},"ț":{"ha":456,"x_min":29,"x_max":425,"o":"m 408 0 q 419 2 417 0 q 422 11 422 4 l 422 26 q 420 34 422 32 q 411 36 418 36 q 291 53 332 36 q 233 118 250 71 q 215 260 215 165 l 215 675 l 415 675 q 425 685 425 675 l 425 700 q 415 710 425 710 l 215 710 l 215 867 q 206 876 215 876 l 188 876 q 180 874 182 876 q 178 867 178 872 l 178 710 l 39 710 q 29 700 29 710 l 29 685 q 39 675 29 675 l 178 675 l 178 258 q 199 99 178 154 q 269 22 221 43 q 408 0 318 0 m 244 -337 l 256 -337 q 264 -335 261 -337 q 269 -326 267 -333 l 335 -125 q 325 -114 339 -114 l 310 -114 q 300 -116 303 -114 q 296 -125 297 -118 l 236 -328 q 244 -337 232 -337 "},"u":{"ha":750,"x_min":119,"x_max":628,"o":"m 358 -19 q 485 -8 435 -19 q 581 25 536 4 q 618 53 608 38 q 628 100 628 68 l 628 700 q 618 710 628 710 l 600 710 q 590 700 590 710 l 590 108 q 585 77 590 89 q 561 56 579 65 q 363 17 483 17 q 207 75 257 17 q 157 249 157 133 l 157 700 q 155 708 157 706 q 147 710 153 710 l 129 710 q 119 700 119 710 l 119 246 q 358 -19 119 -19 "},"ú":{"ha":750,"x_min":119,"x_max":628,"o":"m 358 -19 q 485 -8 435 -19 q 581 25 536 4 q 618 53 608 38 q 628 100 628 68 l 628 700 q 618 710 628 710 l 600 710 q 590 700 590 710 l 590 108 q 585 77 590 89 q 561 56 579 65 q 363 17 483 17 q 207 75 257 17 q 157 249 157 133 l 157 700 q 155 708 157 706 q 147 710 153 710 l 129 710 q 119 700 119 710 l 119 246 q 358 -19 119 -19 m 285 851 l 482 1001 q 485 1015 493 1007 l 475 1025 q 456 1025 467 1033 l 265 874 q 263 858 256 867 l 269 851 q 285 851 276 844 "},"ŭ":{"ha":750,"x_min":119,"x_max":628,"o":"m 358 -19 q 485 -8 435 -19 q 581 25 536 4 q 618 53 608 38 q 628 100 628 68 l 628 700 q 618 710 628 710 l 600 710 q 590 700 590 710 l 590 108 q 585 77 590 89 q 561 56 579 65 q 363 17 483 17 q 207 75 257 17 q 157 249 157 133 l 157 700 q 155 708 157 706 q 147 710 153 710 l 129 710 q 119 700 119 710 l 119 246 q 358 -19 119 -19 m 374 847 q 491 885 447 847 q 556 1004 535 922 q 556 1012 557 1010 q 550 1017 556 1014 l 536 1021 q 525 1014 529 1022 q 471 912 507 944 q 374 879 435 879 q 277 911 313 879 q 224 1014 242 943 q 214 1021 219 1021 l 211 1021 l 199 1017 q 192 1013 193 1015 q 192 1004 190 1011 q 258 885 214 922 q 374 847 301 847 "},"û":{"ha":750,"x_min":119,"x_max":628,"o":"m 358 -19 q 485 -8 435 -19 q 581 25 536 4 q 618 53 608 38 q 628 100 628 68 l 628 700 q 618 710 628 710 l 600 710 q 590 700 590 710 l 590 108 q 585 77 590 89 q 561 56 579 65 q 363 17 483 17 q 207 75 257 17 q 157 249 157 133 l 157 700 q 155 708 157 706 q 147 710 153 710 l 129 710 q 119 700 119 710 l 119 246 q 358 -19 119 -19 m 188 840 l 206 840 q 224 846 217 840 l 375 992 l 522 846 q 531 841 526 842 q 540 840 535 840 l 558 840 q 567 843 565 840 q 564 849 568 846 l 399 1010 q 388 1018 392 1017 q 376 1019 385 1019 l 372 1019 q 360 1017 364 1019 q 349 1010 356 1015 l 182 849 q 178 843 178 846 q 188 840 179 840 "},"ü":{"ha":750,"x_min":119,"x_max":628,"o":"m 358 -19 q 485 -8 435 -19 q 581 25 536 4 q 618 53 608 38 q 628 100 628 68 l 628 700 q 618 710 628 710 l 600 710 q 590 700 590 710 l 590 108 q 585 77 590 89 q 561 56 579 65 q 363 17 483 17 q 207 75 257 17 q 157 249 157 133 l 157 700 q 155 708 157 706 q 147 710 153 710 l 129 710 q 119 700 119 710 l 119 246 q 358 -19 119 -19 m 250 907 l 256 907 q 277 913 271 907 q 283 935 283 919 l 283 942 q 277 963 283 957 q 256 968 271 968 l 250 968 q 228 963 235 968 q 222 942 222 957 l 222 935 q 228 913 222 918 q 250 907 235 907 m 499 907 l 506 907 q 526 913 521 907 q 532 935 532 919 l 532 942 q 526 963 532 957 q 506 968 519 968 l 499 968 q 477 962 483 968 q 471 942 471 956 l 471 935 q 478 913 471 919 q 499 907 485 907 "},"ù":{"ha":750,"x_min":119,"x_max":628,"o":"m 358 -19 q 485 -8 435 -19 q 581 25 536 4 q 618 53 608 38 q 628 100 628 68 l 628 700 q 618 710 628 710 l 600 710 q 590 700 590 710 l 590 108 q 585 77 590 89 q 561 56 579 65 q 363 17 483 17 q 207 75 257 17 q 157 249 157 133 l 157 700 q 155 708 157 706 q 147 710 153 710 l 129 710 q 119 700 119 710 l 119 246 q 358 -19 119 -19 m 261 1000 l 458 850 q 474 850 469 843 l 481 857 q 478 872 489 867 l 288 1024 q 278 1029 282 1029 q 268 1024 272 1029 l 258 1014 q 261 1000 251 1006 "},"ű":{"ha":750,"x_min":119,"x_max":628,"o":"m 358 -19 q 485 -8 435 -19 q 581 25 536 4 q 618 53 608 38 q 628 100 628 68 l 628 700 q 618 710 628 710 l 600 710 q 590 700 590 710 l 590 108 q 585 77 590 89 q 561 56 579 65 q 363 17 483 17 q 207 75 257 17 q 157 249 157 133 l 157 700 q 155 708 157 706 q 147 710 153 710 l 129 710 q 119 700 119 710 l 119 246 q 358 -19 119 -19 m 215 844 l 222 842 q 231 841 228 840 q 239 846 235 842 l 378 1010 q 374 1021 383 1017 l 360 1026 q 342 1018 350 1028 l 213 858 q 215 844 204 849 m 425 844 l 432 840 q 440 840 436 839 q 449 846 443 840 l 593 1006 q 595 1013 596 1008 q 589 1018 594 1017 l 575 1022 q 557 1015 564 1026 l 422 857 q 419 849 418 853 q 425 844 419 846 "},"ū":{"ha":750,"x_min":119,"x_max":628,"o":"m 358 -19 q 485 -8 435 -19 q 581 25 536 4 q 618 53 608 38 q 628 100 628 68 l 628 700 q 618 710 628 710 l 600 710 q 590 700 590 710 l 590 108 q 585 77 590 89 q 561 56 579 65 q 363 17 483 17 q 207 75 257 17 q 157 249 157 133 l 157 700 q 155 708 157 706 q 147 710 153 710 l 129 710 q 119 700 119 710 l 119 246 q 358 -19 119 -19 m 219 910 l 528 910 q 538 921 538 910 l 538 931 q 535 938 538 936 q 528 940 533 940 l 219 940 q 212 938 214 940 q 210 931 210 936 l 210 921 q 219 910 210 910 "},"ų":{"ha":750,"x_min":119,"x_max":649,"o":"m 539 -344 q 644 -296 599 -344 q 647 -285 649 -290 l 642 -268 q 633 -267 638 -262 q 592 -300 615 -287 q 546 -312 568 -312 q 498 -296 518 -312 q 478 -243 478 -279 q 515 -112 478 -192 q 611 46 551 -32 q 628 100 628 63 l 628 700 q 618 710 628 710 l 600 710 q 590 700 590 710 l 590 108 q 585 77 590 89 q 561 56 579 65 q 363 17 483 17 q 207 75 257 17 q 157 249 157 133 l 157 700 q 155 708 157 706 q 147 710 153 710 l 129 710 q 119 700 119 710 l 119 246 q 358 -19 119 -19 q 558 17 472 -19 q 474 -125 506 -53 q 443 -250 443 -197 q 472 -322 443 -299 q 539 -344 500 -344 "},"ů":{"ha":750,"x_min":119,"x_max":628,"o":"m 358 -19 q 485 -8 435 -19 q 581 25 536 4 q 618 53 608 38 q 628 100 628 68 l 628 700 q 618 710 628 710 l 600 710 q 590 700 590 710 l 590 108 q 585 77 590 89 q 561 56 579 65 q 363 17 483 17 q 207 75 257 17 q 157 249 157 133 l 157 700 q 155 708 157 706 q 147 710 153 710 l 129 710 q 119 700 119 710 l 119 246 q 358 -19 119 -19 m 375 803 q 460 838 428 803 q 493 928 493 872 q 460 1019 493 985 q 375 1053 428 1053 q 288 1018 322 1053 q 254 928 254 983 q 288 838 254 872 q 375 803 322 803 m 375 828 q 306 855 332 828 q 279 928 279 882 q 306 1001 279 974 q 375 1029 332 1029 q 442 1001 417 1029 q 468 928 468 974 q 442 855 468 882 q 375 828 417 828 "},"ũ":{"ha":750,"x_min":119,"x_max":628,"o":"m 358 -19 q 485 -8 435 -19 q 581 25 536 4 q 618 53 608 38 q 628 100 628 68 l 628 700 q 618 710 628 710 l 600 710 q 590 700 590 710 l 590 108 q 585 77 590 89 q 561 56 579 65 q 363 17 483 17 q 207 75 257 17 q 157 249 157 133 l 157 700 q 155 708 157 706 q 147 710 153 710 l 129 710 q 119 700 119 710 l 119 246 q 358 -19 119 -19 m 193 864 l 206 864 q 213 865 211 864 q 214 872 214 867 q 232 941 214 914 q 281 968 250 968 q 323 956 304 968 q 367 918 342 943 q 415 878 393 892 q 467 864 438 864 q 535 898 511 864 q 560 989 560 932 q 551 997 560 997 l 538 997 q 531 989 531 997 q 514 919 531 946 q 465 892 497 892 q 424 903 442 892 q 381 940 406 915 q 331 983 351 969 q 278 997 310 997 q 210 963 236 997 q 185 872 185 929 q 193 864 185 864 "},"v":{"ha":679,"x_min":44,"x_max":635,"o":"m 332 -6 l 347 -6 q 363 4 360 -6 l 629 696 q 622 710 635 710 l 608 710 q 597 708 600 710 q 592 700 593 706 l 376 138 l 351 65 q 346 51 349 57 q 342 39 343 44 l 340 39 l 304 139 l 89 699 q 83 708 86 706 q 72 710 81 710 l 57 710 q 51 694 44 710 l 317 4 q 322 -3 319 -1 q 332 -6 325 -6 "},"w":{"ha":1006,"x_min":58,"x_max":950,"o":"m 278 -7 l 296 -7 q 305 -6 303 -7 q 308 4 307 -4 l 472 538 q 500 635 494 615 l 501 635 l 531 538 l 693 4 q 699 -5 696 -3 q 707 -7 701 -7 l 725 -7 q 739 4 738 -7 l 946 697 q 936 710 950 710 l 922 710 q 911 708 914 710 q 907 700 908 706 l 751 175 q 729 88 743 146 l 717 42 l 715 42 q 676 181 697 115 l 524 675 q 519 683 522 681 q 508 685 517 685 l 496 685 q 484 683 488 685 q 479 675 481 681 l 326 171 q 290 42 303 99 l 288 42 l 275 90 q 254 169 265 136 l 100 699 q 94 708 97 706 q 83 710 92 710 l 69 710 q 58 704 58 710 q 60 697 58 700 l 265 4 q 269 -6 267 -4 q 278 -7 272 -7 "},"ẃ":{"ha":1006,"x_min":58,"x_max":950,"o":"m 278 -7 l 296 -7 q 305 -6 303 -7 q 308 4 307 -4 l 472 538 q 500 635 494 615 l 501 635 l 531 538 l 693 4 q 699 -5 696 -3 q 707 -7 701 -7 l 725 -7 q 739 4 738 -7 l 946 697 q 936 710 950 710 l 922 710 q 911 708 914 710 q 907 700 908 706 l 751 175 q 729 88 743 146 l 717 42 l 715 42 q 676 181 697 115 l 524 675 q 519 683 522 681 q 508 685 517 685 l 496 685 q 484 683 488 685 q 479 675 481 681 l 326 171 q 290 42 303 99 l 288 42 l 275 90 q 254 169 265 136 l 100 699 q 94 708 97 706 q 83 710 92 710 l 69 710 q 58 704 58 710 q 60 697 58 700 l 265 4 q 269 -6 267 -4 q 278 -7 272 -7 m 414 851 l 611 1001 q 614 1015 622 1007 l 604 1025 q 585 1025 596 1033 l 394 874 q 392 858 385 867 l 399 851 q 414 851 406 844 "},"ŵ":{"ha":1006,"x_min":58,"x_max":950,"o":"m 278 -7 l 296 -7 q 305 -6 303 -7 q 308 4 307 -4 l 472 538 q 500 635 494 615 l 501 635 l 531 538 l 693 4 q 699 -5 696 -3 q 707 -7 701 -7 l 725 -7 q 739 4 738 -7 l 946 697 q 936 710 950 710 l 922 710 q 911 708 914 710 q 907 700 908 706 l 751 175 q 729 88 743 146 l 717 42 l 715 42 q 676 181 697 115 l 524 675 q 519 683 522 681 q 508 685 517 685 l 496 685 q 484 683 488 685 q 479 675 481 681 l 326 171 q 290 42 303 99 l 288 42 l 275 90 q 254 169 265 136 l 100 699 q 94 708 97 706 q 83 710 92 710 l 69 710 q 58 704 58 710 q 60 697 58 700 l 265 4 q 269 -6 267 -4 q 278 -7 272 -7 m 317 840 l 335 840 q 353 846 346 840 l 504 992 l 651 846 q 660 841 656 842 q 669 840 664 840 l 688 840 q 696 843 694 840 q 693 849 697 846 l 528 1010 q 517 1018 521 1017 q 506 1019 514 1019 l 501 1019 q 489 1017 493 1019 q 478 1010 485 1015 l 311 849 q 308 843 307 846 q 317 840 308 840 "},"ẅ":{"ha":1006,"x_min":58,"x_max":950,"o":"m 278 -7 l 296 -7 q 305 -6 303 -7 q 308 4 307 -4 l 472 538 q 500 635 494 615 l 501 635 l 531 538 l 693 4 q 699 -5 696 -3 q 707 -7 701 -7 l 725 -7 q 739 4 738 -7 l 946 697 q 936 710 950 710 l 922 710 q 911 708 914 710 q 907 700 908 706 l 751 175 q 729 88 743 146 l 717 42 l 715 42 q 676 181 697 115 l 524 675 q 519 683 522 681 q 508 685 517 685 l 496 685 q 484 683 488 685 q 479 675 481 681 l 326 171 q 290 42 303 99 l 288 42 l 275 90 q 254 169 265 136 l 100 699 q 94 708 97 706 q 83 710 92 710 l 69 710 q 58 704 58 710 q 60 697 58 700 l 265 4 q 269 -6 267 -4 q 278 -7 272 -7 m 379 907 l 385 907 q 406 913 400 907 q 413 935 413 919 l 413 942 q 406 963 413 957 q 385 968 400 968 l 379 968 q 358 963 364 968 q 351 942 351 957 l 351 935 q 358 913 351 918 q 379 907 364 907 m 628 907 l 635 907 q 656 913 650 907 q 661 935 661 919 l 661 942 q 655 963 661 957 q 635 968 649 968 l 628 968 q 606 962 613 968 q 600 942 600 956 l 600 935 q 607 913 600 919 q 628 907 614 907 "},"ẁ":{"ha":1006,"x_min":58,"x_max":950,"o":"m 278 -7 l 296 -7 q 305 -6 303 -7 q 308 4 307 -4 l 472 538 q 500 635 494 615 l 501 635 l 531 538 l 693 4 q 699 -5 696 -3 q 707 -7 701 -7 l 725 -7 q 739 4 738 -7 l 946 697 q 936 710 950 710 l 922 710 q 911 708 914 710 q 907 700 908 706 l 751 175 q 729 88 743 146 l 717 42 l 715 42 q 676 181 697 115 l 524 675 q 519 683 522 681 q 508 685 517 685 l 496 685 q 484 683 488 685 q 479 675 481 681 l 326 171 q 290 42 303 99 l 288 42 l 275 90 q 254 169 265 136 l 100 699 q 94 708 97 706 q 83 710 92 710 l 69 710 q 58 704 58 710 q 60 697 58 700 l 265 4 q 269 -6 267 -4 q 278 -7 272 -7 m 390 1000 l 588 850 q 603 850 599 843 l 610 857 q 607 872 618 867 l 417 1024 q 407 1029 411 1029 q 397 1024 401 1029 l 388 1014 q 390 1000 381 1006 "},"x":{"ha":646,"x_min":44,"x_max":603,"o":"m 56 0 l 76 0 q 87 1 83 0 q 93 8 90 3 l 325 338 l 553 8 q 559 2 556 4 q 569 0 563 0 l 592 0 q 597 10 603 0 l 350 367 l 583 700 q 576 710 589 710 l 556 710 q 546 708 549 710 q 540 701 543 707 l 324 392 l 106 701 q 99 708 103 707 q 89 710 94 710 l 69 710 q 63 700 56 710 l 299 364 l 50 10 q 56 0 44 0 "},"y":{"ha":754,"x_min":119,"x_max":628,"o":"m 369 -357 q 628 -57 628 -357 l 628 700 q 618 710 628 710 l 600 710 q 590 700 590 710 l 590 72 q 489 35 543 50 q 363 19 435 19 q 207 78 257 19 q 157 253 157 138 l 157 700 q 155 708 157 706 q 147 710 153 710 l 129 710 q 119 700 119 710 l 119 250 q 178 53 119 122 q 358 -15 236 -15 q 483 -1 435 -15 q 590 38 532 13 l 590 -60 q 368 -322 590 -322 q 241 -285 289 -322 q 163 -178 193 -247 q 154 -171 160 -171 q 146 -172 149 -171 l 135 -178 q 128 -187 128 -182 q 131 -196 128 -190 q 220 -315 164 -274 q 369 -357 276 -357 "},"ý":{"ha":754,"x_min":119,"x_max":628,"o":"m 369 -357 q 628 -57 628 -357 l 628 700 q 618 710 628 710 l 600 710 q 590 700 590 710 l 590 72 q 489 35 543 50 q 363 19 435 19 q 207 78 257 19 q 157 253 157 138 l 157 700 q 155 708 157 706 q 147 710 153 710 l 129 710 q 119 700 119 710 l 119 250 q 178 53 119 122 q 358 -15 236 -15 q 483 -1 435 -15 q 590 38 532 13 l 590 -60 q 368 -322 590 -322 q 241 -285 289 -322 q 163 -178 193 -247 q 154 -171 160 -171 q 146 -172 149 -171 l 135 -178 q 128 -187 128 -182 q 131 -196 128 -190 q 220 -315 164 -274 q 369 -357 276 -357 m 283 851 l 481 1001 q 483 1015 492 1007 l 474 1025 q 454 1025 465 1033 l 264 874 q 261 858 254 867 l 268 851 q 283 851 275 844 "},"ŷ":{"ha":754,"x_min":119,"x_max":628,"o":"m 369 -357 q 628 -57 628 -357 l 628 700 q 618 710 628 710 l 600 710 q 590 700 590 710 l 590 72 q 489 35 543 50 q 363 19 435 19 q 207 78 257 19 q 157 253 157 138 l 157 700 q 155 708 157 706 q 147 710 153 710 l 129 710 q 119 700 119 710 l 119 250 q 178 53 119 122 q 358 -15 236 -15 q 483 -1 435 -15 q 590 38 532 13 l 590 -60 q 368 -322 590 -322 q 241 -285 289 -322 q 163 -178 193 -247 q 154 -171 160 -171 q 146 -172 149 -171 l 135 -178 q 128 -187 128 -182 q 131 -196 128 -190 q 220 -315 164 -274 q 369 -357 276 -357 m 186 840 l 204 840 q 222 846 215 840 l 374 992 l 521 846 q 529 841 525 842 q 539 840 533 840 l 557 840 q 565 843 564 840 q 563 849 567 846 l 397 1010 q 387 1018 390 1017 q 375 1019 383 1019 l 371 1019 q 358 1017 363 1019 q 347 1010 354 1015 l 181 849 q 177 843 176 846 q 186 840 178 840 "},"ÿ":{"ha":754,"x_min":119,"x_max":628,"o":"m 369 -357 q 628 -57 628 -357 l 628 700 q 618 710 628 710 l 600 710 q 590 700 590 710 l 590 72 q 489 35 543 50 q 363 19 435 19 q 207 78 257 19 q 157 253 157 138 l 157 700 q 155 708 157 706 q 147 710 153 710 l 129 710 q 119 700 119 710 l 119 250 q 178 53 119 122 q 358 -15 236 -15 q 483 -1 435 -15 q 590 38 532 13 l 590 -60 q 368 -322 590 -322 q 241 -285 289 -322 q 163 -178 193 -247 q 154 -171 160 -171 q 146 -172 149 -171 l 135 -178 q 128 -187 128 -182 q 131 -196 128 -190 q 220 -315 164 -274 q 369 -357 276 -357 m 249 907 l 254 907 q 276 913 269 907 q 282 935 282 919 l 282 942 q 276 963 282 957 q 254 968 269 968 l 249 968 q 227 963 233 968 q 221 942 221 957 l 221 935 q 227 913 221 918 q 249 907 233 907 m 497 907 l 504 907 q 525 913 519 907 q 531 935 531 919 l 531 942 q 524 963 531 957 q 504 968 518 968 l 497 968 q 476 962 482 968 q 469 942 469 956 l 469 935 q 476 913 469 919 q 497 907 483 907 "},"ỳ":{"ha":754,"x_min":119,"x_max":628,"o":"m 369 -357 q 628 -57 628 -357 l 628 700 q 618 710 628 710 l 600 710 q 590 700 590 710 l 590 72 q 489 35 543 50 q 363 19 435 19 q 207 78 257 19 q 157 253 157 138 l 157 700 q 155 708 157 706 q 147 710 153 710 l 129 710 q 119 700 119 710 l 119 250 q 178 53 119 122 q 358 -15 236 -15 q 483 -1 435 -15 q 590 38 532 13 l 590 -60 q 368 -322 590 -322 q 241 -285 289 -322 q 163 -178 193 -247 q 154 -171 160 -171 q 146 -172 149 -171 l 135 -178 q 128 -187 128 -182 q 131 -196 128 -190 q 220 -315 164 -274 q 369 -357 276 -357 m 260 1000 l 457 850 q 472 850 468 843 l 479 857 q 476 872 488 867 l 286 1024 q 276 1029 281 1029 q 267 1024 271 1029 l 257 1014 q 260 1000 250 1006 "},"z":{"ha":607,"x_min":67,"x_max":539,"o":"m 76 0 l 531 0 q 539 10 539 0 l 539 24 q 538 33 539 31 q 531 35 536 35 l 113 35 l 525 669 q 531 686 531 679 l 531 700 q 528 708 531 706 q 521 710 526 710 l 82 710 q 74 700 74 710 l 74 686 q 75 677 74 679 q 82 675 76 675 l 485 675 l 71 38 q 67 24 67 28 l 67 10 q 76 0 67 0 "},"ź":{"ha":607,"x_min":67,"x_max":539,"o":"m 76 0 l 531 0 q 539 10 539 0 l 539 24 q 538 33 539 31 q 531 35 536 35 l 113 35 l 525 669 q 531 686 531 679 l 531 700 q 528 708 531 706 q 521 710 526 710 l 82 710 q 74 700 74 710 l 74 686 q 75 677 74 679 q 82 675 76 675 l 485 675 l 71 38 q 67 24 67 28 l 67 10 q 76 0 67 0 m 215 851 l 413 1001 q 415 1015 424 1007 l 406 1025 q 386 1025 397 1033 l 196 874 q 193 858 186 867 l 200 851 q 215 851 207 844 "},"ž":{"ha":607,"x_min":67,"x_max":539,"o":"m 76 0 l 531 0 q 539 10 539 0 l 539 24 q 538 33 539 31 q 531 35 536 35 l 113 35 l 525 669 q 531 686 531 679 l 531 700 q 528 708 531 706 q 521 710 526 710 l 82 710 q 74 700 74 710 l 74 686 q 75 677 74 679 q 82 675 76 675 l 485 675 l 71 38 q 67 24 67 28 l 67 10 q 76 0 67 0 m 303 839 l 306 839 q 317 841 313 839 q 328 850 321 843 l 494 1011 q 499 1017 500 1014 q 490 1019 499 1019 l 471 1019 q 453 1013 460 1019 l 303 868 l 154 1013 q 146 1019 150 1018 q 136 1019 142 1019 l 119 1019 q 110 1017 111 1019 q 114 1011 110 1014 l 278 850 q 290 841 285 843 q 303 839 294 839 "},"ż":{"ha":607,"x_min":67,"x_max":539,"o":"m 76 0 l 531 0 q 539 10 539 0 l 539 24 q 538 33 539 31 q 531 35 536 35 l 113 35 l 525 669 q 531 686 531 679 l 531 700 q 528 708 531 706 q 521 710 526 710 l 82 710 q 74 700 74 710 l 74 686 q 75 677 74 679 q 82 675 76 675 l 485 675 l 71 38 q 67 24 67 28 l 67 10 q 76 0 67 0 m 299 907 l 311 907 q 330 913 325 907 q 335 933 335 918 l 335 942 q 329 962 335 956 q 311 968 324 968 l 299 968 q 274 942 274 968 l 274 933 q 279 913 274 918 q 299 907 285 907 "},"ﬁ":{"ha":707,"x_min":31,"x_max":589,"o":"m 182 0 l 199 0 q 210 10 210 0 l 210 675 l 551 675 l 551 10 q 561 0 551 0 l 579 0 q 589 10 589 0 l 589 700 q 579 710 589 710 l 210 710 l 210 764 q 230 906 210 857 q 295 974 250 954 q 425 993 340 993 l 579 993 q 589 1004 589 993 l 589 1017 q 579 1028 589 1028 l 424 1028 q 275 1004 329 1028 q 197 923 221 981 q 172 763 172 865 l 172 710 l 42 710 q 31 700 31 710 l 31 685 q 42 675 31 675 l 172 675 l 172 10 q 174 2 172 4 q 182 0 176 0 "},"ﬂ":{"ha":729,"x_min":31,"x_max":597,"o":"m 182 0 l 199 0 q 210 10 210 0 l 210 675 l 410 675 q 419 685 419 675 l 419 700 q 410 710 419 710 l 210 710 l 210 764 q 231 906 210 857 q 299 974 251 954 q 438 993 347 993 l 560 993 l 560 10 q 562 2 560 4 q 569 0 564 0 l 588 0 q 597 10 597 0 l 597 1018 q 588 1028 597 1028 l 436 1028 q 279 1004 336 1028 q 197 924 222 981 q 172 763 172 867 l 172 710 l 42 710 q 31 700 31 710 l 31 685 q 42 675 31 675 l 172 675 l 172 10 q 174 2 172 4 q 182 0 176 0 "},"ª":{"ha":518,"x_min":106,"x_max":404,"o":"m 253 493 q 365 514 328 493 q 397 541 389 526 q 404 588 404 556 l 404 758 q 372 887 404 843 q 260 931 339 931 q 118 850 164 931 q 121 835 113 840 l 131 831 q 142 833 138 826 q 192 884 164 868 q 260 900 219 900 q 347 865 321 900 q 372 760 372 829 l 372 726 q 256 736 314 736 q 140 704 175 736 q 106 610 106 672 q 140 522 106 551 q 253 493 174 493 m 251 522 q 138 611 138 522 q 163 683 138 658 q 254 708 189 708 q 372 699 314 708 l 372 590 q 367 558 372 567 q 346 540 361 549 q 251 522 313 522 "},"º":{"ha":524,"x_min":106,"x_max":417,"o":"m 261 494 q 377 538 338 494 q 417 658 417 581 l 417 767 q 377 888 417 844 q 261 931 338 931 q 145 888 185 931 q 106 767 106 844 l 106 658 q 145 538 106 581 q 261 494 185 494 m 261 526 q 169 560 201 526 q 138 657 138 594 l 138 768 q 169 865 138 831 q 261 899 201 899 q 353 865 322 899 q 385 768 385 831 l 385 657 q 353 560 385 594 q 261 526 322 526 "},"А":{"ha":864,"x_min":38,"x_max":822,"o":"m 50 0 l 65 0 q 85 10 81 0 l 210 344 l 653 344 l 778 10 q 797 0 782 0 l 813 0 q 822 6 822 0 l 821 11 l 457 983 q 440 993 453 993 l 422 993 q 407 982 411 993 l 42 11 q 50 0 38 0 m 640 381 l 222 381 l 422 915 q 429 950 428 936 l 432 950 q 440 915 432 947 l 640 381 "},"Б":{"ha":858,"x_min":142,"x_max":782,"o":"m 153 0 l 519 0 q 711 72 640 0 q 782 271 782 143 q 711 470 782 399 q 519 542 640 542 l 182 542 l 182 949 l 706 949 q 717 960 717 949 l 717 975 q 706 986 717 986 l 153 986 q 142 975 142 986 l 142 11 q 153 0 142 0 m 517 38 l 182 38 l 182 506 l 517 506 q 681 444 619 506 q 742 271 742 382 q 681 99 742 160 q 517 38 619 38 "},"В":{"ha":879,"x_min":142,"x_max":783,"o":"m 153 0 l 526 0 q 714 68 644 0 q 783 260 783 136 q 738 425 783 363 q 610 507 693 488 l 610 508 q 716 590 679 532 q 753 739 753 649 q 687 922 753 857 q 507 986 621 986 l 153 986 q 142 975 142 986 l 142 11 q 153 0 142 0 m 510 522 l 182 522 l 182 949 l 504 949 q 658 894 603 949 q 713 736 713 840 q 660 576 713 631 q 510 522 607 522 m 524 38 l 182 38 l 182 486 l 531 486 q 687 428 631 486 q 743 263 743 371 q 684 96 743 154 q 524 38 625 38 "},"Г":{"ha":696,"x_min":142,"x_max":647,"o":"m 153 0 l 172 0 q 182 11 182 0 l 182 949 l 638 949 q 647 960 647 949 l 647 975 q 638 986 647 986 l 153 986 q 142 975 142 986 l 142 11 q 153 0 142 0 "},"Д":{"ha":949,"x_min":40,"x_max":893,"o":"m 51 -212 l 69 -212 q 81 -201 81 -212 l 81 0 l 854 0 l 854 -201 q 864 -212 854 -212 l 883 -212 q 893 -201 893 -212 l 893 26 q 883 38 893 38 l 790 38 l 790 975 q 779 986 790 986 l 268 986 q 257 975 257 986 l 257 696 q 235 314 257 451 q 183 122 214 176 q 111 38 153 68 l 51 38 q 40 26 40 38 l 40 -201 q 51 -212 40 -212 m 750 38 l 160 38 q 226 133 197 71 q 276 331 256 194 q 296 696 296 467 l 296 949 l 750 949 l 750 38 "},"Е":{"ha":782,"x_min":142,"x_max":699,"o":"m 153 0 l 689 0 q 697 2 694 0 q 699 11 699 4 l 699 26 q 697 35 699 33 q 689 38 694 38 l 182 38 l 182 481 l 617 481 q 626 492 626 481 l 626 508 q 617 519 626 519 l 182 519 l 182 949 l 671 949 q 681 960 681 949 l 681 975 q 671 986 681 986 l 153 986 q 142 975 142 986 l 142 11 q 153 0 142 0 "},"Ё":{"ha":782,"x_min":142,"x_max":699,"o":"m 153 0 l 689 0 q 697 2 694 0 q 699 11 699 4 l 699 26 q 697 35 699 33 q 689 38 694 38 l 182 38 l 182 481 l 617 481 q 626 492 626 481 l 626 508 q 617 519 626 519 l 182 519 l 182 949 l 671 949 q 681 960 681 949 l 681 975 q 671 986 681 986 l 153 986 q 142 975 142 986 l 142 11 q 153 0 142 0 m 290 1119 l 299 1119 q 317 1124 313 1119 q 321 1143 321 1129 l 321 1151 q 317 1169 321 1164 q 299 1174 313 1174 l 290 1174 q 272 1169 278 1174 q 267 1151 267 1164 l 267 1143 q 272 1124 267 1129 q 290 1119 278 1119 m 528 1119 l 536 1119 q 554 1124 549 1119 q 560 1143 560 1129 l 560 1151 q 554 1169 560 1164 q 536 1174 549 1174 l 528 1174 q 509 1169 514 1174 q 504 1151 504 1164 l 504 1143 q 509 1124 504 1129 q 528 1119 514 1119 "},"Ж":{"ha":1236,"x_min":49,"x_max":1188,"o":"m 63 0 l 79 0 q 92 2 88 0 q 100 10 96 4 l 257 342 q 340 449 293 417 q 471 482 388 482 l 597 482 l 597 11 q 608 0 597 0 l 628 0 q 638 11 638 0 l 638 482 l 765 482 q 896 449 849 482 q 978 342 943 417 l 1136 10 q 1157 0 1142 0 l 1174 0 q 1181 13 1188 0 l 1014 360 q 951 453 986 418 q 867 503 917 488 l 1167 974 q 1160 986 1174 986 l 1142 986 q 1126 984 1131 986 q 1118 976 1122 982 l 826 515 q 765 518 808 518 l 638 518 l 638 975 q 628 986 638 986 l 608 986 q 597 975 597 986 l 597 518 l 471 518 q 408 515 426 518 l 115 976 q 108 984 113 982 q 93 986 104 986 l 75 986 q 68 974 61 986 l 369 503 q 283 453 318 488 q 221 360 249 418 l 56 13 q 63 0 49 0 "},"З":{"ha":838,"x_min":82,"x_max":743,"o":"m 428 -19 q 664 56 585 -19 q 743 264 743 131 q 704 421 743 357 q 589 508 665 485 q 685 594 653 532 q 717 733 717 656 q 642 935 717 864 q 426 1006 568 1006 q 202 947 279 1006 q 92 763 125 888 q 100 747 88 751 l 114 743 q 129 750 125 739 q 227 917 160 867 q 426 968 294 968 q 613 907 549 968 q 676 732 676 846 q 633 584 676 643 q 500 525 590 525 l 253 525 q 243 514 243 525 l 243 499 q 253 488 243 488 l 501 488 q 649 427 597 488 q 701 265 701 367 q 633 83 701 147 q 428 18 565 18 q 219 73 290 18 q 121 244 149 128 q 113 253 119 253 q 107 251 108 253 l 90 246 q 82 238 82 244 l 83 231 q 196 43 117 106 q 428 -19 275 -19 "},"И":{"ha":950,"x_min":142,"x_max":807,"o":"m 156 0 l 175 0 q 188 8 182 0 l 626 694 q 768 924 654 738 l 771 924 q 765 669 765 754 l 767 11 q 776 0 767 0 l 797 0 q 807 11 807 0 l 806 975 q 793 986 806 986 l 772 986 q 761 979 765 986 l 336 313 q 183 64 247 172 l 181 64 q 183 339 183 157 l 182 975 q 181 984 182 982 q 174 986 179 986 l 151 986 q 144 984 146 986 q 142 975 142 982 l 144 11 q 156 0 144 0 "},"Й":{"ha":901,"x_min":142,"x_max":807,"o":"m 488 1097 q 609 1134 564 1097 q 676 1249 654 1171 q 677 1256 678 1254 q 671 1261 676 1258 l 656 1265 q 644 1258 649 1265 q 588 1159 625 1190 q 488 1128 551 1128 q 386 1159 424 1128 q 331 1258 349 1190 q 321 1265 328 1265 l 318 1265 l 304 1261 q 298 1256 299 1258 q 299 1249 297 1254 q 366 1134 321 1171 q 488 1097 411 1097 m 156 0 l 175 0 q 188 8 182 0 l 626 694 q 768 924 654 738 l 771 924 q 765 669 765 754 l 767 11 q 776 0 767 0 l 797 0 q 807 11 807 0 l 806 975 q 793 986 806 986 l 772 986 q 761 979 765 986 l 336 313 q 183 64 247 172 l 181 64 q 183 339 183 157 l 182 975 q 181 984 182 982 q 174 986 179 986 l 151 986 q 144 984 146 986 q 142 975 142 982 l 144 11 q 156 0 144 0 "},"К":{"ha":818,"x_min":142,"x_max":767,"o":"m 153 0 l 172 0 q 182 11 182 0 l 182 482 l 367 482 q 491 449 446 482 q 568 343 536 417 l 721 10 q 726 1 724 3 q 739 0 729 0 l 757 0 q 765 3 763 0 q 764 13 767 7 l 604 360 q 536 463 574 426 q 440 511 499 499 l 751 974 q 744 986 758 986 l 725 986 q 712 985 715 986 q 704 976 708 983 l 400 518 l 365 518 l 182 518 l 182 975 q 172 986 182 986 l 153 986 q 142 975 142 986 l 142 11 q 153 0 142 0 "},"Л":{"ha":881,"x_min":28,"x_max":739,"o":"m 54 -17 q 168 67 129 22 q 231 244 207 113 q 254 644 254 376 l 254 949 l 699 949 l 699 11 q 710 0 699 0 l 729 0 q 739 11 739 0 l 739 975 q 729 986 739 986 l 225 986 q 214 975 214 986 l 214 644 q 194 267 214 389 q 142 101 175 144 q 36 18 108 57 q 28 10 28 17 l 31 3 l 40 -14 q 54 -17 46 -24 "},"М":{"ha":1093,"x_min":142,"x_max":951,"o":"m 153 0 l 171 0 q 178 2 176 0 q 181 11 181 4 l 181 694 q 178 918 181 842 l 181 918 q 271 738 247 781 l 526 250 q 533 241 529 243 q 542 239 536 239 l 556 239 q 569 250 564 239 l 819 732 q 896 882 847 782 q 914 917 900 888 l 917 917 q 911 694 911 815 l 911 11 q 922 0 911 0 l 940 0 q 951 11 951 0 l 951 975 q 940 986 951 986 l 922 986 q 912 983 915 986 q 906 974 908 981 l 549 286 l 188 975 q 169 986 182 986 l 153 986 q 142 975 142 986 l 142 11 q 153 0 142 0 "},"Н":{"ha":933,"x_min":142,"x_max":792,"o":"m 153 0 l 172 0 q 182 11 182 0 l 182 481 l 751 481 l 751 11 q 761 0 751 0 l 782 0 q 792 11 792 0 l 792 975 q 782 986 792 986 l 761 986 q 751 975 751 986 l 751 519 l 182 519 l 182 975 q 172 986 182 986 l 153 986 q 142 975 142 986 l 142 11 q 153 0 142 0 "},"О":{"ha":907,"x_min":111,"x_max":794,"o":"m 454 -19 q 706 70 618 -19 q 794 319 794 160 l 794 667 q 706 916 794 826 q 454 1006 618 1006 q 200 916 289 1006 q 111 667 111 826 l 111 319 q 200 70 111 160 q 454 -19 289 -19 m 454 18 q 231 98 308 18 q 153 321 153 178 l 153 665 q 231 888 153 808 q 454 968 308 968 q 676 888 599 968 q 754 665 754 808 l 754 321 q 677 98 756 178 q 454 18 599 18 "},"П":{"ha":925,"x_min":142,"x_max":782,"o":"m 153 0 l 172 0 q 182 11 182 0 l 182 949 l 742 949 l 742 11 q 753 0 742 0 l 772 0 q 782 11 782 0 l 782 975 q 772 986 782 986 l 153 986 q 142 975 142 986 l 142 11 q 153 0 142 0 "},"Р":{"ha":847,"x_min":142,"x_max":775,"o":"m 153 0 l 172 0 q 182 11 182 0 l 182 393 l 496 393 q 700 472 625 393 q 775 688 775 550 q 700 907 775 828 q 496 986 625 986 l 153 986 q 142 975 142 986 l 142 11 q 153 0 142 0 m 494 431 l 182 431 l 182 949 l 494 949 q 670 880 606 949 q 735 688 735 811 q 670 499 735 567 q 494 431 606 431 "},"С":{"ha":872,"x_min":111,"x_max":793,"o":"m 453 -19 q 678 42 601 -19 q 792 232 754 104 q 792 242 793 239 q 785 247 790 244 l 768 253 q 751 244 756 257 q 652 75 719 131 q 453 19 585 19 q 230 99 307 19 q 153 318 153 178 l 153 669 q 229 889 153 810 q 453 968 306 968 q 651 915 583 968 q 750 749 719 863 q 764 743 753 739 l 781 747 q 789 756 789 750 q 788 761 789 760 q 677 945 756 885 q 453 1006 599 1006 q 199 916 286 1006 q 111 668 111 826 l 111 319 q 201 71 111 161 q 453 -19 290 -19 "},"Т":{"ha":731,"x_min":42,"x_max":690,"o":"m 356 0 l 375 0 q 386 11 386 0 l 386 949 l 679 949 q 690 960 690 949 l 690 975 q 679 986 690 986 l 51 986 q 42 975 42 986 l 42 960 q 51 949 42 949 l 346 949 l 346 11 q 356 0 346 0 "},"У":{"ha":793,"x_min":32,"x_max":760,"o":"m 257 0 l 276 0 q 296 10 290 0 l 754 975 q 749 986 760 986 l 728 986 q 717 984 719 986 q 711 976 715 982 l 399 319 l 81 976 q 73 985 76 983 q 61 986 69 986 l 42 986 q 34 983 36 986 q 35 975 32 979 l 376 276 l 250 11 q 257 0 243 0 "},"Ф":{"ha":1132,"x_min":99,"x_max":1033,"o":"m 557 -28 l 575 -28 q 586 -17 586 -28 l 586 90 l 681 90 q 942 183 850 90 q 1033 443 1033 276 l 1033 550 q 942 810 1033 717 q 681 903 850 903 l 586 903 l 586 1010 q 575 1021 586 1021 l 557 1021 q 546 1010 546 1021 l 546 903 l 451 903 q 190 810 282 903 q 99 550 99 717 l 99 443 q 190 183 99 276 q 451 90 282 90 l 546 90 l 546 -17 q 557 -28 546 -28 m 546 128 l 453 128 q 219 210 300 128 q 139 442 139 293 l 139 551 q 219 783 139 700 q 453 865 300 865 l 546 865 l 546 128 m 679 128 l 586 128 l 586 865 l 679 865 q 913 783 832 865 q 993 551 993 700 l 993 442 q 913 210 993 293 q 679 128 832 128 "},"Х":{"ha":819,"x_min":39,"x_max":776,"o":"m 53 0 l 76 0 q 88 2 85 0 q 94 10 92 4 l 408 471 l 725 10 q 732 1 729 3 q 743 0 735 0 l 767 0 q 775 4 774 0 q 772 15 776 8 l 435 503 l 763 975 q 764 983 765 979 q 757 986 763 986 l 733 986 q 720 985 724 986 q 714 976 717 983 l 410 532 l 104 976 q 98 985 101 983 q 85 986 94 986 l 63 986 q 55 983 57 986 q 56 975 53 979 l 382 501 l 49 15 q 53 0 39 0 "},"Ч":{"ha":851,"x_min":85,"x_max":710,"o":"m 681 0 l 700 0 q 710 11 710 0 l 710 975 q 700 986 710 986 l 681 986 q 669 975 669 986 l 669 456 q 549 430 610 440 q 401 419 489 419 q 187 493 249 419 q 125 722 125 567 l 125 975 q 114 986 125 986 l 94 986 q 87 984 89 986 q 85 975 85 982 l 85 722 q 158 467 85 553 q 400 381 231 381 q 669 417 542 381 l 669 11 q 681 0 669 0 "},"Ц":{"ha":944,"x_min":142,"x_max":888,"o":"m 860 -212 l 878 -212 q 885 -210 883 -212 q 888 -201 888 -208 l 888 26 q 885 35 888 33 q 878 38 883 38 l 785 38 l 785 975 q 774 986 785 986 l 756 986 q 744 975 744 986 l 744 38 l 182 38 l 182 975 q 171 986 182 986 l 153 986 q 142 975 142 986 l 142 11 q 153 0 142 0 l 849 0 l 849 -201 q 860 -212 849 -212 "},"Ш":{"ha":1242,"x_min":142,"x_max":1100,"o":"m 153 0 l 1089 0 q 1100 11 1100 0 l 1100 975 q 1089 986 1100 986 l 1071 986 q 1060 975 1060 986 l 1060 38 l 642 38 l 642 975 q 631 986 642 986 l 611 986 q 601 975 601 986 l 601 38 l 182 38 l 182 975 q 171 986 182 986 l 153 986 q 142 975 142 986 l 142 11 q 153 0 142 0 "},"Щ":{"ha":1268,"x_min":142,"x_max":1213,"o":"m 1183 -212 l 1201 -212 q 1213 -201 1213 -212 l 1213 26 q 1201 38 1213 38 l 1106 38 l 1106 975 q 1094 986 1106 986 l 1075 986 q 1065 975 1065 986 l 1065 38 l 644 38 l 644 975 q 633 986 644 986 l 614 986 q 604 975 604 986 l 604 38 l 182 38 l 182 975 q 172 986 182 986 l 153 986 q 142 975 142 986 l 142 11 q 153 0 142 0 l 1172 0 l 1172 -201 q 1183 -212 1172 -212 "},"Ь":{"ha":847,"x_min":142,"x_max":775,"o":"m 153 0 l 497 0 q 701 79 626 0 q 775 299 775 158 q 701 515 775 436 q 497 593 626 593 l 182 593 l 182 975 q 172 986 182 986 l 153 986 q 142 975 142 986 l 142 11 q 153 0 142 0 m 496 38 l 182 38 l 182 556 l 496 556 q 670 488 606 556 q 735 299 735 419 q 670 107 735 176 q 496 38 606 38 "},"Ъ":{"ha":988,"x_min":42,"x_max":915,"o":"m 279 0 l 632 0 q 839 79 763 0 q 915 299 915 158 q 839 515 915 436 q 632 593 763 593 l 310 593 l 310 975 q 299 986 310 986 l 51 986 q 42 975 42 986 l 42 960 q 51 949 42 949 l 269 949 l 269 11 q 279 0 269 0 m 629 38 l 310 38 l 310 556 l 629 556 q 810 488 744 556 q 875 299 875 419 q 810 106 875 175 q 629 38 744 38 "},"Ы":{"ha":1142,"x_min":142,"x_max":1000,"o":"m 153 0 l 499 0 q 702 79 628 0 q 776 299 776 158 q 702 515 776 436 q 499 593 628 593 l 182 593 l 182 975 q 172 986 182 986 l 153 986 q 142 975 142 986 l 142 11 q 153 0 142 0 m 969 0 l 989 0 q 1000 11 1000 0 l 1000 975 q 989 986 1000 986 l 969 986 q 962 984 964 986 q 960 975 960 982 l 960 11 q 962 2 960 4 q 969 0 964 0 m 496 38 l 182 38 l 182 556 l 496 556 q 672 488 608 556 q 736 299 736 419 q 672 106 736 175 q 496 38 608 38 "},"Э":{"ha":878,"x_min":85,"x_max":765,"o":"m 425 -19 q 676 70 588 -19 q 765 318 765 160 l 765 669 q 678 917 765 828 q 425 1006 592 1006 q 201 946 279 1006 q 90 763 124 886 q 97 747 86 751 l 113 743 q 123 743 119 742 q 128 750 126 744 q 226 916 157 864 q 425 968 294 968 q 649 890 572 968 q 725 671 725 813 l 725 518 l 286 518 q 276 507 276 518 l 276 490 q 278 483 276 485 q 286 481 281 481 l 725 481 l 725 317 q 647 97 725 176 q 425 18 569 18 q 224 73 292 18 q 124 244 156 128 q 115 253 122 253 q 110 251 111 253 l 93 246 q 85 238 85 244 l 86 231 q 197 42 119 104 q 425 -19 275 -19 "},"Ю":{"ha":1251,"x_min":142,"x_max":1140,"o":"m 794 -19 q 1051 69 963 -19 q 1140 317 1140 158 l 1140 669 q 1051 917 1140 828 q 794 1006 963 1006 q 537 917 626 1006 q 447 669 447 828 l 447 519 l 182 519 l 182 975 q 172 986 182 986 l 153 986 q 142 975 142 986 l 142 11 q 153 0 142 0 l 172 0 q 182 11 182 0 l 182 481 l 447 481 l 447 317 q 537 69 447 158 q 794 -19 626 -19 m 794 18 q 567 97 646 18 q 488 318 488 176 l 488 668 q 567 890 488 811 q 794 968 646 968 q 1022 889 943 968 q 1100 668 1100 810 l 1100 318 q 1022 97 1100 176 q 794 18 943 18 "},"Я":{"ha":878,"x_min":76,"x_max":736,"o":"m 86 0 l 103 0 q 117 2 113 0 q 124 10 121 4 l 253 306 q 331 413 285 381 q 456 446 376 446 l 694 446 l 694 11 q 706 0 694 0 l 725 0 q 736 11 736 0 l 736 975 q 725 986 736 986 l 357 986 q 169 915 238 986 q 101 714 101 843 q 162 526 101 594 q 331 449 222 458 q 264 403 290 433 q 217 324 238 374 l 79 13 q 78 3 76 7 q 86 0 81 0 m 694 483 l 358 483 q 199 544 257 483 q 142 714 142 604 q 199 888 142 826 q 358 949 256 949 l 694 949 l 694 483 "},"а":{"ha":697,"x_min":83,"x_max":583,"o":"m 347 -19 q 539 17 464 -19 q 574 44 565 29 q 583 96 583 60 l 583 474 q 527 667 583 604 q 347 729 471 729 q 106 582 174 729 q 110 567 100 571 l 122 561 q 136 567 132 558 q 347 696 200 696 q 499 643 451 696 q 547 475 547 590 l 547 378 q 351 396 444 396 q 149 346 214 396 q 83 190 83 296 q 147 31 83 82 q 347 -19 210 -19 m 344 13 q 175 56 229 13 q 121 190 121 100 q 176 322 121 281 q 349 364 231 364 q 547 346 439 364 l 547 101 q 541 65 547 75 q 515 44 535 54 q 344 13 444 13 "},"б":{"ha":758,"x_min":119,"x_max":658,"o":"m 389 -19 q 590 50 521 -19 q 658 243 658 119 l 658 439 q 590 631 658 563 q 392 700 522 700 q 243 659 301 700 q 157 569 185 618 l 157 604 q 184 830 157 749 q 276 947 211 911 q 458 983 342 983 l 507 983 q 624 1006 592 983 q 632 1014 632 1010 l 631 1019 l 624 1033 q 617 1042 622 1042 l 610 1039 q 506 1018 578 1018 l 457 1018 q 254 978 326 1018 q 151 847 182 938 q 119 600 119 757 l 119 243 q 188 50 119 119 q 389 -19 257 -19 m 389 15 q 217 76 276 15 q 157 243 157 136 l 157 515 q 193 575 167 540 q 269 638 219 610 q 389 665 319 665 q 561 606 501 665 q 621 438 621 546 l 621 243 q 561 75 621 135 q 389 15 501 15 "},"в":{"ha":731,"x_min":126,"x_max":639,"o":"m 138 0 l 449 0 q 589 50 539 0 q 639 190 639 100 q 610 306 639 261 q 517 371 581 350 q 615 533 615 413 q 567 664 615 618 q 431 710 518 710 l 138 710 q 126 699 126 710 l 126 11 q 138 0 126 0 m 435 385 l 164 385 l 164 676 l 425 676 q 540 640 500 676 q 579 532 579 603 q 540 423 579 461 q 435 385 500 385 m 444 33 l 164 33 l 164 353 l 440 353 q 560 311 518 353 q 601 193 601 269 q 560 75 601 117 q 444 33 519 33 "},"г":{"ha":579,"x_min":126,"x_max":531,"o":"m 136 0 l 154 0 q 164 10 164 0 l 164 675 l 521 675 q 528 677 526 675 q 531 685 531 679 l 531 700 q 528 708 531 706 q 521 710 526 710 l 136 710 q 126 700 126 710 l 126 10 q 136 0 126 0 "},"д":{"ha":789,"x_min":40,"x_max":735,"o":"m 50 -193 l 65 -193 q 78 -183 78 -193 l 78 0 l 697 0 l 697 -183 q 710 -193 697 -193 l 725 -193 q 735 -183 735 -193 l 735 25 q 725 35 735 35 l 644 35 l 644 700 q 635 710 644 710 l 206 710 q 196 700 196 710 l 196 472 q 183 233 196 321 q 149 103 169 144 q 99 35 129 63 l 50 35 q 40 25 40 35 l 40 -183 q 50 -193 40 -193 m 607 35 l 144 35 q 210 177 188 82 q 233 471 233 272 l 233 675 l 607 675 l 607 35 "},"е":{"ha":721,"x_min":99,"x_max":629,"o":"m 357 -19 q 622 146 546 -19 q 624 153 625 150 q 618 160 622 157 l 606 167 q 590 163 596 172 q 502 52 557 90 q 357 14 447 14 q 192 76 249 14 q 135 247 135 139 l 135 351 l 607 351 q 629 374 629 351 l 629 443 q 563 653 629 576 q 365 729 496 729 q 167 653 235 729 q 99 442 99 576 l 99 250 q 164 52 99 124 q 357 -19 229 -19 m 593 382 l 135 382 l 135 444 q 194 628 135 561 q 365 696 253 696 q 535 628 478 696 q 593 444 593 561 l 593 382 "},"ё":{"ha":721,"x_min":99,"x_max":629,"o":"m 357 -19 q 622 146 546 -19 q 624 153 625 150 q 618 160 622 157 l 606 167 q 590 163 596 172 q 502 52 557 90 q 357 14 447 14 q 192 76 249 14 q 135 247 135 139 l 135 351 l 607 351 q 629 374 629 351 l 629 443 q 563 653 629 576 q 365 729 496 729 q 167 653 235 729 q 99 442 99 576 l 99 250 q 164 52 99 124 q 357 -19 229 -19 m 593 382 l 135 382 l 135 444 q 194 628 135 561 q 365 696 253 696 q 535 628 478 696 q 593 444 593 561 l 593 382 m 242 876 l 250 876 q 268 881 264 876 q 272 899 272 885 l 272 908 q 268 926 272 921 q 250 931 264 931 l 242 931 q 224 926 229 931 q 218 908 218 921 l 218 899 q 224 881 218 886 q 242 876 229 876 m 478 876 l 486 876 q 504 881 499 876 q 510 899 510 886 l 510 908 q 504 926 510 921 q 486 931 499 931 l 478 931 q 459 926 464 931 q 454 908 454 921 l 454 899 q 459 881 454 885 q 478 876 464 876 "},"ж":{"ha":1015,"x_min":58,"x_max":958,"o":"m 65 0 l 85 0 q 97 1 93 0 q 101 8 100 3 l 214 251 q 270 326 238 303 q 358 349 303 349 l 489 349 l 489 11 q 499 0 489 0 l 515 0 q 526 11 526 0 l 526 349 l 657 349 q 744 326 711 349 q 801 251 776 303 l 914 8 q 919 1 917 3 q 931 0 922 0 l 947 0 q 954 11 958 0 l 835 268 q 788 338 814 313 q 726 374 763 364 l 944 697 q 938 710 953 710 l 922 710 q 910 708 914 710 q 901 701 906 707 l 689 382 q 657 383 681 383 l 526 383 l 526 700 q 515 710 526 710 l 499 710 q 489 700 489 710 l 489 383 l 358 383 q 325 382 335 383 l 113 701 q 103 708 108 707 q 92 710 99 710 l 76 710 q 67 704 67 710 l 69 697 l 289 374 q 227 338 253 364 q 181 268 201 313 l 61 11 q 59 3 58 7 q 65 0 60 0 "},"з":{"ha":703,"x_min":75,"x_max":611,"o":"m 358 -19 q 548 36 485 -19 q 611 186 611 92 q 494 367 611 333 l 494 368 q 599 533 599 408 q 535 674 599 619 q 353 729 472 729 q 199 690 257 729 q 122 621 140 651 q 86 547 104 590 q 92 532 82 536 l 106 526 q 114 527 111 525 q 119 536 117 529 q 196 646 135 597 q 353 694 257 694 q 507 649 454 694 q 560 532 560 603 q 521 422 560 461 q 406 382 482 382 l 261 382 q 254 380 256 382 q 253 371 253 378 l 253 360 q 254 351 253 353 q 261 349 256 349 l 407 349 q 533 309 493 349 q 572 189 572 269 q 518 63 572 110 q 357 15 464 15 q 213 53 267 15 q 167 78 160 90 q 111 189 174 65 q 106 197 108 196 q 99 196 104 197 l 85 192 q 75 182 75 188 l 76 178 q 118 95 100 126 q 197 22 136 64 q 358 -19 258 -19 "},"и":{"ha":774,"x_min":126,"x_max":647,"o":"m 136 0 l 157 0 q 168 7 165 0 l 547 554 q 613 654 564 578 l 615 654 q 610 514 610 594 l 610 10 q 619 0 610 0 l 638 0 q 645 2 643 0 q 647 10 647 4 l 647 700 q 645 708 647 706 q 638 710 643 710 l 617 710 q 607 704 611 710 l 221 149 q 161 56 189 101 l 160 56 q 164 183 164 118 l 164 700 q 154 710 164 710 l 136 710 q 126 700 126 710 l 126 10 q 136 0 126 0 "},"й":{"ha":725,"x_min":126,"x_max":647,"o":"m 136 0 l 157 0 q 168 7 165 0 l 547 554 q 613 654 564 578 l 615 654 q 610 514 610 594 l 610 10 q 619 0 610 0 l 638 0 q 645 2 643 0 q 647 10 647 4 l 647 700 q 645 708 647 706 q 638 710 643 710 l 617 710 q 607 704 611 710 l 221 149 q 161 56 189 101 l 160 56 q 164 183 164 118 l 164 700 q 154 710 164 710 l 136 710 q 126 700 126 710 l 126 10 q 136 0 126 0 m 396 822 q 512 860 468 822 q 578 979 556 897 q 578 988 579 986 q 571 992 576 990 l 557 996 q 547 989 549 999 q 492 886 528 918 q 396 854 457 854 q 299 887 335 854 q 244 989 263 919 q 235 996 242 996 l 233 996 l 219 992 q 214 979 211 989 q 278 860 235 897 q 396 822 322 822 "},"к":{"ha":704,"x_min":126,"x_max":650,"o":"m 136 0 l 154 0 q 164 11 164 0 l 164 349 l 361 349 q 444 326 413 349 q 499 251 476 303 l 606 8 q 611 1 608 3 q 624 0 614 0 l 639 0 q 646 11 650 0 l 532 268 q 481 344 508 318 q 411 376 454 369 l 638 697 q 629 710 644 710 l 615 710 q 603 708 607 710 q 594 701 599 707 l 372 383 l 358 383 l 164 383 l 164 700 q 154 710 164 710 l 136 710 q 126 700 126 710 l 126 11 q 136 0 126 0 "},"л":{"ha":733,"x_min":25,"x_max":606,"o":"m 49 -19 q 134 48 100 7 q 189 185 168 89 q 210 450 210 281 l 210 674 l 568 674 l 568 10 q 579 0 568 0 l 596 0 q 603 2 601 0 q 606 10 606 4 l 606 700 q 603 708 606 706 q 596 710 601 710 l 182 710 q 172 700 172 710 l 172 451 q 152 193 172 283 q 104 69 132 103 q 32 14 76 36 q 29 3 25 11 l 38 -15 q 49 -19 42 -24 "},"м":{"ha":879,"x_min":126,"x_max":751,"o":"m 138 0 l 153 0 q 160 2 158 0 q 163 11 163 4 l 163 483 q 160 646 163 590 l 163 646 l 193 586 l 231 513 l 424 140 q 429 132 426 133 q 439 131 432 131 l 447 131 q 457 132 454 131 q 463 140 460 133 l 656 522 q 688 589 672 558 q 718 646 704 619 l 719 646 q 715 496 715 569 l 715 11 q 718 2 715 4 q 728 0 721 0 l 740 0 q 749 2 747 0 q 751 11 751 4 l 751 697 q 749 707 751 704 q 740 710 747 710 l 722 710 q 714 707 717 710 q 708 699 711 704 l 443 171 l 171 700 q 156 710 167 710 l 139 710 q 129 707 132 710 q 126 697 126 704 l 126 11 q 138 0 126 0 "},"н":{"ha":767,"x_min":126,"x_max":640,"o":"m 136 0 l 154 0 q 164 10 164 0 l 164 349 l 603 349 l 603 10 q 613 0 603 0 l 631 0 q 640 10 640 0 l 640 700 q 631 710 640 710 l 613 710 q 603 700 603 710 l 603 383 l 164 383 l 164 700 q 154 710 164 710 l 136 710 q 126 700 126 710 l 126 10 q 136 0 126 0 "},"о":{"ha":738,"x_min":103,"x_max":635,"o":"m 368 -19 q 563 44 490 -19 q 635 217 635 107 l 635 493 q 562 665 635 601 q 368 729 489 729 q 176 665 249 729 q 103 493 103 601 l 103 217 q 176 44 103 107 q 368 -19 249 -19 m 368 15 q 203 70 267 15 q 140 215 140 125 l 140 494 q 203 640 140 586 q 368 694 265 694 q 535 640 472 694 q 597 494 597 586 l 597 215 q 535 69 597 124 q 368 15 472 15 "},"п":{"ha":760,"x_min":126,"x_max":633,"o":"m 136 0 l 154 0 q 164 10 164 0 l 164 675 l 596 675 l 596 10 q 606 0 596 0 l 624 0 q 633 10 633 0 l 633 700 q 624 710 633 710 l 136 710 q 126 700 126 710 l 126 10 q 136 0 126 0 "},"р":{"ha":733,"x_min":122,"x_max":631,"o":"m 132 -306 l 150 -306 q 158 -303 156 -306 q 160 -296 160 -301 l 160 43 q 260 1 199 21 q 394 -19 321 -19 q 631 244 631 -19 l 631 453 q 371 729 631 729 q 172 690 258 729 q 132 661 142 675 q 122 614 122 647 l 122 -296 q 132 -306 122 -306 m 390 17 q 258 38 318 17 q 160 81 197 58 l 160 606 q 166 639 160 631 q 196 658 172 647 q 272 684 225 674 q 371 694 318 694 q 539 634 485 694 q 593 451 593 574 l 593 246 q 390 17 593 17 "},"с":{"ha":706,"x_min":100,"x_max":629,"o":"m 363 -19 q 531 28 471 -19 q 625 179 590 75 q 618 193 629 190 l 601 199 q 594 199 596 200 q 589 192 592 197 q 508 57 560 99 q 364 15 457 15 q 197 77 256 15 q 138 246 138 139 l 138 465 q 195 633 138 572 q 364 694 253 694 q 511 654 461 694 q 586 524 561 614 q 600 518 589 514 l 615 522 q 621 538 624 526 q 535 681 594 633 q 364 729 475 729 q 167 660 235 729 q 100 465 100 590 l 100 246 q 168 51 100 121 q 363 -19 236 -19 "},"т":{"ha":596,"x_min":44,"x_max":551,"o":"m 292 0 l 308 0 q 318 10 318 0 l 318 675 l 542 675 q 551 685 551 675 l 551 700 q 542 710 551 710 l 54 710 q 44 700 44 710 l 44 685 q 54 675 44 675 l 281 675 l 281 10 q 292 0 281 0 "},"у":{"ha":754,"x_min":119,"x_max":628,"o":"m 369 -357 q 628 -57 628 -357 l 628 700 q 618 710 628 710 l 600 710 q 590 700 590 710 l 590 72 q 489 35 543 50 q 363 19 435 19 q 207 78 257 19 q 157 253 157 138 l 157 700 q 155 708 157 706 q 147 710 153 710 l 129 710 q 119 700 119 710 l 119 250 q 178 53 119 122 q 358 -15 236 -15 q 483 -1 435 -15 q 590 38 532 13 l 590 -60 q 368 -322 590 -322 q 241 -285 289 -322 q 163 -178 193 -247 q 154 -171 160 -171 q 146 -172 149 -171 l 135 -178 q 128 -187 128 -182 q 131 -196 128 -190 q 220 -315 164 -274 q 369 -357 276 -357 "},"ф":{"ha":1017,"x_min":99,"x_max":917,"o":"m 500 -306 l 518 -306 q 528 -296 528 -306 l 528 -11 q 642 -19 606 -19 q 917 254 917 -19 l 917 456 q 642 729 917 729 q 528 721 606 729 l 528 1017 q 518 1028 528 1028 l 500 1028 q 490 1017 490 1028 l 490 721 q 374 729 413 729 q 179 665 260 729 q 99 443 99 601 l 99 254 q 374 -19 99 -19 q 490 -11 413 -19 l 490 -296 q 500 -306 490 -306 m 374 17 q 207 66 278 17 q 136 256 136 115 l 136 443 q 208 639 136 585 q 374 693 281 693 q 490 686 440 693 l 490 24 q 374 17 424 17 m 642 17 q 528 24 593 17 l 528 686 q 642 693 576 693 q 879 454 879 693 l 879 256 q 808 66 879 115 q 642 17 738 17 "},"х":{"ha":646,"x_min":44,"x_max":603,"o":"m 56 0 l 76 0 q 87 1 83 0 q 93 8 90 3 l 325 338 l 553 8 q 559 2 556 4 q 569 0 563 0 l 592 0 q 597 10 603 0 l 350 367 l 583 700 q 576 710 589 710 l 556 710 q 546 708 549 710 q 540 701 543 707 l 324 392 l 106 701 q 99 708 103 707 q 89 710 94 710 l 69 710 q 63 700 56 710 l 299 364 l 50 10 q 56 0 44 0 "},"ч":{"ha":690,"x_min":78,"x_max":564,"o":"m 536 0 l 554 0 q 564 10 564 0 l 564 700 q 554 710 564 710 l 536 710 q 526 700 526 710 l 526 347 q 326 308 419 308 q 165 357 215 308 q 115 515 115 406 l 115 700 q 106 710 115 710 l 88 710 q 78 700 78 710 l 78 514 q 137 332 78 390 q 322 274 196 274 q 429 284 385 274 q 526 311 474 294 l 526 10 q 536 0 526 0 "},"ц":{"ha":774,"x_min":126,"x_max":719,"o":"m 693 -193 l 710 -193 q 717 -191 715 -193 q 719 -183 719 -189 l 719 25 q 717 33 719 31 q 710 35 715 35 l 632 35 l 632 700 q 622 710 632 710 l 604 710 q 594 700 594 710 l 594 35 l 164 35 l 164 700 q 154 710 164 710 l 136 710 q 126 700 126 710 l 126 10 q 136 0 126 0 l 683 0 l 683 -183 q 693 -193 683 -193 "},"ш":{"ha":1043,"x_min":126,"x_max":917,"o":"m 136 0 l 907 0 q 917 10 917 0 l 917 700 q 907 710 917 710 l 890 710 q 879 700 879 710 l 879 35 l 540 35 l 540 700 q 531 710 540 710 l 513 710 q 503 700 503 710 l 503 35 l 164 35 l 164 700 q 153 710 164 710 l 136 710 q 126 700 126 710 l 126 10 q 136 0 126 0 "},"щ":{"ha":1067,"x_min":126,"x_max":1011,"o":"m 985 -193 l 1001 -193 q 1011 -183 1011 -193 l 1011 25 q 1001 35 1011 35 l 922 35 l 922 700 q 920 708 922 706 q 913 710 918 710 l 896 710 q 885 700 885 710 l 885 35 l 543 35 l 543 700 q 533 710 543 710 l 515 710 q 506 700 506 710 l 506 35 l 164 35 l 164 700 q 154 710 164 710 l 136 710 q 126 700 126 710 l 126 10 q 136 0 126 0 l 974 0 l 974 -183 q 985 -193 974 -193 "},"ь":{"ha":706,"x_min":126,"x_max":635,"o":"m 136 0 l 421 0 q 578 60 522 0 q 635 235 635 121 q 578 406 635 346 q 421 467 522 467 l 164 467 l 164 700 q 154 710 164 710 l 136 710 q 126 700 126 710 l 126 10 q 136 0 126 0 m 417 35 l 164 35 l 164 432 l 417 432 q 550 382 503 432 q 597 235 597 332 q 550 86 597 138 q 417 35 503 35 "},"ъ":{"ha":838,"x_min":44,"x_max":767,"o":"m 253 0 l 546 0 q 709 60 651 0 q 767 235 767 121 q 709 406 767 346 q 546 467 651 467 l 281 467 l 281 700 q 278 708 281 706 q 271 710 276 710 l 54 710 q 47 708 49 710 q 44 700 44 706 l 44 685 q 47 677 44 679 q 54 675 49 675 l 243 675 l 243 10 q 253 0 243 0 m 543 35 l 281 35 l 281 432 l 543 432 q 681 382 632 432 q 729 235 729 332 q 681 86 729 138 q 543 35 632 35 "},"ы":{"ha":950,"x_min":126,"x_max":824,"o":"m 136 0 l 426 0 q 589 60 532 0 q 646 235 646 121 q 588 407 646 347 q 426 467 531 467 l 164 467 l 164 700 q 154 710 164 710 l 136 710 q 126 700 126 710 l 126 10 q 136 0 126 0 m 796 0 l 814 0 q 824 10 824 0 l 824 700 q 814 710 824 710 l 796 710 q 786 700 786 710 l 786 10 q 796 0 786 0 m 424 35 l 164 35 l 164 432 l 424 432 q 561 382 514 432 q 608 235 608 332 q 561 86 608 138 q 424 35 514 35 "},"э":{"ha":703,"x_min":76,"x_max":603,"o":"m 340 -19 q 535 51 467 -19 q 603 247 603 121 l 603 464 q 536 660 603 590 q 340 729 469 729 q 168 681 228 729 q 83 538 108 633 q 83 528 82 531 q 90 522 85 525 l 104 519 q 112 519 110 518 q 117 525 114 519 q 191 655 140 615 q 340 694 242 694 q 508 633 450 694 q 565 465 565 572 l 565 382 l 258 382 q 249 371 249 382 l 249 357 q 258 346 249 346 l 565 346 l 565 246 q 507 77 565 139 q 340 15 449 15 q 191 59 246 15 q 114 196 136 103 q 104 204 110 204 l 99 203 l 85 199 q 78 193 79 196 q 78 185 76 190 q 168 31 104 82 q 340 -19 232 -19 "},"ю":{"ha":1018,"x_min":126,"x_max":913,"o":"m 643 -19 q 840 42 767 -19 q 913 213 913 104 l 913 496 q 840 667 913 604 q 643 729 767 729 q 449 667 522 729 q 375 497 375 604 l 375 378 l 164 378 l 164 700 q 153 710 164 710 l 136 710 q 126 700 126 710 l 126 10 q 136 0 126 0 l 153 0 q 164 10 164 0 l 164 343 l 375 343 l 375 213 q 449 43 375 106 q 643 -19 522 -19 m 643 15 q 475 69 539 15 q 411 213 411 122 l 411 497 q 475 641 411 588 q 643 694 539 694 q 812 641 749 694 q 875 497 875 588 l 875 213 q 812 69 875 122 q 643 15 749 15 "},"я":{"ha":719,"x_min":83,"x_max":594,"o":"m 94 0 l 111 0 q 123 2 119 0 q 129 10 126 4 l 297 276 l 557 276 l 557 10 q 568 0 557 0 l 585 0 q 594 10 594 0 l 594 699 q 583 710 594 710 l 292 710 q 146 652 200 710 q 92 492 92 594 q 138 347 92 403 q 258 282 183 292 l 88 13 q 85 3 83 6 q 94 0 86 0 m 557 311 l 299 311 q 174 360 221 311 q 128 492 128 408 q 174 626 128 578 q 297 675 219 675 l 557 675 l 557 311 "},"π":{"ha":821,"x_min":35,"x_max":775,"o":"m 686 -1 l 701 6 q 704 22 711 11 q 673 98 681 60 q 665 199 665 136 l 665 675 l 765 675 q 775 686 775 675 l 775 700 q 765 710 775 710 l 238 710 q 133 698 176 710 q 44 657 90 686 q 39 642 35 651 l 46 628 q 52 623 49 624 q 61 626 56 622 q 137 663 104 653 q 218 675 169 674 l 218 10 q 228 0 218 0 l 246 0 q 256 10 256 0 l 256 675 l 628 675 l 628 200 q 637 90 628 133 q 671 4 646 47 q 677 -3 674 -3 q 686 -1 681 -4 "},"⁄":{"ha":222,"x_min":-214,"x_max":433,"o":"m -200 0 l -187 0 q -174 2 -178 0 q -167 11 -171 4 l 429 974 q 431 983 433 979 q 422 986 429 986 l 410 986 q 399 984 401 986 q 390 975 396 982 l -206 13 q -200 0 -214 0 "},"½":{"ha":1117,"x_min":68,"x_max":1029,"o":"m 254 444 l 267 444 q 278 456 278 444 l 278 982 q 267 993 278 993 l 260 993 q 244 989 251 993 l 75 890 q 68 882 68 886 q 71 875 68 881 l 75 867 q 83 861 79 861 q 90 863 89 861 l 243 950 l 243 456 q 254 444 243 444 m 203 0 l 215 0 q 228 2 225 0 q 236 11 232 4 l 832 974 q 834 983 836 979 q 825 986 832 986 l 813 986 q 801 984 804 986 q 793 975 799 982 l 197 13 q 203 0 189 0 m 708 0 l 1015 0 q 1026 10 1026 0 l 1026 21 q 1015 32 1026 32 l 731 32 l 731 85 q 749 164 731 135 q 806 210 767 193 l 879 242 q 928 263 890 247 q 998 308 967 279 q 1029 401 1029 338 q 989 517 1029 475 q 871 560 949 560 q 750 515 794 560 q 696 413 706 471 q 703 400 692 403 l 715 397 q 724 397 721 396 q 728 406 726 399 q 772 490 735 453 q 869 528 808 528 q 963 494 932 528 q 994 400 994 461 q 975 333 994 358 q 917 292 956 307 q 865 271 878 276 l 789 238 q 694 78 694 197 l 694 14 q 708 0 694 0 "},"⅓":{"ha":1144,"x_min":68,"x_max":1063,"o":"m 254 444 l 267 444 q 278 456 278 444 l 278 982 q 267 993 278 993 l 260 993 q 244 989 251 993 l 75 890 q 68 882 68 886 q 71 875 68 881 l 75 867 q 83 861 79 861 q 90 863 89 861 l 243 950 l 243 456 q 254 444 243 444 m 218 0 l 231 0 q 244 2 240 0 q 251 11 247 4 l 847 974 q 849 983 851 979 q 840 986 847 986 l 828 986 q 817 984 819 986 q 808 975 814 982 l 213 13 q 218 0 204 0 m 897 -11 q 1020 31 978 -11 q 1063 144 1063 74 q 1041 229 1063 193 q 981 283 1019 265 q 1032 333 1015 300 q 1049 407 1049 367 q 1008 518 1049 476 q 896 560 968 560 q 776 526 818 560 q 713 413 733 493 q 718 399 710 403 l 726 396 q 737 396 733 394 q 743 404 740 397 q 795 501 760 474 q 896 529 831 529 q 984 495 951 529 q 1017 406 1017 461 q 994 329 1017 361 q 929 297 971 297 l 836 297 q 828 295 831 297 q 826 288 826 293 l 826 276 q 828 269 826 271 q 836 267 831 267 l 931 267 q 1001 231 974 267 q 1029 146 1029 196 q 995 54 1029 89 q 897 19 961 19 q 792 50 829 19 q 740 151 756 81 q 733 160 736 160 q 728 158 729 160 l 715 154 q 710 151 711 153 q 710 140 708 149 q 772 26 726 63 q 897 -11 817 -11 "},"⅔":{"ha":1169,"x_min":92,"x_max":1088,"o":"m 107 444 l 415 444 q 426 454 426 444 l 426 465 q 415 476 426 476 l 131 476 l 131 529 q 149 610 131 581 q 206 656 167 639 l 279 688 q 328 709 290 693 q 398 754 367 725 q 429 847 429 783 q 389 963 429 921 q 271 1006 349 1006 q 150 961 194 1006 q 96 858 106 917 q 103 846 92 849 l 115 843 q 124 843 121 842 q 128 850 126 844 q 171 935 135 897 q 269 974 207 974 q 363 940 332 974 q 394 846 394 907 q 375 778 394 804 q 317 738 356 753 q 265 717 278 722 l 189 683 q 117 623 140 663 q 94 522 94 583 l 94 458 q 107 444 94 444 m 285 0 l 297 0 q 310 2 307 0 q 318 11 314 4 l 914 974 q 916 983 918 979 q 907 986 914 986 l 894 986 q 883 984 886 986 q 875 975 881 982 l 279 13 q 285 0 271 0 m 922 -11 q 1045 31 1003 -11 q 1088 144 1088 74 q 1066 229 1088 193 q 1006 283 1044 265 q 1057 333 1040 300 q 1074 407 1074 367 q 1033 518 1074 476 q 921 560 993 560 q 801 526 843 560 q 738 413 758 493 q 743 399 735 403 l 751 396 q 761 396 758 394 q 767 404 764 397 q 819 501 783 474 q 921 529 856 529 q 1009 495 976 529 q 1042 406 1042 461 q 1019 329 1042 361 q 954 297 996 297 l 861 297 q 853 296 856 297 q 851 288 851 294 l 851 276 q 853 269 851 271 q 861 267 856 267 l 956 267 q 1026 231 999 267 q 1054 146 1054 196 q 1020 54 1054 89 q 922 19 986 19 q 817 50 854 19 q 765 151 781 81 q 757 160 761 160 q 753 158 754 160 l 740 154 q 735 151 736 153 q 735 140 733 149 q 797 26 751 63 q 922 -11 842 -11 "},"¼":{"ha":1035,"x_min":69,"x_max":964,"o":"m 256 443 l 268 443 q 276 445 274 443 q 278 454 278 447 l 278 982 q 276 990 278 989 q 268 992 275 992 l 261 992 q 244 989 256 992 l 76 889 q 69 881 69 886 q 71 874 69 876 l 76 867 q 85 860 81 860 q 92 863 86 860 l 244 949 l 244 454 q 256 443 244 443 m 215 0 l 228 0 q 241 2 238 0 q 250 11 244 4 l 844 974 q 839 986 853 986 l 825 986 q 815 984 818 986 q 807 975 811 982 l 210 13 q 215 0 201 0 m 863 0 l 878 0 q 886 10 886 0 l 886 164 l 954 164 q 963 166 961 164 q 964 175 964 168 l 964 185 q 962 192 964 190 q 954 194 960 194 l 886 194 l 886 538 q 884 547 886 544 q 875 549 882 549 l 861 549 q 851 547 856 549 q 843 540 847 546 l 589 197 q 585 182 585 193 l 585 174 q 594 164 585 164 l 853 164 l 853 10 q 863 0 853 0 m 853 194 l 624 194 l 853 506 l 853 194 "},"¾":{"ha":1103,"x_min":85,"x_max":1031,"o":"m 274 435 q 397 477 354 435 q 440 590 440 519 q 419 674 440 638 q 357 731 397 711 q 408 779 392 746 q 426 854 425 813 q 384 964 425 922 q 272 1006 343 1006 q 153 972 196 1006 q 89 860 110 939 q 94 846 86 849 l 103 842 q 113 842 110 840 q 119 851 117 844 q 172 947 136 919 q 272 975 208 975 q 360 941 328 975 q 393 851 393 907 q 370 775 393 807 q 306 743 347 743 l 213 743 q 205 741 207 743 q 203 733 203 739 l 203 722 q 205 715 203 717 q 213 713 207 713 l 308 713 q 378 677 350 713 q 406 592 406 642 q 372 501 406 535 q 274 467 338 467 q 169 497 206 467 q 117 597 132 528 q 110 606 113 606 l 104 606 l 92 601 q 86 597 88 599 q 86 586 85 594 q 148 472 103 508 q 274 435 193 435 m 282 0 l 296 0 q 309 2 306 0 q 317 11 313 4 l 911 974 q 906 986 919 986 l 893 986 q 882 984 885 986 q 874 975 879 982 l 278 13 q 282 0 269 0 m 929 0 l 944 0 q 954 10 954 0 l 954 164 l 1022 164 q 1029 166 1028 164 q 1031 175 1031 168 l 1031 185 q 1022 194 1031 194 l 954 194 l 954 538 q 943 549 954 549 l 928 549 q 919 547 922 549 q 910 540 915 546 l 656 197 q 653 182 653 193 l 653 174 q 661 164 653 164 l 921 164 l 921 10 q 929 0 921 0 m 921 194 l 690 194 l 921 506 l 921 194 "},"⅛":{"ha":1142,"x_min":69,"x_max":1063,"o":"m 256 444 l 268 444 q 276 447 274 444 q 278 456 278 449 l 278 982 q 276 991 278 989 q 268 993 274 993 l 261 993 q 244 989 253 993 l 76 890 q 69 882 69 886 q 71 875 69 878 l 76 867 q 85 861 81 861 q 92 863 89 861 l 244 950 l 244 456 q 256 444 244 444 m 215 0 l 228 0 q 241 2 238 0 q 250 11 244 4 l 844 974 q 839 986 853 986 l 825 986 q 814 984 817 986 q 807 975 811 982 l 210 13 q 215 0 201 0 m 879 -11 q 1015 27 967 -11 q 1063 146 1063 65 q 1034 231 1063 199 q 947 278 1006 263 q 1016 327 986 293 q 1046 419 1046 361 q 1002 522 1046 485 q 879 560 958 560 q 753 521 799 560 q 708 411 708 482 q 731 331 708 363 q 804 281 754 299 q 727 229 760 264 q 694 133 694 194 q 743 26 694 63 q 879 -11 792 -11 m 901 289 q 776 329 811 303 q 742 411 742 356 q 778 499 742 468 q 879 531 815 531 q 977 500 942 531 q 1013 418 1013 469 q 976 328 1013 357 q 901 289 940 299 m 879 18 q 768 49 808 18 q 728 136 728 79 q 769 230 728 203 q 853 267 811 257 q 990 226 951 251 q 1028 144 1028 200 q 988 49 1028 81 q 879 18 949 18 "},"⅜":{"ha":1196,"x_min":82,"x_max":1119,"o":"m 271 435 q 394 477 351 435 q 438 590 438 519 q 416 674 438 638 q 354 729 394 710 q 407 779 390 746 q 424 853 424 813 q 382 963 424 921 q 271 1006 340 1006 q 150 972 193 1006 q 86 858 107 939 q 92 844 85 849 l 101 842 q 110 842 107 840 q 117 850 114 843 q 169 947 133 919 q 269 975 206 975 q 358 941 325 975 q 390 851 390 907 q 367 775 390 807 q 303 743 344 743 l 210 743 q 203 741 204 743 q 201 733 201 739 l 201 722 q 203 715 201 717 q 210 713 204 713 l 306 713 q 375 677 347 713 q 403 592 403 642 q 369 500 403 535 q 271 465 335 465 q 166 496 203 465 q 114 597 129 526 q 107 606 113 606 l 101 604 l 89 600 q 83 597 85 599 q 83 586 82 594 q 146 472 101 508 q 271 435 190 435 m 282 0 l 294 0 q 308 2 304 0 q 317 11 311 4 l 911 974 q 906 986 919 986 l 892 986 q 881 984 885 986 q 874 975 878 982 l 276 13 q 282 0 268 0 m 936 -11 q 1072 27 1024 -11 q 1119 146 1119 65 q 1091 231 1119 199 q 1004 278 1063 263 q 1073 327 1043 293 q 1103 419 1103 361 q 1059 522 1103 485 q 936 560 1015 560 q 810 521 856 560 q 765 411 765 482 q 788 329 765 361 q 861 281 810 297 q 784 229 817 264 q 751 133 751 194 q 800 26 751 63 q 936 -11 849 -11 m 958 289 q 833 329 868 303 q 799 411 799 356 q 835 499 799 468 q 936 531 872 531 q 1034 500 999 531 q 1069 418 1069 469 q 1033 328 1069 357 q 958 289 997 299 m 936 18 q 825 49 865 18 q 785 136 785 79 q 826 230 785 203 q 910 267 868 257 q 1047 226 1008 251 q 1085 144 1085 200 q 1045 49 1085 81 q 936 18 1006 18 "}}}
